{"glyphs":{"0":{"ha":772,"x_min":43,"x_max":749,"o":"m 326 -17 q 115 48 186 -17 q 43 271 43 113 q 64 476 43 358 q 150 773 94 665 q 282 925 206 881 q 464 969 358 969 q 676 903 604 969 q 749 679 749 838 q 729 476 749 585 q 641 180 697 288 q 508 28 585 72 q 326 -17 432 -17 m 319 101 q 447 142 397 101 q 526 260 496 182 q 578 461 556 338 q 604 676 604 599 q 573 808 604 764 q 471 851 542 851 q 345 811 394 851 q 267 694 296 771 q 214 492 238 617 q 188 275 188 353 q 218 144 188 188 q 319 101 249 101 z "},"1":{"ha":772,"x_min":44,"x_max":668,"o":"m 65 118 l 304 118 l 418 761 l 176 761 l 192 849 q 356 885 258 856 q 531 953 454 914 l 594 953 l 447 118 l 668 118 l 647 0 l 44 0 l 65 118 z "},"2":{"ha":772,"x_min":-19,"x_max":760,"o":"m -12 43 q 49 182 0 118 q 160 295 97 246 q 324 411 222 344 q 478 521 422 476 q 573 621 535 565 q 611 740 611 676 q 577 817 611 786 q 469 849 543 849 q 258 682 292 849 l 247 625 l 104 625 q 164 822 111 744 q 299 934 217 899 q 479 969 382 969 q 689 908 618 969 q 760 738 760 846 q 709 567 760 643 q 588 435 658 490 q 403 304 518 379 q 300 236 340 264 q 229 181 260 208 q 188 133 200 151 l 661 133 l 638 0 l -19 0 l -12 43 z "},"3":{"ha":772,"x_min":18,"x_max":758,"o":"m 338 -17 q 100 44 182 -17 q 18 213 18 106 q 26 285 18 249 l 171 285 q 164 226 164 250 q 206 133 164 165 q 328 101 249 101 q 489 152 425 101 q 553 301 553 203 q 376 425 553 425 l 285 425 l 306 543 l 401 543 q 501 565 454 543 q 578 629 549 586 q 608 735 608 672 q 568 822 608 793 q 464 851 528 851 q 325 807 379 851 q 264 696 271 763 l 261 679 l 117 679 l 119 697 q 180 842 131 781 q 303 937 229 904 q 464 969 378 969 q 679 911 600 969 q 758 746 758 853 q 706 590 758 650 q 561 494 653 531 l 560 489 q 661 417 624 467 q 699 293 699 368 q 651 130 699 200 q 520 22 603 60 q 338 -17 438 -17 z "},"4":{"ha":772,"x_min":-4,"x_max":713,"o":"m 426 225 l -4 225 l 15 344 q 376 969 236 631 l 535 969 q 413 724 488 853 q 265 492 338 596 q 151 343 192 388 l 447 343 l 496 619 q 603 828 551 710 l 675 828 l 590 343 l 713 343 l 692 225 l 569 225 l 529 0 l 386 0 l 426 225 z "},"5":{"ha":772,"x_min":18,"x_max":754,"o":"m 321 -17 q 99 49 179 -17 q 18 229 18 114 q 24 296 18 264 l 169 296 q 165 251 165 271 q 206 140 165 181 q 315 100 247 100 q 429 127 376 100 q 515 212 482 154 q 547 357 547 269 q 511 465 547 428 q 411 503 475 503 q 299 476 351 503 q 208 406 246 450 l 78 425 l 210 953 l 754 953 l 731 819 l 310 819 l 243 556 q 453 619 332 619 q 631 557 564 619 q 699 372 699 494 q 649 165 699 253 q 513 30 599 76 q 321 -17 426 -17 z "},"6":{"ha":772,"x_min":33,"x_max":732,"o":"m 336 -17 q 110 51 186 -17 q 33 279 33 119 q 50 450 33 353 q 138 756 82 642 q 276 919 194 869 q 468 969 357 969 q 667 910 603 969 q 732 746 732 850 q 725 672 732 714 l 581 672 q 585 726 585 701 q 463 851 585 851 q 297 769 353 851 q 208 521 242 688 q 308 585 249 560 q 436 611 368 611 q 633 544 567 611 q 699 363 699 478 q 649 165 699 251 q 517 31 600 78 q 336 -17 433 -17 m 329 101 q 445 135 396 101 q 521 225 494 169 q 547 343 547 281 q 513 455 547 414 q 403 496 478 496 q 284 464 335 496 q 206 377 233 432 q 178 256 178 322 q 216 143 178 185 q 329 101 254 101 z "},"7":{"ha":772,"x_min":117,"x_max":819,"o":"m 117 0 q 290 431 156 219 q 596 819 424 642 l 118 819 l 142 953 l 819 953 l 804 863 q 476 482 611 675 q 296 67 340 289 l 285 0 l 117 0 z "},"8":{"ha":772,"x_min":13,"x_max":743,"o":"m 321 -17 q 88 45 163 -17 q 13 211 13 107 q 63 380 13 307 q 213 489 114 453 q 140 562 164 517 q 115 663 115 607 q 158 815 115 744 q 278 928 200 886 q 460 969 357 969 q 671 907 599 969 q 743 743 743 844 q 699 594 743 661 q 571 489 654 526 q 690 301 690 435 q 649 142 690 214 q 524 26 607 69 q 321 -17 440 -17 m 401 546 q 540 596 483 546 q 597 733 597 646 q 560 822 597 790 q 456 853 524 853 q 315 802 369 853 q 260 664 260 751 q 297 576 260 607 q 401 546 333 546 m 324 100 q 478 152 414 100 q 543 301 543 204 q 501 395 543 363 q 381 428 460 428 q 221 374 281 428 q 161 228 161 319 q 203 134 161 168 q 324 100 244 100 z "},"9":{"ha":772,"x_min":47,"x_max":747,"o":"m 313 -17 q 113 43 178 -17 q 47 207 47 103 q 54 281 47 239 l 199 281 q 194 226 194 251 q 317 101 194 101 q 483 183 428 101 q 571 432 539 265 q 472 367 531 393 q 344 342 413 342 q 147 408 213 342 q 81 590 81 475 q 130 788 81 701 q 263 922 179 875 q 444 969 346 969 q 670 901 593 969 q 747 674 747 833 q 731 503 747 601 q 581 102 683 221 q 313 -17 479 -17 m 376 457 q 496 489 444 457 q 575 576 547 521 q 603 697 603 631 q 565 810 603 768 q 450 851 526 851 q 334 817 383 851 q 258 728 285 783 q 232 610 232 672 q 267 498 232 539 q 376 457 303 457 z "},"\u0000":{"ha":0,"x_min":0,"x_max":0,"o":""},"\r":{"ha":386,"x_min":0,"x_max":0,"o":""}," ":{"ha":386,"x_min":0,"x_max":0,"o":""},"A":{"ha":950,"x_min":-62,"x_max":872,"o":"m -62 0 l 475 953 l 671 953 l 872 0 l 714 0 l 667 232 l 226 232 l 100 0 l -62 0 m 640 364 l 590 619 q 569 732 585 644 l 554 821 l 547 821 l 442 624 l 299 364 l 640 364 z "},"Á":{"ha":950,"x_min":-62,"x_max":872,"o":"m 0 0 m -62 0 l 475 953 l 671 953 l 872 0 l 714 0 l 667 232 l 226 232 l 100 0 l -62 0 m 640 364 l 590 619 q 569 732 585 644 l 554 821 l 547 821 l 442 624 l 299 364 l 640 364 m 524 1022 l 672 1206 l 828 1206 l 829 1201 l 654 1022 l 524 1022 z "},"Ă":{"ha":950,"x_min":-62,"x_max":872,"o":"m 0 0 m -62 0 l 475 953 l 671 953 l 872 0 l 714 0 l 667 232 l 226 232 l 100 0 l -62 0 m 640 364 l 590 619 q 569 732 585 644 l 554 821 l 547 821 l 442 624 l 299 364 l 640 364 m 590 1035 q 442 1074 488 1035 q 397 1172 397 1113 q 400 1206 397 1194 l 497 1206 q 590 1135 497 1135 q 679 1156 646 1135 q 721 1206 713 1178 l 818 1206 q 792 1138 811 1171 q 742 1082 772 1104 q 590 1035 681 1035 z "},"Ắ":{"ha":950,"x_min":-62,"x_max":872,"o":"m 0 0 m -62 0 l 475 953 l 671 953 l 872 0 l 714 0 l 667 232 l 226 232 l 100 0 l -62 0 m 640 364 l 590 619 q 569 732 585 644 l 554 821 l 547 821 l 442 624 l 299 364 l 640 364 m 590 1035 q 442 1074 488 1035 q 397 1172 397 1113 q 400 1206 397 1194 l 497 1206 q 590 1135 497 1135 q 679 1156 646 1135 q 721 1206 713 1178 l 818 1206 q 792 1138 811 1171 q 742 1082 772 1104 q 590 1035 681 1035 m 532 1206 l 681 1389 l 836 1389 l 838 1385 l 663 1206 l 532 1206 z "},"Ặ":{"ha":950,"x_min":-62,"x_max":872,"o":"m 0 0 m -62 0 l 475 953 l 671 953 l 872 0 l 714 0 l 667 232 l 226 232 l 100 0 l -62 0 m 640 364 l 590 619 q 569 732 585 644 l 554 821 l 547 821 l 442 624 l 299 364 l 640 364 m 590 1035 q 442 1074 488 1035 q 397 1172 397 1113 q 400 1206 397 1194 l 497 1206 q 590 1135 497 1135 q 679 1156 646 1135 q 721 1206 713 1178 l 818 1206 q 792 1138 811 1171 q 742 1082 772 1104 q 590 1035 681 1035 m 299 -240 l 325 -94 l 467 -94 l 440 -240 l 299 -240 z "},"Ằ":{"ha":950,"x_min":-62,"x_max":872,"o":"m 0 0 m -62 0 l 475 953 l 671 953 l 872 0 l 714 0 l 667 232 l 226 232 l 100 0 l -62 0 m 640 364 l 590 619 q 569 732 585 644 l 554 821 l 547 821 l 442 624 l 299 364 l 640 364 m 590 1035 q 442 1074 488 1035 q 397 1172 397 1113 q 400 1206 397 1194 l 497 1206 q 590 1135 497 1135 q 679 1156 646 1135 q 721 1206 713 1178 l 818 1206 q 792 1138 811 1171 q 742 1082 772 1104 q 590 1035 681 1035 m 558 1206 l 440 1385 l 442 1389 l 589 1389 l 674 1206 l 558 1206 z "},"Ẳ":{"ha":950,"x_min":-62,"x_max":872,"o":"m 0 0 m -62 0 l 475 953 l 671 953 l 872 0 l 714 0 l 667 232 l 226 232 l 100 0 l -62 0 m 640 364 l 590 619 q 569 732 585 644 l 554 821 l 547 821 l 442 624 l 299 364 l 640 364 m 590 1035 q 442 1074 488 1035 q 397 1172 397 1113 q 400 1206 397 1194 l 497 1206 q 590 1135 497 1135 q 679 1156 646 1135 q 721 1206 713 1178 l 818 1206 q 792 1138 811 1171 q 742 1082 772 1104 q 590 1035 681 1035 m 571 1288 l 589 1288 q 624 1295 614 1288 q 635 1318 635 1303 q 624 1333 635 1329 q 594 1338 614 1338 l 511 1338 l 521 1394 q 629 1406 572 1406 q 716 1390 679 1406 q 753 1336 753 1375 q 722 1270 753 1293 q 646 1243 690 1247 l 639 1206 l 556 1206 l 571 1288 z "},"Ẵ":{"ha":950,"x_min":-62,"x_max":872,"o":"m 0 0 m -62 0 l 475 953 l 671 953 l 872 0 l 714 0 l 667 232 l 226 232 l 100 0 l -62 0 m 640 364 l 590 619 q 569 732 585 644 l 554 821 l 547 821 l 442 624 l 299 364 l 640 364 m 590 1035 q 442 1074 488 1035 q 397 1172 397 1113 q 400 1206 397 1194 l 497 1206 q 590 1135 497 1135 q 679 1156 646 1135 q 721 1206 713 1178 l 818 1206 q 792 1138 811 1171 q 742 1082 772 1104 q 590 1035 681 1035 m 383 1275 q 432 1385 394 1342 q 532 1428 469 1428 q 578 1422 557 1428 q 633 1404 600 1417 q 683 1388 663 1393 q 725 1382 703 1382 q 775 1428 763 1382 l 868 1428 q 819 1318 857 1361 q 718 1275 781 1275 q 672 1281 693 1275 q 617 1299 650 1286 q 567 1315 588 1310 q 525 1321 547 1321 q 475 1275 488 1321 l 383 1275 z "},"Ǎ":{"ha":950,"x_min":-62,"x_max":872,"o":"m 0 0 m -62 0 l 475 953 l 671 953 l 872 0 l 714 0 l 667 232 l 226 232 l 100 0 l -62 0 m 640 364 l 590 619 q 569 732 585 644 l 554 821 l 547 821 l 442 624 l 299 364 l 640 364 m 522 1018 l 408 1206 l 538 1206 l 600 1100 l 693 1206 l 835 1206 l 656 1018 l 522 1018 z "},"Â":{"ha":950,"x_min":-62,"x_max":872,"o":"m 0 0 m -62 0 l 475 953 l 671 953 l 872 0 l 714 0 l 667 232 l 226 232 l 100 0 l -62 0 m 640 364 l 590 619 q 569 732 585 644 l 554 821 l 547 821 l 442 624 l 299 364 l 640 364 m 368 1018 l 547 1206 l 681 1206 l 794 1018 l 667 1018 l 606 1124 l 510 1018 l 368 1018 z "},"Ấ":{"ha":950,"x_min":-62,"x_max":1035,"o":"m 0 0 m -62 0 l 475 953 l 671 953 l 872 0 l 714 0 l 667 232 l 226 232 l 100 0 l -62 0 m 640 364 l 590 619 q 569 732 585 644 l 554 821 l 547 821 l 442 624 l 299 364 l 640 364 m 368 1018 l 547 1206 l 681 1206 l 794 1018 l 667 1018 l 606 1124 l 510 1018 l 368 1018 m 729 1154 l 878 1338 l 1033 1338 l 1035 1333 l 860 1154 l 729 1154 z "},"Ậ":{"ha":950,"x_min":-62,"x_max":872,"o":"m 0 0 m -62 0 l 475 953 l 671 953 l 872 0 l 714 0 l 667 232 l 226 232 l 100 0 l -62 0 m 640 364 l 590 619 q 569 732 585 644 l 554 821 l 547 821 l 442 624 l 299 364 l 640 364 m 368 1018 l 547 1206 l 681 1206 l 794 1018 l 667 1018 l 606 1124 l 510 1018 l 368 1018 m 299 -240 l 325 -94 l 467 -94 l 440 -240 l 299 -240 z "},"Ầ":{"ha":950,"x_min":-62,"x_max":907,"o":"m 0 0 m -62 0 l 475 953 l 671 953 l 872 0 l 714 0 l 667 232 l 226 232 l 100 0 l -62 0 m 640 364 l 590 619 q 569 732 585 644 l 554 821 l 547 821 l 442 624 l 299 364 l 640 364 m 368 1018 l 547 1206 l 681 1206 l 794 1018 l 667 1018 l 606 1124 l 510 1018 l 368 1018 m 792 1154 l 674 1333 l 675 1338 l 822 1338 l 907 1154 l 792 1154 z "},"Ẩ":{"ha":950,"x_min":-62,"x_max":950,"o":"m 0 0 m -62 0 l 475 953 l 671 953 l 872 0 l 714 0 l 667 232 l 226 232 l 100 0 l -62 0 m 640 364 l 590 619 q 569 732 585 644 l 554 821 l 547 821 l 442 624 l 299 364 l 640 364 m 368 1018 l 547 1206 l 681 1206 l 794 1018 l 667 1018 l 606 1124 l 510 1018 l 368 1018 m 768 1236 l 786 1236 q 822 1244 811 1236 q 832 1267 832 1251 q 822 1282 832 1278 q 792 1286 811 1286 l 708 1286 l 718 1343 q 826 1354 769 1354 q 913 1339 876 1354 q 950 1285 950 1324 q 919 1219 950 1242 q 843 1192 888 1196 l 836 1154 l 753 1154 l 768 1236 z "},"Ẫ":{"ha":950,"x_min":-62,"x_max":883,"o":"m 0 0 m -62 0 l 475 953 l 671 953 l 872 0 l 714 0 l 667 232 l 226 232 l 100 0 l -62 0 m 640 364 l 590 619 q 569 732 585 644 l 554 821 l 547 821 l 442 624 l 299 364 l 640 364 m 368 1018 l 547 1206 l 681 1206 l 794 1018 l 667 1018 l 606 1124 l 510 1018 l 368 1018 m 399 1275 q 447 1385 410 1342 q 547 1428 485 1428 q 594 1422 572 1428 q 649 1404 615 1417 q 698 1388 678 1393 q 740 1382 718 1382 q 790 1428 778 1382 l 883 1428 q 834 1318 872 1361 q 733 1275 796 1275 q 687 1281 708 1275 q 632 1299 665 1286 q 583 1315 603 1310 q 540 1321 563 1321 q 490 1275 503 1321 l 399 1275 z "},"Ȁ":{"ha":950,"x_min":-62,"x_max":872,"o":"m 0 0 m -62 0 l 475 953 l 671 953 l 872 0 l 714 0 l 667 232 l 226 232 l 100 0 l -62 0 m 640 364 l 590 619 q 569 732 585 644 l 554 821 l 547 821 l 442 624 l 299 364 l 640 364 m 449 1022 l 354 1201 l 357 1206 l 507 1206 l 567 1022 l 449 1022 m 657 1022 l 563 1201 l 565 1206 l 715 1206 l 775 1022 l 657 1022 z "},"Ä":{"ha":950,"x_min":-62,"x_max":872,"o":"m 0 0 m -62 0 l 475 953 l 671 953 l 872 0 l 714 0 l 667 232 l 226 232 l 100 0 l -62 0 m 640 364 l 590 619 q 569 732 585 644 l 554 821 l 547 821 l 442 624 l 299 364 l 640 364 m 396 1064 l 421 1206 l 556 1206 l 529 1064 l 396 1064 m 665 1064 l 690 1206 l 825 1206 l 800 1064 l 665 1064 z "},"Ạ":{"ha":950,"x_min":-62,"x_max":872,"o":"m 0 0 m -62 0 l 475 953 l 671 953 l 872 0 l 714 0 l 667 232 l 226 232 l 100 0 l -62 0 m 640 364 l 590 619 q 569 732 585 644 l 554 821 l 547 821 l 442 624 l 299 364 l 640 364 m 299 -240 l 325 -94 l 467 -94 l 440 -240 l 299 -240 z "},"À":{"ha":950,"x_min":-62,"x_max":872,"o":"m 0 0 m -62 0 l 475 953 l 671 953 l 872 0 l 714 0 l 667 232 l 226 232 l 100 0 l -62 0 m 640 364 l 590 619 q 569 732 585 644 l 554 821 l 547 821 l 442 624 l 299 364 l 640 364 m 532 1022 l 414 1201 l 415 1206 l 563 1206 l 647 1022 l 532 1022 z "},"Ả":{"ha":950,"x_min":-62,"x_max":872,"o":"m 0 0 m -62 0 l 475 953 l 671 953 l 872 0 l 714 0 l 667 232 l 226 232 l 100 0 l -62 0 m 640 364 l 590 619 q 569 732 585 644 l 554 821 l 547 821 l 442 624 l 299 364 l 640 364 m 564 1104 l 582 1104 q 617 1112 607 1104 q 628 1135 628 1119 q 617 1150 628 1146 q 588 1154 607 1154 l 504 1154 l 514 1211 q 622 1222 565 1222 q 709 1207 672 1222 q 746 1153 746 1192 q 715 1087 746 1110 q 639 1060 683 1064 l 632 1022 l 549 1022 l 564 1104 z "},"Ȃ":{"ha":950,"x_min":-62,"x_max":872,"o":"m 0 0 m -62 0 l 475 953 l 671 953 l 872 0 l 714 0 l 667 232 l 226 232 l 100 0 l -62 0 m 640 364 l 590 619 q 569 732 585 644 l 554 821 l 547 821 l 442 624 l 299 364 l 640 364 m 382 1035 q 449 1157 394 1108 q 621 1206 504 1206 q 757 1163 711 1206 q 803 1060 803 1121 q 800 1035 803 1051 l 703 1035 q 681 1084 704 1063 q 603 1106 658 1106 q 519 1084 549 1106 q 479 1035 490 1063 l 382 1035 z "},"Ā":{"ha":950,"x_min":-62,"x_max":872,"o":"m 0 0 m -62 0 l 475 953 l 671 953 l 872 0 l 714 0 l 667 232 l 226 232 l 100 0 l -62 0 m 640 364 l 590 619 q 569 732 585 644 l 554 821 l 547 821 l 442 624 l 299 364 l 640 364 m 388 1065 l 406 1172 l 829 1172 l 811 1065 l 388 1065 z "},"Ą":{"ha":950,"x_min":-62,"x_max":872,"o":"m 728 -253 q 649 -228 682 -253 q 617 -149 617 -203 q 714 0 617 -61 l 667 232 l 226 232 l 100 0 l -62 0 l 475 953 l 671 953 l 872 0 l 825 0 q 768 -48 790 -21 q 746 -106 746 -75 q 760 -145 746 -129 q 803 -161 775 -161 l 844 -161 l 832 -233 q 728 -253 779 -253 m 640 364 l 590 619 q 569 732 585 644 l 554 821 l 547 821 l 442 624 l 299 364 l 640 364 z "},"Å":{"ha":950,"x_min":-62,"x_max":872,"o":"m 0 0 m -62 0 l 475 953 l 671 953 l 872 0 l 714 0 l 667 232 l 226 232 l 100 0 l -62 0 m 640 364 l 590 619 q 569 732 585 644 l 554 821 l 547 821 l 442 624 l 299 364 l 640 364 m 583 983 q 497 1015 531 983 q 464 1094 464 1047 q 507 1209 464 1164 q 621 1254 550 1254 q 707 1222 674 1254 q 740 1140 740 1189 q 697 1028 740 1072 q 583 983 654 983 m 592 1051 q 649 1074 628 1051 q 671 1131 671 1097 q 655 1171 671 1156 q 613 1186 639 1186 q 555 1163 576 1186 q 533 1104 533 1139 q 549 1066 533 1081 q 592 1051 564 1051 z "},"Ǻ":{"ha":950,"x_min":-62,"x_max":872,"o":"m 550 1196 l 697 1379 l 853 1379 l 854 1375 l 679 1196 l 550 1196 m 468 940 q 446 1004 446 967 q 489 1119 446 1074 q 603 1164 532 1164 q 688 1131 656 1164 q 721 1050 721 1099 q 674 936 721 974 l 872 0 l 714 0 l 667 232 l 226 232 l 100 0 l -62 0 l 468 940 m 574 960 q 631 983 608 960 q 653 1040 653 1007 q 637 1080 653 1064 q 594 1096 621 1096 q 537 1072 558 1096 q 515 1014 515 1049 q 531 975 515 990 q 574 960 546 960 m 640 364 l 590 619 q 569 732 585 644 l 554 821 l 547 821 l 442 624 l 299 364 l 640 364 z "},"Ã":{"ha":950,"x_min":-62,"x_max":872,"o":"m 0 0 m -62 0 l 475 953 l 671 953 l 872 0 l 714 0 l 667 232 l 226 232 l 100 0 l -62 0 m 640 364 l 590 619 q 569 732 585 644 l 554 821 l 547 821 l 442 624 l 299 364 l 640 364 m 365 1053 q 414 1163 376 1119 q 514 1206 451 1206 q 560 1200 539 1206 q 615 1182 582 1194 q 665 1165 644 1171 q 707 1160 685 1160 q 757 1206 744 1160 l 850 1206 q 801 1096 839 1139 q 700 1053 763 1053 q 653 1058 675 1053 q 599 1076 632 1064 q 549 1093 569 1088 q 507 1099 529 1099 q 457 1053 469 1099 l 365 1053 z "},"Æ":{"ha":1389,"x_min":-85,"x_max":1390,"o":"m -85 0 l 556 953 l 1390 953 l 1365 821 l 772 821 l 800 553 l 1258 553 l 1235 421 l 814 421 l 843 132 l 1254 132 l 1231 0 l 710 0 l 686 232 l 233 232 l 81 0 l -85 0 m 319 364 l 674 364 l 629 821 l 622 821 l 319 364 z "},"Ǽ":{"ha":1389,"x_min":-85,"x_max":1390,"o":"m 0 0 m -85 0 l 556 953 l 1390 953 l 1365 821 l 772 821 l 800 553 l 1258 553 l 1235 421 l 814 421 l 843 132 l 1254 132 l 1231 0 l 710 0 l 686 232 l 233 232 l 81 0 l -85 0 m 319 364 l 674 364 l 629 821 l 622 821 l 319 364 m 749 1022 l 897 1206 l 1053 1206 l 1054 1201 l 879 1022 l 749 1022 z "},"B":{"ha":950,"x_min":21,"x_max":901,"o":"m 189 953 l 619 953 q 826 899 751 953 q 901 743 901 846 q 844 589 901 656 q 703 500 788 522 l 703 494 q 810 424 771 475 q 850 293 850 372 q 805 128 850 194 q 686 31 760 63 q 522 0 613 0 l 21 0 l 189 953 m 567 554 q 697 598 649 554 q 744 708 744 642 q 619 821 744 821 l 319 821 l 272 554 l 567 554 m 515 132 q 645 172 596 132 q 694 299 694 211 q 659 391 694 360 q 556 422 624 422 l 250 422 l 199 132 l 515 132 z "},"C":{"ha":1003,"x_min":50,"x_max":971,"o":"m 453 -17 q 50 350 50 -17 q 103 647 50 514 q 260 861 157 781 q 597 969 396 969 q 869 897 768 969 q 971 683 971 824 q 964 606 971 651 l 807 606 q 813 658 813 642 q 757 793 813 747 q 601 839 701 839 q 356 755 451 839 q 226 519 260 671 q 208 360 208 433 q 268 174 208 233 q 450 114 328 114 q 662 173 578 114 q 767 344 746 232 l 918 344 q 762 74 888 165 q 453 -17 636 -17 z "},"Ć":{"ha":1003,"x_min":50,"x_max":971,"o":"m 50 0 m 453 -17 q 50 350 50 -17 q 103 647 50 514 q 260 861 157 781 q 597 969 396 969 q 869 897 768 969 q 971 683 971 824 q 964 606 971 651 l 807 606 q 813 658 813 642 q 757 793 813 747 q 601 839 701 839 q 356 755 451 839 q 226 519 260 671 q 208 360 208 433 q 268 174 208 233 q 450 114 328 114 q 662 173 578 114 q 767 344 746 232 l 918 344 q 762 74 888 165 q 453 -17 636 -17 m 549 1022 l 697 1206 l 853 1206 l 854 1201 l 679 1022 l 549 1022 z "},"Č":{"ha":1003,"x_min":50,"x_max":971,"o":"m 50 0 m 453 -17 q 50 350 50 -17 q 103 647 50 514 q 260 861 157 781 q 597 969 396 969 q 869 897 768 969 q 971 683 971 824 q 964 606 971 651 l 807 606 q 813 658 813 642 q 757 793 813 747 q 601 839 701 839 q 356 755 451 839 q 226 519 260 671 q 208 360 208 433 q 268 174 208 233 q 450 114 328 114 q 662 173 578 114 q 767 344 746 232 l 918 344 q 762 74 888 165 q 453 -17 636 -17 m 547 1018 l 433 1206 l 563 1206 l 625 1100 l 718 1206 l 860 1206 l 681 1018 l 547 1018 z "},"Ç":{"ha":1003,"x_min":50,"x_max":971,"o":"m 807 606 q 813 658 813 642 q 757 793 813 747 q 601 839 701 839 q 356 755 451 839 q 226 519 260 671 q 208 360 208 433 q 268 174 208 233 q 450 114 328 114 q 662 173 578 114 q 767 344 746 232 l 918 344 q 771 81 888 172 q 481 -17 654 -10 l 469 -49 q 553 -71 521 -50 q 586 -132 586 -92 q 532 -226 586 -200 q 401 -253 478 -253 q 260 -242 322 -253 l 272 -174 l 406 -174 q 453 -165 436 -174 q 469 -132 469 -156 q 458 -113 469 -119 q 419 -107 447 -107 l 353 -107 l 386 -14 q 50 350 50 15 q 103 647 50 514 q 260 861 157 781 q 597 969 396 969 q 869 897 768 969 q 971 683 971 824 q 964 606 971 651 l 807 606 z "},"Ĉ":{"ha":1003,"x_min":50,"x_max":971,"o":"m 50 0 m 453 -17 q 50 350 50 -17 q 103 647 50 514 q 260 861 157 781 q 597 969 396 969 q 869 897 768 969 q 971 683 971 824 q 964 606 971 651 l 807 606 q 813 658 813 642 q 757 793 813 747 q 601 839 701 839 q 356 755 451 839 q 226 519 260 671 q 208 360 208 433 q 268 174 208 233 q 450 114 328 114 q 662 173 578 114 q 767 344 746 232 l 918 344 q 762 74 888 165 q 453 -17 636 -17 m 393 1018 l 572 1206 l 706 1206 l 819 1018 l 692 1018 l 631 1124 l 535 1018 l 393 1018 z "},"Ċ":{"ha":1003,"x_min":50,"x_max":971,"o":"m 50 0 m 453 -17 q 50 350 50 -17 q 103 647 50 514 q 260 861 157 781 q 597 969 396 969 q 869 897 768 969 q 971 683 971 824 q 964 606 971 651 l 807 606 q 813 658 813 642 q 757 793 813 747 q 601 839 701 839 q 356 755 451 839 q 226 519 260 671 q 208 360 208 433 q 268 174 208 233 q 450 114 328 114 q 662 173 578 114 q 767 344 746 232 l 918 344 q 762 74 888 165 q 453 -17 636 -17 m 550 1060 l 576 1206 l 718 1206 l 692 1060 l 550 1060 z "},"D":{"ha":1003,"x_min":21,"x_max":953,"o":"m 189 953 l 531 953 q 844 860 735 953 q 953 576 953 767 q 915 336 953 444 q 803 151 876 228 q 633 39 732 78 q 414 0 533 0 l 21 0 l 189 953 m 407 132 q 656 214 556 132 q 783 447 756 296 q 794 565 794 518 q 531 821 794 821 l 318 821 l 199 132 l 407 132 z "},"Ǳ":{"ha":1851,"x_min":21,"x_max":1893,"o":"m 21 0 m 189 953 l 531 953 q 844 860 735 953 q 953 576 953 767 q 915 336 953 444 q 803 151 876 228 q 633 39 732 78 q 414 0 533 0 l 21 0 l 189 953 m 407 132 q 656 214 556 132 q 783 447 756 296 q 794 565 794 518 q 531 821 794 821 l 318 821 l 199 132 l 407 132 m 951 0 l 965 76 l 1629 821 l 1131 821 l 1154 953 l 1893 953 l 1879 876 l 1213 132 l 1761 132 l 1738 0 l 951 0 z "},"Ǆ":{"ha":1851,"x_min":21,"x_max":1893,"o":"m 21 0 m 189 953 l 531 953 q 844 860 735 953 q 953 576 953 767 q 915 336 953 444 q 803 151 876 228 q 633 39 732 78 q 414 0 533 0 l 21 0 l 189 953 m 407 132 q 656 214 556 132 q 783 447 756 296 q 794 565 794 518 q 531 821 794 821 l 318 821 l 199 132 l 407 132 m 951 0 l 965 76 l 1629 821 l 1131 821 l 1154 953 l 1893 953 l 1879 876 l 1213 132 l 1761 132 l 1738 0 l 951 0 m 1468 1018 l 1354 1206 l 1483 1206 l 1546 1100 l 1639 1206 l 1781 1206 l 1601 1018 l 1468 1018 z "},"Ð":{"ha":1003,"x_min":1,"x_max":953,"o":"m 531 953 q 844 860 735 953 q 953 576 953 767 q 915 336 953 444 q 803 151 876 228 q 633 39 732 78 q 414 0 533 0 l 21 0 l 99 444 l 1 444 l 18 542 l 117 542 l 189 953 l 531 953 m 783 447 q 794 565 794 518 q 531 821 794 821 l 318 821 l 269 542 l 496 542 l 479 444 l 253 444 l 199 132 l 407 132 q 656 214 556 132 q 783 447 756 296 z "},"Ď":{"ha":1003,"x_min":21,"x_max":953,"o":"m 21 0 m 189 953 l 531 953 q 844 860 735 953 q 953 576 953 767 q 915 336 953 444 q 803 151 876 228 q 633 39 732 78 q 414 0 533 0 l 21 0 l 189 953 m 407 132 q 656 214 556 132 q 783 447 756 296 q 794 565 794 518 q 531 821 794 821 l 318 821 l 199 132 l 407 132 m 482 1018 l 368 1206 l 497 1206 l 560 1100 l 653 1206 l 794 1206 l 615 1018 l 482 1018 z "},"Đ":{"ha":1003,"x_min":1,"x_max":953,"o":"m 1 0 m 531 953 q 844 860 735 953 q 953 576 953 767 q 915 336 953 444 q 803 151 876 228 q 633 39 732 78 q 414 0 533 0 l 21 0 l 99 444 l 1 444 l 18 542 l 117 542 l 189 953 l 531 953 m 783 447 q 794 565 794 518 q 531 821 794 821 l 318 821 l 269 542 l 496 542 l 479 444 l 253 444 l 199 132 l 407 132 q 656 214 556 132 q 783 447 756 296 z "},"Ḍ":{"ha":1003,"x_min":21,"x_max":953,"o":"m 21 0 m 189 953 l 531 953 q 844 860 735 953 q 953 576 953 767 q 915 336 953 444 q 803 151 876 228 q 633 39 732 78 q 414 0 533 0 l 21 0 l 189 953 m 407 132 q 656 214 556 132 q 783 447 756 296 q 794 565 794 518 q 531 821 794 821 l 318 821 l 199 132 l 407 132 m 325 -240 l 351 -94 l 493 -94 l 467 -240 l 325 -240 z "},"ǲ":{"ha":1697,"x_min":21,"x_max":1704,"o":"m 21 0 m 189 953 l 531 953 q 844 860 735 953 q 953 576 953 767 q 915 336 953 444 q 803 151 876 228 q 633 39 732 78 q 414 0 533 0 l 21 0 l 189 953 m 407 132 q 656 214 556 132 q 783 447 756 296 q 794 565 794 518 q 531 821 794 821 l 318 821 l 199 132 l 407 132 m 967 0 l 979 71 l 1464 613 l 1100 613 l 1121 731 l 1704 731 l 1692 661 l 1204 118 l 1615 118 l 1594 0 l 967 0 z "},"ǅ":{"ha":1697,"x_min":21,"x_max":1704,"o":"m 21 0 m 189 953 l 531 953 q 844 860 735 953 q 953 576 953 767 q 915 336 953 444 q 803 151 876 228 q 633 39 732 78 q 414 0 533 0 l 21 0 l 189 953 m 407 132 q 656 214 556 132 q 783 447 756 296 q 794 565 794 518 q 531 821 794 821 l 318 821 l 199 132 l 407 132 m 967 0 l 979 71 l 1464 613 l 1100 613 l 1121 731 l 1704 731 l 1692 661 l 1204 118 l 1615 118 l 1594 0 l 967 0 m 1363 817 l 1249 1004 l 1378 1004 l 1440 899 l 1533 1004 l 1675 1004 l 1496 817 l 1363 817 z "},"E":{"ha":926,"x_min":21,"x_max":928,"o":"m 21 0 l 189 953 l 928 953 l 903 821 l 318 821 l 272 553 l 796 553 l 772 421 l 249 421 l 199 132 l 792 132 l 768 0 l 21 0 z "},"É":{"ha":926,"x_min":21,"x_max":928,"o":"m 21 0 m 21 0 l 189 953 l 928 953 l 903 821 l 318 821 l 272 553 l 796 553 l 772 421 l 249 421 l 199 132 l 792 132 l 768 0 l 21 0 m 514 1022 l 663 1206 l 818 1206 l 819 1201 l 644 1022 l 514 1022 z "},"Ĕ":{"ha":926,"x_min":21,"x_max":928,"o":"m 21 0 m 21 0 l 189 953 l 928 953 l 903 821 l 318 821 l 272 553 l 796 553 l 772 421 l 249 421 l 199 132 l 792 132 l 768 0 l 21 0 m 581 1035 q 433 1074 478 1035 q 388 1172 388 1113 q 390 1206 388 1194 l 488 1206 q 581 1135 488 1135 q 669 1156 636 1135 q 711 1206 703 1178 l 808 1206 q 782 1138 801 1171 q 732 1082 763 1104 q 581 1035 671 1035 z "},"Ě":{"ha":926,"x_min":21,"x_max":928,"o":"m 21 0 m 21 0 l 189 953 l 928 953 l 903 821 l 318 821 l 272 553 l 796 553 l 772 421 l 249 421 l 199 132 l 792 132 l 768 0 l 21 0 m 513 1018 l 399 1206 l 528 1206 l 590 1100 l 683 1206 l 825 1206 l 646 1018 l 513 1018 z "},"Ê":{"ha":926,"x_min":21,"x_max":928,"o":"m 21 0 m 21 0 l 189 953 l 928 953 l 903 821 l 318 821 l 272 553 l 796 553 l 772 421 l 249 421 l 199 132 l 792 132 l 768 0 l 21 0 m 358 1018 l 538 1206 l 671 1206 l 785 1018 l 657 1018 l 596 1124 l 500 1018 l 358 1018 z "},"Ế":{"ha":926,"x_min":21,"x_max":1025,"o":"m 21 0 m 21 0 l 189 953 l 928 953 l 903 821 l 318 821 l 272 553 l 796 553 l 772 421 l 249 421 l 199 132 l 792 132 l 768 0 l 21 0 m 358 1018 l 538 1206 l 671 1206 l 785 1018 l 657 1018 l 596 1124 l 500 1018 l 358 1018 m 719 1154 l 868 1338 l 1024 1338 l 1025 1333 l 850 1154 l 719 1154 z "},"Ệ":{"ha":926,"x_min":21,"x_max":928,"o":"m 21 0 m 21 0 l 189 953 l 928 953 l 903 821 l 318 821 l 272 553 l 796 553 l 772 421 l 249 421 l 199 132 l 792 132 l 768 0 l 21 0 m 358 1018 l 538 1206 l 671 1206 l 785 1018 l 657 1018 l 596 1124 l 500 1018 l 358 1018 m 288 -240 l 314 -94 l 456 -94 l 429 -240 l 288 -240 z "},"Ề":{"ha":926,"x_min":21,"x_max":928,"o":"m 21 0 m 21 0 l 189 953 l 928 953 l 903 821 l 318 821 l 272 553 l 796 553 l 772 421 l 249 421 l 199 132 l 792 132 l 768 0 l 21 0 m 358 1018 l 538 1206 l 671 1206 l 785 1018 l 657 1018 l 596 1124 l 500 1018 l 358 1018 m 782 1154 l 664 1333 l 665 1338 l 813 1338 l 897 1154 l 782 1154 z "},"Ể":{"ha":926,"x_min":21,"x_max":940,"o":"m 21 0 m 21 0 l 189 953 l 928 953 l 903 821 l 318 821 l 272 553 l 796 553 l 772 421 l 249 421 l 199 132 l 792 132 l 768 0 l 21 0 m 358 1018 l 538 1206 l 671 1206 l 785 1018 l 657 1018 l 596 1124 l 500 1018 l 358 1018 m 758 1236 l 776 1236 q 812 1244 801 1236 q 822 1267 822 1251 q 812 1282 822 1278 q 782 1286 801 1286 l 699 1286 l 708 1343 q 817 1354 760 1354 q 903 1339 867 1354 q 940 1285 940 1324 q 909 1219 940 1242 q 833 1192 878 1196 l 826 1154 l 743 1154 l 758 1236 z "},"Ễ":{"ha":926,"x_min":21,"x_max":928,"o":"m 21 0 m 21 0 l 189 953 l 928 953 l 903 821 l 318 821 l 272 553 l 796 553 l 772 421 l 249 421 l 199 132 l 792 132 l 768 0 l 21 0 m 358 1018 l 538 1206 l 671 1206 l 785 1018 l 657 1018 l 596 1124 l 500 1018 l 358 1018 m 389 1275 q 438 1385 400 1342 q 538 1428 475 1428 q 584 1422 563 1428 q 639 1404 606 1417 q 688 1388 668 1393 q 731 1382 708 1382 q 781 1428 768 1382 l 874 1428 q 824 1318 863 1361 q 724 1275 786 1275 q 677 1281 699 1275 q 622 1299 656 1286 q 573 1315 593 1310 q 531 1321 553 1321 q 481 1275 493 1321 l 389 1275 z "},"Ȅ":{"ha":926,"x_min":21,"x_max":928,"o":"m 21 0 m 21 0 l 189 953 l 928 953 l 903 821 l 318 821 l 272 553 l 796 553 l 772 421 l 249 421 l 199 132 l 792 132 l 768 0 l 21 0 m 439 1022 l 344 1201 l 347 1206 l 497 1206 l 557 1022 l 439 1022 m 647 1022 l 553 1201 l 556 1206 l 706 1206 l 765 1022 l 647 1022 z "},"Ë":{"ha":926,"x_min":21,"x_max":928,"o":"m 21 0 m 21 0 l 189 953 l 928 953 l 903 821 l 318 821 l 272 553 l 796 553 l 772 421 l 249 421 l 199 132 l 792 132 l 768 0 l 21 0 m 386 1064 l 411 1206 l 546 1206 l 519 1064 l 386 1064 m 656 1064 l 681 1206 l 815 1206 l 790 1064 l 656 1064 z "},"Ė":{"ha":926,"x_min":21,"x_max":928,"o":"m 21 0 m 21 0 l 189 953 l 928 953 l 903 821 l 318 821 l 272 553 l 796 553 l 772 421 l 249 421 l 199 132 l 792 132 l 768 0 l 21 0 m 515 1060 l 542 1206 l 683 1206 l 657 1060 l 515 1060 z "},"Ẹ":{"ha":926,"x_min":21,"x_max":928,"o":"m 21 0 m 21 0 l 189 953 l 928 953 l 903 821 l 318 821 l 272 553 l 796 553 l 772 421 l 249 421 l 199 132 l 792 132 l 768 0 l 21 0 m 288 -240 l 314 -94 l 456 -94 l 429 -240 l 288 -240 z "},"È":{"ha":926,"x_min":21,"x_max":928,"o":"m 21 0 m 21 0 l 189 953 l 928 953 l 903 821 l 318 821 l 272 553 l 796 553 l 772 421 l 249 421 l 199 132 l 792 132 l 768 0 l 21 0 m 522 1022 l 404 1201 l 406 1206 l 553 1206 l 638 1022 l 522 1022 z "},"Ẻ":{"ha":926,"x_min":21,"x_max":928,"o":"m 21 0 m 21 0 l 189 953 l 928 953 l 903 821 l 318 821 l 272 553 l 796 553 l 772 421 l 249 421 l 199 132 l 792 132 l 768 0 l 21 0 m 554 1104 l 572 1104 q 608 1112 597 1104 q 618 1135 618 1119 q 608 1150 618 1146 q 578 1154 597 1154 l 494 1154 l 504 1211 q 613 1222 556 1222 q 699 1207 663 1222 q 736 1153 736 1192 q 705 1087 736 1110 q 629 1060 674 1064 l 622 1022 l 539 1022 l 554 1104 z "},"Ȇ":{"ha":926,"x_min":21,"x_max":928,"o":"m 21 0 m 21 0 l 189 953 l 928 953 l 903 821 l 318 821 l 272 553 l 796 553 l 772 421 l 249 421 l 199 132 l 792 132 l 768 0 l 21 0 m 372 1035 q 440 1157 385 1108 q 611 1206 494 1206 q 747 1163 701 1206 q 793 1060 793 1121 q 790 1035 793 1051 l 693 1035 q 672 1084 694 1063 q 593 1106 649 1106 q 510 1084 539 1106 q 469 1035 481 1063 l 372 1035 z "},"Ē":{"ha":926,"x_min":21,"x_max":928,"o":"m 21 0 m 21 0 l 189 953 l 928 953 l 903 821 l 318 821 l 272 553 l 796 553 l 772 421 l 249 421 l 199 132 l 792 132 l 768 0 l 21 0 m 378 1065 l 396 1172 l 819 1172 l 801 1065 l 378 1065 z "},"Ę":{"ha":926,"x_min":21,"x_max":928,"o":"m 633 -253 q 547 -228 583 -253 q 510 -153 510 -204 q 539 -65 510 -101 q 624 0 568 -28 l 21 0 l 189 953 l 928 953 l 903 821 l 318 821 l 272 553 l 796 553 l 772 421 l 249 421 l 199 132 l 792 132 l 768 0 q 676 -50 714 -19 q 638 -114 638 -81 q 653 -147 638 -133 q 699 -161 669 -161 l 740 -161 l 726 -233 q 633 -253 675 -253 z "},"Ẽ":{"ha":926,"x_min":21,"x_max":928,"o":"m 21 0 m 21 0 l 189 953 l 928 953 l 903 821 l 318 821 l 272 553 l 796 553 l 772 421 l 249 421 l 199 132 l 792 132 l 768 0 l 21 0 m 356 1053 q 404 1163 367 1119 q 504 1206 442 1206 q 551 1200 529 1206 q 606 1182 572 1194 q 655 1165 635 1171 q 697 1160 675 1160 q 747 1206 735 1160 l 840 1206 q 791 1096 829 1139 q 690 1053 753 1053 q 644 1058 665 1053 q 589 1076 622 1064 q 540 1093 560 1088 q 497 1099 519 1099 q 447 1053 460 1099 l 356 1053 z "},"F":{"ha":849,"x_min":21,"x_max":869,"o":"m 21 0 l 189 953 l 869 953 l 844 821 l 318 821 l 269 539 l 746 539 l 722 407 l 246 407 l 175 0 l 21 0 z "},"G":{"ha":1081,"x_min":50,"x_max":1019,"o":"m 856 628 q 860 667 860 649 q 796 795 860 751 q 624 839 732 839 q 363 757 465 839 q 228 524 261 675 q 208 363 208 431 q 271 174 208 233 q 458 114 333 114 q 635 147 557 114 q 759 238 713 181 q 814 364 806 294 l 815 372 l 493 372 l 517 503 l 992 503 l 903 0 l 790 0 l 790 114 q 638 15 722 47 q 447 -17 553 -17 q 152 77 254 -17 q 50 353 50 171 q 92 614 50 496 q 213 814 133 732 q 388 929 286 889 q 617 969 490 969 q 909 899 799 969 q 1019 692 1019 828 q 1014 628 1019 657 l 856 628 z "},"Ǵ":{"ha":1081,"x_min":50,"x_max":1019,"o":"m 50 0 m 856 628 q 860 667 860 649 q 796 795 860 751 q 624 839 732 839 q 363 757 465 839 q 228 524 261 675 q 208 363 208 431 q 271 174 208 233 q 458 114 333 114 q 635 147 557 114 q 759 238 713 181 q 814 364 806 294 l 815 372 l 493 372 l 517 503 l 992 503 l 903 0 l 790 0 l 790 114 q 638 15 722 47 q 447 -17 553 -17 q 152 77 254 -17 q 50 353 50 171 q 92 614 50 496 q 213 814 133 732 q 388 929 286 889 q 617 969 490 969 q 909 899 799 969 q 1019 692 1019 828 q 1014 628 1019 657 l 856 628 m 549 1022 l 697 1206 l 853 1206 l 854 1201 l 679 1022 l 549 1022 z "},"Ğ":{"ha":1081,"x_min":50,"x_max":1019,"o":"m 50 0 m 856 628 q 860 667 860 649 q 796 795 860 751 q 624 839 732 839 q 363 757 465 839 q 228 524 261 675 q 208 363 208 431 q 271 174 208 233 q 458 114 333 114 q 635 147 557 114 q 759 238 713 181 q 814 364 806 294 l 815 372 l 493 372 l 517 503 l 992 503 l 903 0 l 790 0 l 790 114 q 638 15 722 47 q 447 -17 553 -17 q 152 77 254 -17 q 50 353 50 171 q 92 614 50 496 q 213 814 133 732 q 388 929 286 889 q 617 969 490 969 q 909 899 799 969 q 1019 692 1019 828 q 1014 628 1019 657 l 856 628 m 615 1035 q 467 1074 513 1035 q 422 1172 422 1113 q 425 1206 422 1194 l 522 1206 q 615 1135 522 1135 q 704 1156 671 1135 q 746 1206 738 1178 l 843 1206 q 817 1138 836 1171 q 767 1082 797 1104 q 615 1035 706 1035 z "},"Ǧ":{"ha":1081,"x_min":50,"x_max":1019,"o":"m 50 0 m 856 628 q 860 667 860 649 q 796 795 860 751 q 624 839 732 839 q 363 757 465 839 q 228 524 261 675 q 208 363 208 431 q 271 174 208 233 q 458 114 333 114 q 635 147 557 114 q 759 238 713 181 q 814 364 806 294 l 815 372 l 493 372 l 517 503 l 992 503 l 903 0 l 790 0 l 790 114 q 638 15 722 47 q 447 -17 553 -17 q 152 77 254 -17 q 50 353 50 171 q 92 614 50 496 q 213 814 133 732 q 388 929 286 889 q 617 969 490 969 q 909 899 799 969 q 1019 692 1019 828 q 1014 628 1019 657 l 856 628 m 547 1018 l 433 1206 l 563 1206 l 625 1100 l 718 1206 l 860 1206 l 681 1018 l 547 1018 z "},"Ĝ":{"ha":1081,"x_min":50,"x_max":1019,"o":"m 50 0 m 856 628 q 860 667 860 649 q 796 795 860 751 q 624 839 732 839 q 363 757 465 839 q 228 524 261 675 q 208 363 208 431 q 271 174 208 233 q 458 114 333 114 q 635 147 557 114 q 759 238 713 181 q 814 364 806 294 l 815 372 l 493 372 l 517 503 l 992 503 l 903 0 l 790 0 l 790 114 q 638 15 722 47 q 447 -17 553 -17 q 152 77 254 -17 q 50 353 50 171 q 92 614 50 496 q 213 814 133 732 q 388 929 286 889 q 617 969 490 969 q 909 899 799 969 q 1019 692 1019 828 q 1014 628 1019 657 l 856 628 m 393 1018 l 572 1206 l 706 1206 l 819 1018 l 692 1018 l 631 1124 l 535 1018 l 393 1018 z "},"Ģ":{"ha":1081,"x_min":50,"x_max":1019,"o":"m 50 0 m 856 628 q 860 667 860 649 q 796 795 860 751 q 624 839 732 839 q 363 757 465 839 q 228 524 261 675 q 208 363 208 431 q 271 174 208 233 q 458 114 333 114 q 635 147 557 114 q 759 238 713 181 q 814 364 806 294 l 815 372 l 493 372 l 517 503 l 992 503 l 903 0 l 790 0 l 790 114 q 638 15 722 47 q 447 -17 553 -17 q 152 77 254 -17 q 50 353 50 171 q 92 614 50 496 q 213 814 133 732 q 388 929 286 889 q 617 969 490 969 q 909 899 799 969 q 1019 692 1019 828 q 1014 628 1019 657 l 856 628 m 347 -319 l 425 -203 l 369 -203 l 393 -72 l 536 -72 l 515 -190 l 424 -319 l 347 -319 z "},"Ġ":{"ha":1081,"x_min":50,"x_max":1019,"o":"m 50 0 m 856 628 q 860 667 860 649 q 796 795 860 751 q 624 839 732 839 q 363 757 465 839 q 228 524 261 675 q 208 363 208 431 q 271 174 208 233 q 458 114 333 114 q 635 147 557 114 q 759 238 713 181 q 814 364 806 294 l 815 372 l 493 372 l 517 503 l 992 503 l 903 0 l 790 0 l 790 114 q 638 15 722 47 q 447 -17 553 -17 q 152 77 254 -17 q 50 353 50 171 q 92 614 50 496 q 213 814 133 732 q 388 929 286 889 q 617 969 490 969 q 909 899 799 969 q 1019 692 1019 828 q 1014 628 1019 657 l 856 628 m 550 1060 l 576 1206 l 718 1206 l 692 1060 l 550 1060 z "},"H":{"ha":1003,"x_min":21,"x_max":983,"o":"m 21 0 l 189 953 l 343 953 l 272 554 l 760 554 l 829 953 l 983 953 l 815 0 l 661 0 l 736 421 l 249 421 l 175 0 l 21 0 z "},"Ħ":{"ha":1003,"x_min":21,"x_max":1054,"o":"m 21 0 l 149 722 l 56 722 l 74 831 l 167 831 l 189 953 l 343 953 l 321 831 l 807 831 l 829 953 l 983 953 l 961 831 l 1054 831 l 1035 722 l 942 722 l 815 0 l 661 0 l 736 421 l 249 421 l 175 0 l 21 0 m 272 554 l 760 554 l 789 722 l 301 722 l 272 554 z "},"Ĥ":{"ha":1003,"x_min":21,"x_max":983,"o":"m 21 0 m 21 0 l 189 953 l 343 953 l 272 554 l 760 554 l 829 953 l 983 953 l 815 0 l 661 0 l 736 421 l 249 421 l 175 0 l 21 0 m 376 1018 l 556 1206 l 689 1206 l 803 1018 l 675 1018 l 614 1124 l 518 1018 l 376 1018 z "},"Ḥ":{"ha":1003,"x_min":21,"x_max":983,"o":"m 21 0 m 21 0 l 189 953 l 343 953 l 272 554 l 760 554 l 829 953 l 983 953 l 815 0 l 661 0 l 736 421 l 249 421 l 175 0 l 21 0 m 325 -240 l 351 -94 l 493 -94 l 467 -240 l 325 -240 z "},"I":{"ha":386,"x_min":33,"x_max":356,"o":"m 33 0 l 201 953 l 356 953 l 188 0 l 33 0 z "},"Ĳ":{"ha":1104,"x_min":33,"x_max":1088,"o":"m 33 0 m 33 0 l 201 953 l 356 953 l 188 0 l 33 0 m 646 -17 q 449 36 517 -17 q 381 192 381 89 q 394 301 381 239 l 547 301 q 535 217 535 250 q 640 114 535 114 q 814 269 786 114 l 935 953 l 1088 953 l 968 274 q 860 53 942 124 q 646 -17 779 -17 z "},"Í":{"ha":386,"x_min":33,"x_max":531,"o":"m 33 0 m 33 0 l 201 953 l 356 953 l 188 0 l 33 0 m 225 1022 l 374 1206 l 529 1206 l 531 1201 l 356 1022 l 225 1022 z "},"Ĭ":{"ha":386,"x_min":33,"x_max":519,"o":"m 33 0 m 33 0 l 201 953 l 356 953 l 188 0 l 33 0 m 292 1035 q 144 1074 189 1035 q 99 1172 99 1113 q 101 1206 99 1194 l 199 1206 q 292 1135 199 1135 q 381 1156 347 1135 q 422 1206 414 1178 l 519 1206 q 493 1138 513 1171 q 443 1082 474 1104 q 292 1035 382 1035 z "},"Ǐ":{"ha":386,"x_min":33,"x_max":536,"o":"m 33 0 m 33 0 l 201 953 l 356 953 l 188 0 l 33 0 m 224 1018 l 110 1206 l 239 1206 l 301 1100 l 394 1206 l 536 1206 l 357 1018 l 224 1018 z "},"Î":{"ha":386,"x_min":33,"x_max":496,"o":"m 33 0 m 33 0 l 201 953 l 356 953 l 188 0 l 33 0 m 69 1018 l 249 1206 l 382 1206 l 496 1018 l 368 1018 l 307 1124 l 211 1018 l 69 1018 z "},"Ȉ":{"ha":386,"x_min":33,"x_max":476,"o":"m 33 0 m 33 0 l 201 953 l 356 953 l 188 0 l 33 0 m 150 1022 l 56 1201 l 58 1206 l 208 1206 l 268 1022 l 150 1022 m 358 1022 l 264 1201 l 267 1206 l 417 1206 l 476 1022 l 358 1022 z "},"Ï":{"ha":386,"x_min":33,"x_max":526,"o":"m 33 0 m 33 0 l 201 953 l 356 953 l 188 0 l 33 0 m 97 1064 l 122 1206 l 257 1206 l 231 1064 l 97 1064 m 367 1064 l 392 1206 l 526 1206 l 501 1064 l 367 1064 z "},"İ":{"ha":386,"x_min":33,"x_max":394,"o":"m 33 0 m 33 0 l 201 953 l 356 953 l 188 0 l 33 0 m 226 1060 l 253 1206 l 394 1206 l 368 1060 l 226 1060 z "},"Ị":{"ha":386,"x_min":-1,"x_max":356,"o":"m 0 0 m 33 0 l 201 953 l 356 953 l 188 0 l 33 0 m -1 -240 l 25 -94 l 167 -94 l 140 -240 l -1 -240 z "},"Ì":{"ha":386,"x_min":33,"x_max":356,"o":"m 33 0 m 33 0 l 201 953 l 356 953 l 188 0 l 33 0 m 233 1022 l 115 1201 l 117 1206 l 264 1206 l 349 1022 l 233 1022 z "},"Ỉ":{"ha":386,"x_min":33,"x_max":447,"o":"m 33 0 m 33 0 l 201 953 l 356 953 l 188 0 l 33 0 m 265 1104 l 283 1104 q 319 1112 308 1104 q 329 1135 329 1119 q 319 1150 329 1146 q 289 1154 308 1154 l 206 1154 l 215 1211 q 324 1222 267 1222 q 410 1207 374 1222 q 447 1153 447 1192 q 416 1087 447 1110 q 340 1060 385 1064 l 333 1022 l 250 1022 l 265 1104 z "},"Ȋ":{"ha":386,"x_min":33,"x_max":504,"o":"m 33 0 m 33 0 l 201 953 l 356 953 l 188 0 l 33 0 m 83 1035 q 151 1157 96 1108 q 322 1206 206 1206 q 458 1163 413 1206 q 504 1060 504 1121 q 501 1035 504 1051 l 404 1035 q 383 1084 406 1063 q 304 1106 360 1106 q 221 1084 250 1106 q 181 1035 192 1063 l 83 1035 z "},"Ī":{"ha":386,"x_min":33,"x_max":531,"o":"m 33 0 m 33 0 l 201 953 l 356 953 l 188 0 l 33 0 m 89 1065 l 107 1172 l 531 1172 l 513 1065 l 89 1065 z "},"Į":{"ha":386,"x_min":-53,"x_max":356,"o":"m 144 0 q 97 -53 117 -22 q 76 -117 76 -83 q 91 -156 76 -140 q 136 -172 106 -172 l 176 -172 l 164 -244 q 71 -264 113 -264 q -17 -239 19 -264 q -53 -160 -53 -214 q -26 -71 -53 -108 q 44 0 0 -33 l 33 0 l 201 953 l 356 953 l 188 0 l 144 0 z "},"Ĩ":{"ha":386,"x_min":33,"x_max":551,"o":"m 33 0 m 33 0 l 201 953 l 356 953 l 188 0 l 33 0 m 67 1053 q 115 1163 78 1119 q 215 1206 153 1206 q 262 1200 240 1206 q 317 1182 283 1194 q 366 1165 346 1171 q 408 1160 386 1160 q 458 1206 446 1160 l 551 1206 q 502 1096 540 1139 q 401 1053 464 1053 q 355 1058 376 1053 q 300 1076 333 1064 q 251 1093 271 1088 q 208 1099 231 1099 q 158 1053 171 1099 l 67 1053 z "},"J":{"ha":718,"x_min":-6,"x_max":701,"o":"m 260 -17 q 63 36 131 -17 q -6 192 -6 89 q 8 301 -6 239 l 161 301 q 149 217 149 250 q 254 114 149 114 q 428 269 400 114 l 549 953 l 701 953 l 582 274 q 474 53 556 124 q 260 -17 393 -17 z "},"Ĵ":{"ha":718,"x_min":-6,"x_max":842,"o":"m 0 0 m 260 -17 q 63 36 131 -17 q -6 192 -6 89 q 8 301 -6 239 l 161 301 q 149 217 149 250 q 254 114 149 114 q 428 269 400 114 l 549 953 l 701 953 l 582 274 q 474 53 556 124 q 260 -17 393 -17 m 415 1018 l 594 1206 l 728 1206 l 842 1018 l 714 1018 l 653 1124 l 557 1018 l 415 1018 z "},"K":{"ha":950,"x_min":21,"x_max":1015,"o":"m 21 0 l 189 953 l 343 953 l 254 451 l 815 953 l 1015 953 l 585 568 l 858 0 l 688 0 l 465 464 l 221 267 l 175 0 l 21 0 z "},"Ķ":{"ha":950,"x_min":21,"x_max":1015,"o":"m 21 0 m 21 0 l 189 953 l 343 953 l 254 451 l 815 953 l 1015 953 l 585 568 l 858 0 l 688 0 l 465 464 l 221 267 l 175 0 l 21 0 m 282 -319 l 360 -203 l 304 -203 l 328 -72 l 471 -72 l 450 -190 l 358 -319 l 282 -319 z "},"L":{"ha":796,"x_min":21,"x_max":711,"o":"m 21 0 l 189 953 l 343 953 l 199 133 l 711 133 l 688 0 l 21 0 z "},"Ǉ":{"ha":1514,"x_min":21,"x_max":1497,"o":"m 21 0 m 21 0 l 189 953 l 343 953 l 199 133 l 711 133 l 688 0 l 21 0 m 1056 -17 q 858 36 926 -17 q 790 192 790 89 q 804 301 790 239 l 957 301 q 944 217 944 250 q 1050 114 944 114 q 1224 269 1196 114 l 1344 953 l 1497 953 l 1378 274 q 1270 53 1351 124 q 1056 -17 1189 -17 z "},"Ĺ":{"ha":796,"x_min":21,"x_max":711,"o":"m 21 0 m 21 0 l 189 953 l 343 953 l 199 133 l 711 133 l 688 0 l 21 0 m 213 1022 l 361 1206 l 517 1206 l 518 1201 l 343 1022 l 213 1022 z "},"Ľ":{"ha":796,"x_min":21,"x_max":711,"o":"m 21 0 l 189 953 l 343 953 l 199 133 l 711 133 l 688 0 l 21 0 m 465 660 l 547 811 l 494 811 l 518 953 l 660 953 l 636 824 l 540 660 l 465 660 z "},"Ļ":{"ha":796,"x_min":21,"x_max":711,"o":"m 21 0 m 21 0 l 189 953 l 343 953 l 199 133 l 711 133 l 688 0 l 21 0 m 225 -319 l 303 -203 l 247 -203 l 271 -72 l 414 -72 l 393 -190 l 301 -319 l 225 -319 z "},"Ŀ":{"ha":796,"x_min":21,"x_max":711,"o":"m 21 0 m 21 0 l 189 953 l 343 953 l 199 133 l 711 133 l 688 0 l 21 0 m 447 568 l 476 731 l 632 731 l 603 568 l 447 568 z "},"ǈ":{"ha":1128,"x_min":21,"x_max":1133,"o":"m 21 0 m 21 0 l 189 953 l 343 953 l 199 133 l 711 133 l 688 0 l 21 0 m 964 857 l 990 1004 l 1133 1004 l 1107 857 l 964 857 m 753 -253 q 646 -235 700 -253 l 663 -139 l 726 -139 q 800 -74 789 -139 l 943 731 l 1086 731 l 943 -76 q 887 -204 929 -156 q 753 -253 844 -253 z "},"Ł":{"ha":796,"x_min":-8,"x_max":711,"o":"m 38 0 l 101 360 l -8 294 l 13 415 l 122 482 l 206 953 l 358 953 l 293 583 l 540 729 l 518 607 l 272 461 l 214 133 l 711 133 l 688 0 l 38 0 z "},"M":{"ha":1157,"x_min":21,"x_max":1138,"o":"m 189 953 l 415 953 l 510 342 q 517 249 515 304 q 519 176 519 194 l 526 176 q 555 252 533 194 q 592 342 576 310 l 900 953 l 1138 953 l 969 0 l 817 0 l 926 622 l 960 793 l 951 793 q 935 752 947 785 q 910 693 922 719 l 558 0 l 421 0 l 317 693 q 312 749 314 715 q 308 793 310 783 l 301 793 q 291 719 299 772 q 276 622 283 665 l 167 0 l 21 0 l 189 953 z "},"N":{"ha":1003,"x_min":21,"x_max":983,"o":"m 189 953 l 331 953 l 675 326 q 711 257 703 271 l 717 257 l 726 311 l 731 342 l 838 953 l 983 953 l 815 0 l 678 0 l 338 626 q 322 654 332 640 q 296 706 306 690 l 289 704 l 274 613 l 167 0 l 21 0 l 189 953 z "},"Ǌ":{"ha":1721,"x_min":21,"x_max":1704,"o":"m 21 0 m 189 953 l 331 953 l 675 326 q 711 257 703 271 l 717 257 l 726 311 l 731 342 l 838 953 l 983 953 l 815 0 l 678 0 l 338 626 q 322 654 332 640 q 296 706 306 690 l 289 704 l 274 613 l 167 0 l 21 0 l 189 953 m 1263 -17 q 1065 36 1133 -17 q 997 192 997 89 q 1011 301 997 239 l 1164 301 q 1151 217 1151 250 q 1257 114 1151 114 q 1431 269 1403 114 l 1551 953 l 1704 953 l 1585 274 q 1477 53 1558 124 q 1263 -17 1396 -17 z "},"Ń":{"ha":1003,"x_min":21,"x_max":983,"o":"m 21 0 m 189 953 l 331 953 l 675 326 q 711 257 703 271 l 717 257 l 726 311 l 731 342 l 838 953 l 983 953 l 815 0 l 678 0 l 338 626 q 322 654 332 640 q 296 706 306 690 l 289 704 l 274 613 l 167 0 l 21 0 l 189 953 m 556 1022 l 704 1206 l 860 1206 l 861 1201 l 686 1022 l 556 1022 z "},"Ň":{"ha":1003,"x_min":21,"x_max":983,"o":"m 21 0 m 189 953 l 331 953 l 675 326 q 711 257 703 271 l 717 257 l 726 311 l 731 342 l 838 953 l 983 953 l 815 0 l 678 0 l 338 626 q 322 654 332 640 q 296 706 306 690 l 289 704 l 274 613 l 167 0 l 21 0 l 189 953 m 554 1018 l 440 1206 l 569 1206 l 632 1100 l 725 1206 l 867 1206 l 688 1018 l 554 1018 z "},"Ņ":{"ha":1003,"x_min":21,"x_max":983,"o":"m 21 0 m 189 953 l 331 953 l 675 326 q 711 257 703 271 l 717 257 l 726 311 l 731 342 l 838 953 l 983 953 l 815 0 l 678 0 l 338 626 q 322 654 332 640 q 296 706 306 690 l 289 704 l 274 613 l 167 0 l 21 0 l 189 953 m 308 -319 l 386 -203 l 331 -203 l 354 -72 l 497 -72 l 476 -190 l 385 -319 l 308 -319 z "},"Ṅ":{"ha":1003,"x_min":21,"x_max":983,"o":"m 21 0 m 189 953 l 331 953 l 675 326 q 711 257 703 271 l 717 257 l 726 311 l 731 342 l 838 953 l 983 953 l 815 0 l 678 0 l 338 626 q 322 654 332 640 q 296 706 306 690 l 289 704 l 274 613 l 167 0 l 21 0 l 189 953 m 557 1060 l 583 1206 l 725 1206 l 699 1060 l 557 1060 z "},"Ŋ":{"ha":1003,"x_min":21,"x_max":983,"o":"m 613 -253 q 556 -247 586 -253 q 504 -235 525 -242 l 521 -139 l 583 -139 q 657 -74 646 -139 l 672 10 l 332 635 q 311 675 329 639 q 303 693 308 681 q 292 711 297 706 l 285 711 l 276 618 l 167 0 l 21 0 l 189 953 l 331 953 l 675 326 q 711 257 703 271 l 717 257 l 726 311 l 731 342 l 838 953 l 983 953 l 803 -76 q 745 -204 788 -156 q 613 -253 703 -253 z "},"Ɲ":{"ha":1003,"x_min":-144,"x_max":983,"o":"m -36 -253 q -93 -247 -62 -253 q -144 -235 -124 -242 l -128 -139 l -65 -139 q 8 -74 -3 -139 l 189 953 l 331 953 l 675 326 q 711 257 703 271 l 717 257 l 726 311 l 731 342 l 838 953 l 983 953 l 815 0 l 678 0 l 353 597 q 341 619 347 607 q 328 646 335 632 l 296 706 l 289 704 l 268 572 l 153 -76 q 97 -204 139 -156 q -36 -253 54 -253 z "},"ǋ":{"ha":1335,"x_min":21,"x_max":1340,"o":"m 21 0 m 189 953 l 331 953 l 675 326 q 711 257 703 271 l 717 257 l 726 311 l 731 342 l 838 953 l 983 953 l 815 0 l 678 0 l 338 626 q 322 654 332 640 q 296 706 306 690 l 289 704 l 274 613 l 167 0 l 21 0 l 189 953 m 1171 857 l 1197 1004 l 1340 1004 l 1314 857 l 1171 857 m 960 -253 q 853 -235 907 -253 l 869 -139 l 933 -139 q 1007 -74 996 -139 l 1150 731 l 1293 731 l 1150 -76 q 1094 -204 1136 -156 q 960 -253 1051 -253 z "},"Ñ":{"ha":1003,"x_min":21,"x_max":983,"o":"m 21 0 m 189 953 l 331 953 l 675 326 q 711 257 703 271 l 717 257 l 726 311 l 731 342 l 838 953 l 983 953 l 815 0 l 678 0 l 338 626 q 322 654 332 640 q 296 706 306 690 l 289 704 l 274 613 l 167 0 l 21 0 l 189 953 m 397 1053 q 446 1163 408 1119 q 546 1206 483 1206 q 592 1200 571 1206 q 647 1182 614 1194 q 697 1165 676 1171 q 739 1160 717 1160 q 789 1206 776 1160 l 882 1206 q 833 1096 871 1139 q 732 1053 794 1053 q 685 1058 707 1053 q 631 1076 664 1064 q 581 1093 601 1088 q 539 1099 561 1099 q 489 1053 501 1099 l 397 1053 z "},"O":{"ha":1081,"x_min":50,"x_max":1031,"o":"m 469 -15 q 160 81 271 -15 q 50 356 50 178 q 61 486 50 419 q 242 844 100 718 q 611 969 383 969 q 920 874 810 969 q 1031 600 1031 778 q 1019 472 1031 539 q 840 111 982 238 q 469 -15 697 -15 m 468 115 q 861 479 799 115 q 872 596 872 540 q 806 775 872 711 q 617 839 739 839 q 219 478 282 839 q 208 361 208 415 q 276 180 208 244 q 468 115 344 115 z "},"Ó":{"ha":1081,"x_min":50,"x_max":1031,"o":"m 50 0 m 469 -15 q 160 81 271 -15 q 50 356 50 178 q 61 486 50 419 q 242 844 100 718 q 611 969 383 969 q 920 874 810 969 q 1031 600 1031 778 q 1019 472 1031 539 q 840 111 982 238 q 469 -15 697 -15 m 468 115 q 861 479 799 115 q 872 596 872 540 q 806 775 872 711 q 617 839 739 839 q 219 478 282 839 q 208 361 208 415 q 276 180 208 244 q 468 115 344 115 m 549 1022 l 697 1206 l 853 1206 l 854 1201 l 679 1022 l 549 1022 z "},"Ŏ":{"ha":1081,"x_min":50,"x_max":1031,"o":"m 50 0 m 469 -15 q 160 81 271 -15 q 50 356 50 178 q 61 486 50 419 q 242 844 100 718 q 611 969 383 969 q 920 874 810 969 q 1031 600 1031 778 q 1019 472 1031 539 q 840 111 982 238 q 469 -15 697 -15 m 468 115 q 861 479 799 115 q 872 596 872 540 q 806 775 872 711 q 617 839 739 839 q 219 478 282 839 q 208 361 208 415 q 276 180 208 244 q 468 115 344 115 m 615 1035 q 467 1074 513 1035 q 422 1172 422 1113 q 425 1206 422 1194 l 522 1206 q 615 1135 522 1135 q 704 1156 671 1135 q 746 1206 738 1178 l 843 1206 q 817 1138 836 1171 q 767 1082 797 1104 q 615 1035 706 1035 z "},"Ǒ":{"ha":1081,"x_min":50,"x_max":1031,"o":"m 50 0 m 469 -15 q 160 81 271 -15 q 50 356 50 178 q 61 486 50 419 q 242 844 100 718 q 611 969 383 969 q 920 874 810 969 q 1031 600 1031 778 q 1019 472 1031 539 q 840 111 982 238 q 469 -15 697 -15 m 468 115 q 861 479 799 115 q 872 596 872 540 q 806 775 872 711 q 617 839 739 839 q 219 478 282 839 q 208 361 208 415 q 276 180 208 244 q 468 115 344 115 m 547 1018 l 433 1206 l 563 1206 l 625 1100 l 718 1206 l 860 1206 l 681 1018 l 547 1018 z "},"Ô":{"ha":1081,"x_min":50,"x_max":1031,"o":"m 50 0 m 469 -15 q 160 81 271 -15 q 50 356 50 178 q 61 486 50 419 q 242 844 100 718 q 611 969 383 969 q 920 874 810 969 q 1031 600 1031 778 q 1019 472 1031 539 q 840 111 982 238 q 469 -15 697 -15 m 468 115 q 861 479 799 115 q 872 596 872 540 q 806 775 872 711 q 617 839 739 839 q 219 478 282 839 q 208 361 208 415 q 276 180 208 244 q 468 115 344 115 m 393 1018 l 572 1206 l 706 1206 l 819 1018 l 692 1018 l 631 1124 l 535 1018 l 393 1018 z "},"Ố":{"ha":1081,"x_min":50,"x_max":1060,"o":"m 50 0 m 469 -15 q 160 81 271 -15 q 50 356 50 178 q 61 486 50 419 q 242 844 100 718 q 611 969 383 969 q 920 874 810 969 q 1031 600 1031 778 q 1019 472 1031 539 q 840 111 982 238 q 469 -15 697 -15 m 468 115 q 861 479 799 115 q 872 596 872 540 q 806 775 872 711 q 617 839 739 839 q 219 478 282 839 q 208 361 208 415 q 276 180 208 244 q 468 115 344 115 m 393 1018 l 572 1206 l 706 1206 l 819 1018 l 692 1018 l 631 1124 l 535 1018 l 393 1018 m 754 1154 l 903 1338 l 1058 1338 l 1060 1333 l 885 1154 l 754 1154 z "},"Ộ":{"ha":1081,"x_min":50,"x_max":1031,"o":"m 50 0 m 469 -15 q 160 81 271 -15 q 50 356 50 178 q 61 486 50 419 q 242 844 100 718 q 611 969 383 969 q 920 874 810 969 q 1031 600 1031 778 q 1019 472 1031 539 q 840 111 982 238 q 469 -15 697 -15 m 468 115 q 861 479 799 115 q 872 596 872 540 q 806 775 872 711 q 617 839 739 839 q 219 478 282 839 q 208 361 208 415 q 276 180 208 244 q 468 115 344 115 m 393 1018 l 572 1206 l 706 1206 l 819 1018 l 692 1018 l 631 1124 l 535 1018 l 393 1018 m 364 -240 l 390 -94 l 532 -94 l 506 -240 l 364 -240 z "},"Ồ":{"ha":1081,"x_min":50,"x_max":1031,"o":"m 50 0 m 469 -15 q 160 81 271 -15 q 50 356 50 178 q 61 486 50 419 q 242 844 100 718 q 611 969 383 969 q 920 874 810 969 q 1031 600 1031 778 q 1019 472 1031 539 q 840 111 982 238 q 469 -15 697 -15 m 468 115 q 861 479 799 115 q 872 596 872 540 q 806 775 872 711 q 617 839 739 839 q 219 478 282 839 q 208 361 208 415 q 276 180 208 244 q 468 115 344 115 m 393 1018 l 572 1206 l 706 1206 l 819 1018 l 692 1018 l 631 1124 l 535 1018 l 393 1018 m 817 1154 l 699 1333 l 700 1338 l 847 1338 l 932 1154 l 817 1154 z "},"Ổ":{"ha":1081,"x_min":50,"x_max":1031,"o":"m 50 0 m 469 -15 q 160 81 271 -15 q 50 356 50 178 q 61 486 50 419 q 242 844 100 718 q 611 969 383 969 q 920 874 810 969 q 1031 600 1031 778 q 1019 472 1031 539 q 840 111 982 238 q 469 -15 697 -15 m 468 115 q 861 479 799 115 q 872 596 872 540 q 806 775 872 711 q 617 839 739 839 q 219 478 282 839 q 208 361 208 415 q 276 180 208 244 q 468 115 344 115 m 393 1018 l 572 1206 l 706 1206 l 819 1018 l 692 1018 l 631 1124 l 535 1018 l 393 1018 m 793 1236 l 811 1236 q 847 1244 836 1236 q 857 1267 857 1251 q 847 1282 857 1278 q 817 1286 836 1286 l 733 1286 l 743 1343 q 851 1354 794 1354 q 938 1339 901 1354 q 975 1285 975 1324 q 944 1219 975 1242 q 868 1192 913 1196 l 861 1154 l 778 1154 l 793 1236 z "},"Ỗ":{"ha":1081,"x_min":50,"x_max":1031,"o":"m 50 0 m 469 -15 q 160 81 271 -15 q 50 356 50 178 q 61 486 50 419 q 242 844 100 718 q 611 969 383 969 q 920 874 810 969 q 1031 600 1031 778 q 1019 472 1031 539 q 840 111 982 238 q 469 -15 697 -15 m 468 115 q 861 479 799 115 q 872 596 872 540 q 806 775 872 711 q 617 839 739 839 q 219 478 282 839 q 208 361 208 415 q 276 180 208 244 q 468 115 344 115 m 393 1018 l 572 1206 l 706 1206 l 819 1018 l 692 1018 l 631 1124 l 535 1018 l 393 1018 m 424 1275 q 472 1385 435 1342 q 572 1428 510 1428 q 619 1422 597 1428 q 674 1404 640 1417 q 723 1388 703 1393 q 765 1382 743 1382 q 815 1428 803 1382 l 908 1428 q 859 1318 897 1361 q 758 1275 821 1275 q 712 1281 733 1275 q 657 1299 690 1286 q 608 1315 628 1310 q 565 1321 588 1321 q 515 1275 528 1321 l 424 1275 z "},"Ȍ":{"ha":1081,"x_min":50,"x_max":1031,"o":"m 50 0 m 469 -15 q 160 81 271 -15 q 50 356 50 178 q 61 486 50 419 q 242 844 100 718 q 611 969 383 969 q 920 874 810 969 q 1031 600 1031 778 q 1019 472 1031 539 q 840 111 982 238 q 469 -15 697 -15 m 468 115 q 861 479 799 115 q 872 596 872 540 q 806 775 872 711 q 617 839 739 839 q 219 478 282 839 q 208 361 208 415 q 276 180 208 244 q 468 115 344 115 m 474 1022 l 379 1201 l 382 1206 l 532 1206 l 592 1022 l 474 1022 m 682 1022 l 588 1201 l 590 1206 l 740 1206 l 800 1022 l 682 1022 z "},"Ö":{"ha":1081,"x_min":50,"x_max":1031,"o":"m 50 0 m 469 -15 q 160 81 271 -15 q 50 356 50 178 q 61 486 50 419 q 242 844 100 718 q 611 969 383 969 q 920 874 810 969 q 1031 600 1031 778 q 1019 472 1031 539 q 840 111 982 238 q 469 -15 697 -15 m 468 115 q 861 479 799 115 q 872 596 872 540 q 806 775 872 711 q 617 839 739 839 q 219 478 282 839 q 208 361 208 415 q 276 180 208 244 q 468 115 344 115 m 421 1064 l 446 1206 l 581 1206 l 554 1064 l 421 1064 m 690 1064 l 715 1206 l 850 1206 l 825 1064 l 690 1064 z "},"Ọ":{"ha":1081,"x_min":50,"x_max":1031,"o":"m 50 0 m 469 -15 q 160 81 271 -15 q 50 356 50 178 q 61 486 50 419 q 242 844 100 718 q 611 969 383 969 q 920 874 810 969 q 1031 600 1031 778 q 1019 472 1031 539 q 840 111 982 238 q 469 -15 697 -15 m 468 115 q 861 479 799 115 q 872 596 872 540 q 806 775 872 711 q 617 839 739 839 q 219 478 282 839 q 208 361 208 415 q 276 180 208 244 q 468 115 344 115 m 364 -240 l 390 -94 l 532 -94 l 506 -240 l 364 -240 z "},"Ò":{"ha":1081,"x_min":50,"x_max":1031,"o":"m 50 0 m 469 -15 q 160 81 271 -15 q 50 356 50 178 q 61 486 50 419 q 242 844 100 718 q 611 969 383 969 q 920 874 810 969 q 1031 600 1031 778 q 1019 472 1031 539 q 840 111 982 238 q 469 -15 697 -15 m 468 115 q 861 479 799 115 q 872 596 872 540 q 806 775 872 711 q 617 839 739 839 q 219 478 282 839 q 208 361 208 415 q 276 180 208 244 q 468 115 344 115 m 557 1022 l 439 1201 l 440 1206 l 588 1206 l 672 1022 l 557 1022 z "},"Ỏ":{"ha":1081,"x_min":50,"x_max":1031,"o":"m 50 0 m 469 -15 q 160 81 271 -15 q 50 356 50 178 q 61 486 50 419 q 242 844 100 718 q 611 969 383 969 q 920 874 810 969 q 1031 600 1031 778 q 1019 472 1031 539 q 840 111 982 238 q 469 -15 697 -15 m 468 115 q 861 479 799 115 q 872 596 872 540 q 806 775 872 711 q 617 839 739 839 q 219 478 282 839 q 208 361 208 415 q 276 180 208 244 q 468 115 344 115 m 589 1104 l 607 1104 q 642 1112 632 1104 q 653 1135 653 1119 q 642 1150 653 1146 q 613 1154 632 1154 l 529 1154 l 539 1211 q 647 1222 590 1222 q 734 1207 697 1222 q 771 1153 771 1192 q 740 1087 771 1110 q 664 1060 708 1064 l 657 1022 l 574 1022 l 589 1104 z "},"Ơ":{"ha":1081,"x_min":50,"x_max":1181,"o":"m 1181 1150 l 1168 1075 q 972 815 1136 876 q 1031 600 1031 726 q 1019 472 1031 539 q 840 111 982 238 q 469 -15 697 -15 q 160 81 271 -15 q 50 356 50 178 q 61 486 50 419 q 242 844 100 718 q 611 969 383 969 q 911 881 803 969 q 1051 988 1015 906 l 982 988 l 1011 1150 l 1181 1150 m 861 479 q 872 596 872 540 q 806 775 872 711 q 617 839 739 839 q 219 478 282 839 q 208 361 208 415 q 276 180 208 244 q 468 115 344 115 q 861 479 799 115 z "},"Ớ":{"ha":1081,"x_min":50,"x_max":1181,"o":"m 50 0 m 1181 1150 l 1168 1075 q 972 815 1136 876 q 1031 600 1031 726 q 1019 472 1031 539 q 840 111 982 238 q 469 -15 697 -15 q 160 81 271 -15 q 50 356 50 178 q 61 486 50 419 q 242 844 100 718 q 611 969 383 969 q 911 881 803 969 q 1051 988 1015 906 l 982 988 l 1011 1150 l 1181 1150 m 861 479 q 872 596 872 540 q 806 775 872 711 q 617 839 739 839 q 219 478 282 839 q 208 361 208 415 q 276 180 208 244 q 468 115 344 115 q 861 479 799 115 m 549 1022 l 697 1206 l 853 1206 l 854 1201 l 679 1022 l 549 1022 z "},"Ợ":{"ha":1081,"x_min":50,"x_max":1181,"o":"m 50 0 m 1181 1150 l 1168 1075 q 972 815 1136 876 q 1031 600 1031 726 q 1019 472 1031 539 q 840 111 982 238 q 469 -15 697 -15 q 160 81 271 -15 q 50 356 50 178 q 61 486 50 419 q 242 844 100 718 q 611 969 383 969 q 911 881 803 969 q 1051 988 1015 906 l 982 988 l 1011 1150 l 1181 1150 m 861 479 q 872 596 872 540 q 806 775 872 711 q 617 839 739 839 q 219 478 282 839 q 208 361 208 415 q 276 180 208 244 q 468 115 344 115 q 861 479 799 115 m 364 -240 l 390 -94 l 532 -94 l 506 -240 l 364 -240 z "},"Ờ":{"ha":1081,"x_min":50,"x_max":1181,"o":"m 50 0 m 1181 1150 l 1168 1075 q 972 815 1136 876 q 1031 600 1031 726 q 1019 472 1031 539 q 840 111 982 238 q 469 -15 697 -15 q 160 81 271 -15 q 50 356 50 178 q 61 486 50 419 q 242 844 100 718 q 611 969 383 969 q 911 881 803 969 q 1051 988 1015 906 l 982 988 l 1011 1150 l 1181 1150 m 861 479 q 872 596 872 540 q 806 775 872 711 q 617 839 739 839 q 219 478 282 839 q 208 361 208 415 q 276 180 208 244 q 468 115 344 115 q 861 479 799 115 m 557 1022 l 439 1201 l 440 1206 l 588 1206 l 672 1022 l 557 1022 z "},"Ở":{"ha":1081,"x_min":50,"x_max":1181,"o":"m 50 0 m 1181 1150 l 1168 1075 q 972 815 1136 876 q 1031 600 1031 726 q 1019 472 1031 539 q 840 111 982 238 q 469 -15 697 -15 q 160 81 271 -15 q 50 356 50 178 q 61 486 50 419 q 242 844 100 718 q 611 969 383 969 q 911 881 803 969 q 1051 988 1015 906 l 982 988 l 1011 1150 l 1181 1150 m 861 479 q 872 596 872 540 q 806 775 872 711 q 617 839 739 839 q 219 478 282 839 q 208 361 208 415 q 276 180 208 244 q 468 115 344 115 q 861 479 799 115 m 589 1104 l 607 1104 q 642 1112 632 1104 q 653 1135 653 1119 q 642 1150 653 1146 q 613 1154 632 1154 l 529 1154 l 539 1211 q 647 1222 590 1222 q 734 1207 697 1222 q 771 1153 771 1192 q 740 1087 771 1110 q 664 1060 708 1064 l 657 1022 l 574 1022 l 589 1104 z "},"Ỡ":{"ha":1081,"x_min":50,"x_max":1181,"o":"m 50 0 m 1181 1150 l 1168 1075 q 972 815 1136 876 q 1031 600 1031 726 q 1019 472 1031 539 q 840 111 982 238 q 469 -15 697 -15 q 160 81 271 -15 q 50 356 50 178 q 61 486 50 419 q 242 844 100 718 q 611 969 383 969 q 911 881 803 969 q 1051 988 1015 906 l 982 988 l 1011 1150 l 1181 1150 m 861 479 q 872 596 872 540 q 806 775 872 711 q 617 839 739 839 q 219 478 282 839 q 208 361 208 415 q 276 180 208 244 q 468 115 344 115 q 861 479 799 115 m 390 1053 q 439 1163 401 1119 q 539 1206 476 1206 q 585 1200 564 1206 q 640 1182 607 1194 q 690 1165 669 1171 q 732 1160 710 1160 q 782 1206 769 1160 l 875 1206 q 826 1096 864 1139 q 725 1053 788 1053 q 678 1058 700 1053 q 624 1076 657 1064 q 574 1093 594 1088 q 532 1099 554 1099 q 482 1053 494 1099 l 390 1053 z "},"Ő":{"ha":1081,"x_min":50,"x_max":1031,"o":"m 50 0 m 469 -15 q 160 81 271 -15 q 50 356 50 178 q 61 486 50 419 q 242 844 100 718 q 611 969 383 969 q 920 874 810 969 q 1031 600 1031 778 q 1019 472 1031 539 q 840 111 982 238 q 469 -15 697 -15 m 468 115 q 861 479 799 115 q 872 596 872 540 q 806 775 872 711 q 617 839 739 839 q 219 478 282 839 q 208 361 208 415 q 276 180 208 244 q 468 115 344 115 m 446 1022 l 571 1206 l 726 1206 l 728 1201 l 569 1022 l 446 1022 m 660 1022 l 785 1206 l 940 1206 l 942 1201 l 783 1022 l 660 1022 z "},"Ȏ":{"ha":1081,"x_min":50,"x_max":1031,"o":"m 50 0 m 469 -15 q 160 81 271 -15 q 50 356 50 178 q 61 486 50 419 q 242 844 100 718 q 611 969 383 969 q 920 874 810 969 q 1031 600 1031 778 q 1019 472 1031 539 q 840 111 982 238 q 469 -15 697 -15 m 468 115 q 861 479 799 115 q 872 596 872 540 q 806 775 872 711 q 617 839 739 839 q 219 478 282 839 q 208 361 208 415 q 276 180 208 244 q 468 115 344 115 m 407 1035 q 474 1157 419 1108 q 646 1206 529 1206 q 782 1163 736 1206 q 828 1060 828 1121 q 825 1035 828 1051 l 728 1035 q 706 1084 729 1063 q 628 1106 683 1106 q 544 1084 574 1106 q 504 1035 515 1063 l 407 1035 z "},"Ō":{"ha":1081,"x_min":50,"x_max":1031,"o":"m 50 0 m 469 -15 q 160 81 271 -15 q 50 356 50 178 q 61 486 50 419 q 242 844 100 718 q 611 969 383 969 q 920 874 810 969 q 1031 600 1031 778 q 1019 472 1031 539 q 840 111 982 238 q 469 -15 697 -15 m 468 115 q 861 479 799 115 q 872 596 872 540 q 806 775 872 711 q 617 839 739 839 q 219 478 282 839 q 208 361 208 415 q 276 180 208 244 q 468 115 344 115 m 413 1065 l 431 1172 l 854 1172 l 836 1065 l 413 1065 z "},"Ǫ":{"ha":1081,"x_min":50,"x_max":1031,"o":"m 611 969 q 920 874 810 969 q 1031 600 1031 778 q 1019 472 1031 539 q 899 176 990 293 q 663 13 808 58 l 663 11 q 615 -42 635 -11 q 594 -106 594 -72 q 609 -145 594 -129 q 654 -161 624 -161 l 694 -161 l 682 -233 q 589 -253 631 -253 q 501 -228 538 -253 q 465 -149 465 -203 q 533 -12 465 -75 q 469 -15 492 -15 q 160 81 271 -15 q 50 356 50 178 q 61 486 50 419 q 242 844 100 718 q 611 969 383 969 m 861 479 q 872 596 872 540 q 806 775 872 711 q 617 839 739 839 q 219 478 282 839 q 208 361 208 415 q 276 180 208 244 q 468 115 344 115 q 861 479 799 115 z "},"Ø":{"ha":1081,"x_min":-1,"x_max":1083,"o":"m 142 93 q 51 349 51 183 q 106 644 51 513 q 264 857 161 775 q 608 969 407 969 q 867 913 765 969 l 963 1021 l 1083 1021 l 940 860 q 1031 603 1031 765 q 980 320 1031 446 q 835 111 929 194 q 672 16 764 49 q 471 -17 579 -17 q 213 38 313 -17 l 119 -68 l -1 -68 l 142 93 m 771 804 q 618 839 711 839 q 365 754 467 839 q 228 517 263 669 q 210 363 210 432 q 246 211 210 268 l 771 804 m 463 114 q 724 205 619 114 q 860 458 829 296 q 872 589 872 525 q 835 742 872 683 l 311 147 q 463 114 367 114 z "},"Ǿ":{"ha":1081,"x_min":-1,"x_max":1083,"o":"m 0 0 m 142 93 q 51 349 51 183 q 106 644 51 513 q 264 857 161 775 q 608 969 407 969 q 867 913 765 969 l 963 1021 l 1083 1021 l 940 860 q 1031 603 1031 765 q 980 320 1031 446 q 835 111 929 194 q 672 16 764 49 q 471 -17 579 -17 q 213 38 313 -17 l 119 -68 l -1 -68 l 142 93 m 771 804 q 618 839 711 839 q 365 754 467 839 q 228 517 263 669 q 210 363 210 432 q 246 211 210 268 l 771 804 m 463 114 q 724 205 619 114 q 860 458 829 296 q 872 589 872 525 q 835 742 872 683 l 311 147 q 463 114 367 114 m 594 1022 l 743 1206 l 899 1206 l 900 1201 l 725 1022 l 594 1022 z "},"Õ":{"ha":1081,"x_min":50,"x_max":1031,"o":"m 50 0 m 469 -15 q 160 81 271 -15 q 50 356 50 178 q 61 486 50 419 q 242 844 100 718 q 611 969 383 969 q 920 874 810 969 q 1031 600 1031 778 q 1019 472 1031 539 q 840 111 982 238 q 469 -15 697 -15 m 468 115 q 861 479 799 115 q 872 596 872 540 q 806 775 872 711 q 617 839 739 839 q 219 478 282 839 q 208 361 208 415 q 276 180 208 244 q 468 115 344 115 m 390 1053 q 439 1163 401 1119 q 539 1206 476 1206 q 585 1200 564 1206 q 640 1182 607 1194 q 690 1165 669 1171 q 732 1160 710 1160 q 782 1206 769 1160 l 875 1206 q 826 1096 864 1139 q 725 1053 788 1053 q 678 1058 700 1053 q 624 1076 657 1064 q 574 1093 594 1088 q 532 1099 554 1099 q 482 1053 494 1099 l 390 1053 z "},"Œ":{"ha":1389,"x_min":50,"x_max":1389,"o":"m 371 -17 q 133 69 215 -17 q 50 319 50 154 q 65 476 50 388 q 222 844 106 718 q 514 969 339 969 q 765 857 686 969 l 782 953 l 1389 953 l 1365 824 l 913 824 l 865 551 l 1246 551 l 1224 422 l 842 422 l 790 129 l 1253 129 l 1229 0 l 614 0 l 631 96 q 371 -17 522 -17 m 403 114 q 590 199 515 114 q 699 476 664 285 q 714 619 714 564 q 666 788 714 736 q 526 839 618 839 q 330 752 404 839 q 222 476 256 665 q 208 331 208 383 q 257 166 208 218 q 403 114 306 114 z "},"P":{"ha":926,"x_min":21,"x_max":907,"o":"m 189 953 l 615 953 q 835 885 763 953 q 907 699 907 818 q 861 518 907 596 q 735 397 815 440 q 550 354 654 354 l 236 354 l 175 0 l 21 0 l 189 953 m 549 486 q 693 540 636 486 q 750 683 750 593 q 715 785 750 750 q 607 821 679 821 l 318 821 l 260 486 l 549 486 z "},"Þ":{"ha":926,"x_min":21,"x_max":879,"o":"m 189 953 l 343 953 l 314 793 l 586 793 q 806 726 733 793 q 879 538 879 658 q 833 358 879 436 q 706 236 788 279 q 521 193 625 193 l 208 193 l 175 0 l 21 0 l 189 953 m 521 326 q 665 380 608 326 q 722 524 722 433 q 579 660 722 660 l 290 660 l 232 326 l 521 326 z "},"Q":{"ha":1081,"x_min":51,"x_max":1031,"o":"m 524 -14 q 471 -17 493 -17 q 160 75 268 -17 q 51 349 51 167 q 104 638 51 508 q 256 849 157 767 q 608 969 399 969 q 922 877 813 969 q 1031 603 1031 785 q 938 237 1031 392 q 682 21 844 82 l 856 -181 l 664 -181 l 524 -14 m 463 114 q 711 194 610 114 q 850 419 813 275 q 872 589 872 508 q 618 839 872 839 q 367 756 468 839 q 229 521 265 672 q 210 363 210 438 q 463 114 210 114 z "},"R":{"ha":1003,"x_min":21,"x_max":949,"o":"m 189 953 l 657 953 q 875 887 801 953 q 949 706 949 821 q 886 514 949 594 q 724 401 824 433 l 863 0 l 700 0 l 572 382 l 242 382 l 175 0 l 21 0 l 189 953 m 600 513 q 737 563 683 513 q 790 696 790 613 q 755 788 790 756 q 650 821 719 821 l 318 821 l 265 513 l 600 513 z "},"Ŕ":{"ha":1003,"x_min":21,"x_max":949,"o":"m 21 0 m 189 953 l 657 953 q 875 887 801 953 q 949 706 949 821 q 886 514 949 594 q 724 401 824 433 l 863 0 l 700 0 l 572 382 l 242 382 l 175 0 l 21 0 l 189 953 m 600 513 q 737 563 683 513 q 790 696 790 613 q 755 788 790 756 q 650 821 719 821 l 318 821 l 265 513 l 600 513 m 492 1022 l 640 1206 l 796 1206 l 797 1201 l 622 1022 l 492 1022 z "},"Ř":{"ha":1003,"x_min":21,"x_max":949,"o":"m 21 0 m 189 953 l 657 953 q 875 887 801 953 q 949 706 949 821 q 886 514 949 594 q 724 401 824 433 l 863 0 l 700 0 l 572 382 l 242 382 l 175 0 l 21 0 l 189 953 m 600 513 q 737 563 683 513 q 790 696 790 613 q 755 788 790 756 q 650 821 719 821 l 318 821 l 265 513 l 600 513 m 490 1018 l 376 1206 l 506 1206 l 568 1100 l 661 1206 l 803 1206 l 624 1018 l 490 1018 z "},"Ŗ":{"ha":1003,"x_min":21,"x_max":949,"o":"m 21 0 m 189 953 l 657 953 q 875 887 801 953 q 949 706 949 821 q 886 514 949 594 q 724 401 824 433 l 863 0 l 700 0 l 572 382 l 242 382 l 175 0 l 21 0 l 189 953 m 600 513 q 737 563 683 513 q 790 696 790 613 q 755 788 790 756 q 650 821 719 821 l 318 821 l 265 513 l 600 513 m 308 -319 l 386 -203 l 331 -203 l 354 -72 l 497 -72 l 476 -190 l 385 -319 l 308 -319 z "},"Ȑ":{"ha":1003,"x_min":21,"x_max":949,"o":"m 21 0 m 189 953 l 657 953 q 875 887 801 953 q 949 706 949 821 q 886 514 949 594 q 724 401 824 433 l 863 0 l 700 0 l 572 382 l 242 382 l 175 0 l 21 0 l 189 953 m 600 513 q 737 563 683 513 q 790 696 790 613 q 755 788 790 756 q 650 821 719 821 l 318 821 l 265 513 l 600 513 m 417 1022 l 322 1201 l 325 1206 l 475 1206 l 535 1022 l 417 1022 m 625 1022 l 531 1201 l 533 1206 l 683 1206 l 743 1022 l 625 1022 z "},"Ṛ":{"ha":1003,"x_min":21,"x_max":949,"o":"m 21 0 m 189 953 l 657 953 q 875 887 801 953 q 949 706 949 821 q 886 514 949 594 q 724 401 824 433 l 863 0 l 700 0 l 572 382 l 242 382 l 175 0 l 21 0 l 189 953 m 600 513 q 737 563 683 513 q 790 696 790 613 q 755 788 790 756 q 650 821 719 821 l 318 821 l 265 513 l 600 513 m 325 -240 l 351 -94 l 493 -94 l 467 -240 l 325 -240 z "},"Ȓ":{"ha":1003,"x_min":21,"x_max":949,"o":"m 21 0 m 189 953 l 657 953 q 875 887 801 953 q 949 706 949 821 q 886 514 949 594 q 724 401 824 433 l 863 0 l 700 0 l 572 382 l 242 382 l 175 0 l 21 0 l 189 953 m 600 513 q 737 563 683 513 q 790 696 790 613 q 755 788 790 756 q 650 821 719 821 l 318 821 l 265 513 l 600 513 m 350 1035 q 417 1157 363 1108 q 589 1206 472 1206 q 725 1163 679 1206 q 771 1060 771 1121 q 768 1035 771 1051 l 671 1035 q 649 1084 672 1063 q 571 1106 626 1106 q 488 1084 517 1106 q 447 1035 458 1063 l 350 1035 z "},"S":{"ha":926,"x_min":25,"x_max":876,"o":"m 410 -17 q 131 42 238 -17 q 25 221 25 101 q 36 301 25 268 l 189 301 q 183 279 188 297 q 179 246 179 261 q 237 148 179 182 q 394 114 294 114 q 595 156 524 114 q 667 271 667 197 q 636 342 667 314 q 560 389 606 371 q 436 429 515 407 q 275 485 336 458 q 170 560 214 511 q 126 686 126 608 q 181 843 126 779 q 324 938 235 907 q 519 969 414 969 q 779 915 682 969 q 876 750 876 861 q 869 681 876 719 l 718 681 q 724 719 724 701 q 671 808 724 776 q 531 839 618 839 q 353 805 421 839 q 285 706 285 771 q 314 640 285 667 q 388 597 343 614 q 508 558 432 581 q 674 503 611 529 q 783 426 738 476 q 828 297 828 376 q 769 119 828 189 q 616 16 711 49 q 410 -17 521 -17 z "},"Ś":{"ha":926,"x_min":25,"x_max":876,"o":"m 25 0 m 410 -17 q 131 42 238 -17 q 25 221 25 101 q 36 301 25 268 l 189 301 q 183 279 188 297 q 179 246 179 261 q 237 148 179 182 q 394 114 294 114 q 595 156 524 114 q 667 271 667 197 q 636 342 667 314 q 560 389 606 371 q 436 429 515 407 q 275 485 336 458 q 170 560 214 511 q 126 686 126 608 q 181 843 126 779 q 324 938 235 907 q 519 969 414 969 q 779 915 682 969 q 876 750 876 861 q 869 681 876 719 l 718 681 q 724 719 724 701 q 671 808 724 776 q 531 839 618 839 q 353 805 421 839 q 285 706 285 771 q 314 640 285 667 q 388 597 343 614 q 508 558 432 581 q 674 503 611 529 q 783 426 738 476 q 828 297 828 376 q 769 119 828 189 q 616 16 711 49 q 410 -17 521 -17 m 489 1022 l 638 1206 l 793 1206 l 794 1201 l 619 1022 l 489 1022 z "},"Ꞌ":{"ha":260,"x_min":38,"x_max":308,"o":"m 38 289 l 154 953 l 308 953 l 283 807 l 124 289 l 38 289 z "},"Š":{"ha":926,"x_min":25,"x_max":876,"o":"m 25 0 m 410 -17 q 131 42 238 -17 q 25 221 25 101 q 36 301 25 268 l 189 301 q 183 279 188 297 q 179 246 179 261 q 237 148 179 182 q 394 114 294 114 q 595 156 524 114 q 667 271 667 197 q 636 342 667 314 q 560 389 606 371 q 436 429 515 407 q 275 485 336 458 q 170 560 214 511 q 126 686 126 608 q 181 843 126 779 q 324 938 235 907 q 519 969 414 969 q 779 915 682 969 q 876 750 876 861 q 869 681 876 719 l 718 681 q 724 719 724 701 q 671 808 724 776 q 531 839 618 839 q 353 805 421 839 q 285 706 285 771 q 314 640 285 667 q 388 597 343 614 q 508 558 432 581 q 674 503 611 529 q 783 426 738 476 q 828 297 828 376 q 769 119 828 189 q 616 16 711 49 q 410 -17 521 -17 m 488 1018 l 374 1206 l 503 1206 l 565 1100 l 658 1206 l 800 1206 l 621 1018 l 488 1018 z "},"Ş":{"ha":926,"x_min":25,"x_max":876,"o":"m 371 -253 q 228 -242 290 -253 l 240 -174 l 374 -174 q 422 -165 404 -174 q 439 -132 439 -156 q 389 -107 439 -107 l 322 -107 l 354 -15 q 115 52 204 -7 q 25 221 25 111 q 36 301 25 268 l 189 301 q 183 279 188 297 q 179 246 179 261 q 237 148 179 182 q 394 114 294 114 q 595 156 524 114 q 667 271 667 197 q 636 342 667 314 q 560 389 606 371 q 436 429 515 407 q 275 485 336 458 q 170 560 214 511 q 126 686 126 608 q 181 843 126 779 q 324 938 235 907 q 519 969 414 969 q 779 915 682 969 q 876 750 876 861 q 869 681 876 719 l 718 681 q 724 719 724 701 q 671 808 724 776 q 531 839 618 839 q 353 805 421 839 q 285 706 285 771 q 314 640 285 667 q 388 597 343 614 q 508 558 432 581 q 674 503 611 529 q 783 426 738 476 q 828 297 828 376 q 720 71 828 147 q 450 -15 613 -6 l 439 -49 q 522 -71 490 -50 q 554 -132 554 -92 q 500 -226 554 -200 q 371 -253 446 -253 z "},"Ŝ":{"ha":926,"x_min":25,"x_max":876,"o":"m 25 0 m 410 -17 q 131 42 238 -17 q 25 221 25 101 q 36 301 25 268 l 189 301 q 183 279 188 297 q 179 246 179 261 q 237 148 179 182 q 394 114 294 114 q 595 156 524 114 q 667 271 667 197 q 636 342 667 314 q 560 389 606 371 q 436 429 515 407 q 275 485 336 458 q 170 560 214 511 q 126 686 126 608 q 181 843 126 779 q 324 938 235 907 q 519 969 414 969 q 779 915 682 969 q 876 750 876 861 q 869 681 876 719 l 718 681 q 724 719 724 701 q 671 808 724 776 q 531 839 618 839 q 353 805 421 839 q 285 706 285 771 q 314 640 285 667 q 388 597 343 614 q 508 558 432 581 q 674 503 611 529 q 783 426 738 476 q 828 297 828 376 q 769 119 828 189 q 616 16 711 49 q 410 -17 521 -17 m 333 1018 l 513 1206 l 646 1206 l 760 1018 l 632 1018 l 571 1124 l 475 1018 l 333 1018 z "},"Ș":{"ha":926,"x_min":25,"x_max":876,"o":"m 25 0 m 410 -17 q 131 42 238 -17 q 25 221 25 101 q 36 301 25 268 l 189 301 q 183 279 188 297 q 179 246 179 261 q 237 148 179 182 q 394 114 294 114 q 595 156 524 114 q 667 271 667 197 q 636 342 667 314 q 560 389 606 371 q 436 429 515 407 q 275 485 336 458 q 170 560 214 511 q 126 686 126 608 q 181 843 126 779 q 324 938 235 907 q 519 969 414 969 q 779 915 682 969 q 876 750 876 861 q 869 681 876 719 l 718 681 q 724 719 724 701 q 671 808 724 776 q 531 839 618 839 q 353 805 421 839 q 285 706 285 771 q 314 640 285 667 q 388 597 343 614 q 508 558 432 581 q 674 503 611 529 q 783 426 738 476 q 828 297 828 376 q 769 119 828 189 q 616 16 711 49 q 410 -17 521 -17 m 271 -319 l 349 -203 l 293 -203 l 317 -72 l 460 -72 l 439 -190 l 347 -319 l 271 -319 z "},"Ṣ":{"ha":926,"x_min":25,"x_max":876,"o":"m 25 0 m 410 -17 q 131 42 238 -17 q 25 221 25 101 q 36 301 25 268 l 189 301 q 183 279 188 297 q 179 246 179 261 q 237 148 179 182 q 394 114 294 114 q 595 156 524 114 q 667 271 667 197 q 636 342 667 314 q 560 389 606 371 q 436 429 515 407 q 275 485 336 458 q 170 560 214 511 q 126 686 126 608 q 181 843 126 779 q 324 938 235 907 q 519 969 414 969 q 779 915 682 969 q 876 750 876 861 q 869 681 876 719 l 718 681 q 724 719 724 701 q 671 808 724 776 q 531 839 618 839 q 353 805 421 839 q 285 706 285 771 q 314 640 285 667 q 388 597 343 614 q 508 558 432 581 q 674 503 611 529 q 783 426 738 476 q 828 297 828 376 q 769 119 828 189 q 616 16 711 49 q 410 -17 521 -17 m 288 -240 l 314 -94 l 456 -94 l 429 -240 l 288 -240 z "},"ẞ":{"ha":1108,"x_min":21,"x_max":997,"o":"m 122 572 q 290 868 156 767 q 628 969 424 969 q 898 903 799 969 q 997 726 997 838 q 949 579 997 647 q 831 488 900 511 l 831 482 q 932 417 896 463 q 968 303 968 371 q 925 144 968 213 q 806 38 882 75 q 632 0 729 0 l 317 0 l 340 133 l 638 133 q 728 157 689 133 q 790 218 768 181 q 811 294 811 256 q 770 376 811 346 q 653 406 729 406 l 389 406 l 413 538 l 672 538 q 790 586 742 538 q 838 703 838 635 q 783 803 838 767 q 618 839 729 839 q 385 770 474 839 q 274 563 297 701 l 175 0 l 21 0 l 122 572 z "},"Ə":{"ha":1053,"x_min":61,"x_max":1011,"o":"m 461 -17 q 165 74 269 -17 q 61 328 61 164 q 72 439 61 376 l 86 518 l 850 518 q 856 597 856 557 q 579 842 856 842 q 355 788 438 842 q 254 628 272 735 l 106 628 q 288 901 139 818 q 604 969 407 969 q 903 871 796 969 q 1011 593 1011 772 q 966 337 1011 471 q 847 125 921 203 q 461 -17 715 -17 m 483 111 q 701 176 621 111 q 822 389 782 242 l 222 389 q 217 319 217 356 q 483 111 217 111 z "},"T":{"ha":849,"x_min":92,"x_max":904,"o":"m 265 0 l 408 819 l 92 819 l 115 953 l 904 953 l 879 819 l 563 819 l 418 0 l 265 0 z "},"Ŧ":{"ha":849,"x_min":92,"x_max":904,"o":"m 265 0 l 356 517 l 217 517 l 236 625 l 375 625 l 408 819 l 92 819 l 115 953 l 904 953 l 879 819 l 563 819 l 528 625 l 667 625 l 647 517 l 508 517 l 418 0 l 265 0 z "},"Ť":{"ha":849,"x_min":92,"x_max":904,"o":"m 92 0 m 265 0 l 408 819 l 92 819 l 115 953 l 904 953 l 879 819 l 563 819 l 418 0 l 265 0 m 450 1018 l 336 1206 l 465 1206 l 528 1100 l 621 1206 l 763 1206 l 583 1018 l 450 1018 z "},"Ţ":{"ha":849,"x_min":92,"x_max":904,"o":"m 904 953 l 879 819 l 563 819 l 418 0 l 388 0 l 371 -49 q 454 -71 422 -50 q 486 -132 486 -92 q 432 -226 486 -200 q 303 -253 378 -253 q 160 -242 222 -253 l 172 -174 l 306 -174 q 353 -165 336 -174 q 369 -132 369 -156 q 358 -113 369 -119 q 319 -107 347 -107 l 254 -107 l 292 0 l 265 0 l 408 819 l 92 819 l 115 953 l 904 953 z "},"Ț":{"ha":849,"x_min":92,"x_max":904,"o":"m 92 0 m 265 0 l 408 819 l 92 819 l 115 953 l 904 953 l 879 819 l 563 819 l 418 0 l 265 0 m 213 -319 l 290 -203 l 235 -203 l 258 -72 l 401 -72 l 381 -190 l 289 -319 l 213 -319 z "},"Ṭ":{"ha":849,"x_min":92,"x_max":904,"o":"m 92 0 m 265 0 l 408 819 l 92 819 l 115 953 l 904 953 l 879 819 l 563 819 l 418 0 l 265 0 m 229 -240 l 256 -94 l 397 -94 l 371 -240 l 229 -240 z "},"U":{"ha":1003,"x_min":81,"x_max":986,"o":"m 444 -17 q 175 58 269 -17 q 81 276 81 133 q 89 364 81 318 l 192 953 l 344 953 l 240 358 q 235 294 235 319 q 288 160 235 206 q 442 114 340 114 q 631 174 557 114 q 726 350 706 235 l 832 953 l 986 953 l 881 353 q 444 -17 814 -17 z "},"Ú":{"ha":1003,"x_min":81,"x_max":986,"o":"m 81 0 m 444 -17 q 175 58 269 -17 q 81 276 81 133 q 89 364 81 318 l 192 953 l 344 953 l 240 358 q 235 294 235 319 q 288 160 235 206 q 442 114 340 114 q 631 174 557 114 q 726 350 706 235 l 832 953 l 986 953 l 881 353 q 444 -17 814 -17 m 539 1022 l 688 1206 l 843 1206 l 844 1201 l 669 1022 l 539 1022 z "},"Ŭ":{"ha":1003,"x_min":81,"x_max":986,"o":"m 81 0 m 444 -17 q 175 58 269 -17 q 81 276 81 133 q 89 364 81 318 l 192 953 l 344 953 l 240 358 q 235 294 235 319 q 288 160 235 206 q 442 114 340 114 q 631 174 557 114 q 726 350 706 235 l 832 953 l 986 953 l 881 353 q 444 -17 814 -17 m 606 1035 q 458 1074 503 1035 q 413 1172 413 1113 q 415 1206 413 1194 l 513 1206 q 606 1135 513 1135 q 694 1156 661 1135 q 736 1206 728 1178 l 833 1206 q 807 1138 826 1171 q 757 1082 788 1104 q 606 1035 696 1035 z "},"Ǔ":{"ha":1003,"x_min":81,"x_max":986,"o":"m 81 0 m 444 -17 q 175 58 269 -17 q 81 276 81 133 q 89 364 81 318 l 192 953 l 344 953 l 240 358 q 235 294 235 319 q 288 160 235 206 q 442 114 340 114 q 631 174 557 114 q 726 350 706 235 l 832 953 l 986 953 l 881 353 q 444 -17 814 -17 m 538 1018 l 424 1206 l 553 1206 l 615 1100 l 708 1206 l 850 1206 l 671 1018 l 538 1018 z "},"Û":{"ha":1003,"x_min":81,"x_max":986,"o":"m 81 0 m 444 -17 q 175 58 269 -17 q 81 276 81 133 q 89 364 81 318 l 192 953 l 344 953 l 240 358 q 235 294 235 319 q 288 160 235 206 q 442 114 340 114 q 631 174 557 114 q 726 350 706 235 l 832 953 l 986 953 l 881 353 q 444 -17 814 -17 m 383 1018 l 563 1206 l 696 1206 l 810 1018 l 682 1018 l 621 1124 l 525 1018 l 383 1018 z "},"Ȕ":{"ha":1003,"x_min":81,"x_max":986,"o":"m 81 0 m 444 -17 q 175 58 269 -17 q 81 276 81 133 q 89 364 81 318 l 192 953 l 344 953 l 240 358 q 235 294 235 319 q 288 160 235 206 q 442 114 340 114 q 631 174 557 114 q 726 350 706 235 l 832 953 l 986 953 l 881 353 q 444 -17 814 -17 m 464 1022 l 369 1201 l 372 1206 l 522 1206 l 582 1022 l 464 1022 m 672 1022 l 578 1201 l 581 1206 l 731 1206 l 790 1022 l 672 1022 z "},"Ü":{"ha":1003,"x_min":81,"x_max":986,"o":"m 81 0 m 444 -17 q 175 58 269 -17 q 81 276 81 133 q 89 364 81 318 l 192 953 l 344 953 l 240 358 q 235 294 235 319 q 288 160 235 206 q 442 114 340 114 q 631 174 557 114 q 726 350 706 235 l 832 953 l 986 953 l 881 353 q 444 -17 814 -17 m 411 1064 l 436 1206 l 571 1206 l 544 1064 l 411 1064 m 681 1064 l 706 1206 l 840 1206 l 815 1064 l 681 1064 z "},"Ǘ":{"ha":1003,"x_min":81,"x_max":986,"o":"m 81 0 m 444 -17 q 175 58 269 -17 q 81 276 81 133 q 89 364 81 318 l 192 953 l 344 953 l 240 358 q 235 294 235 319 q 288 160 235 206 q 442 114 340 114 q 631 174 557 114 q 726 350 706 235 l 832 953 l 986 953 l 881 353 q 444 -17 814 -17 m 411 1064 l 436 1206 l 571 1206 l 544 1064 l 411 1064 m 681 1064 l 706 1206 l 840 1206 l 815 1064 l 681 1064 m 581 1254 l 729 1438 l 885 1438 l 886 1433 l 711 1254 l 581 1254 z "},"Ǚ":{"ha":1003,"x_min":81,"x_max":986,"o":"m 81 0 m 444 -17 q 175 58 269 -17 q 81 276 81 133 q 89 364 81 318 l 192 953 l 344 953 l 240 358 q 235 294 235 319 q 288 160 235 206 q 442 114 340 114 q 631 174 557 114 q 726 350 706 235 l 832 953 l 986 953 l 881 353 q 444 -17 814 -17 m 411 1064 l 436 1206 l 571 1206 l 544 1064 l 411 1064 m 681 1064 l 706 1206 l 840 1206 l 815 1064 l 681 1064 m 579 1250 l 465 1438 l 594 1438 l 657 1332 l 750 1438 l 892 1438 l 713 1250 l 579 1250 z "},"Ǜ":{"ha":1003,"x_min":81,"x_max":986,"o":"m 81 0 m 444 -17 q 175 58 269 -17 q 81 276 81 133 q 89 364 81 318 l 192 953 l 344 953 l 240 358 q 235 294 235 319 q 288 160 235 206 q 442 114 340 114 q 631 174 557 114 q 726 350 706 235 l 832 953 l 986 953 l 881 353 q 444 -17 814 -17 m 411 1064 l 436 1206 l 571 1206 l 544 1064 l 411 1064 m 681 1064 l 706 1206 l 840 1206 l 815 1064 l 681 1064 m 589 1254 l 471 1433 l 472 1438 l 619 1438 l 704 1254 l 589 1254 z "},"Ǖ":{"ha":1003,"x_min":81,"x_max":986,"o":"m 81 0 m 444 -17 q 175 58 269 -17 q 81 276 81 133 q 89 364 81 318 l 192 953 l 344 953 l 240 358 q 235 294 235 319 q 288 160 235 206 q 442 114 340 114 q 631 174 557 114 q 726 350 706 235 l 832 953 l 986 953 l 881 353 q 444 -17 814 -17 m 411 1064 l 436 1206 l 571 1206 l 544 1064 l 411 1064 m 681 1064 l 706 1206 l 840 1206 l 815 1064 l 681 1064 m 444 1297 l 463 1404 l 886 1404 l 868 1297 l 444 1297 z "},"Ụ":{"ha":1003,"x_min":81,"x_max":986,"o":"m 81 0 m 444 -17 q 175 58 269 -17 q 81 276 81 133 q 89 364 81 318 l 192 953 l 344 953 l 240 358 q 235 294 235 319 q 288 160 235 206 q 442 114 340 114 q 631 174 557 114 q 726 350 706 235 l 832 953 l 986 953 l 881 353 q 444 -17 814 -17 m 325 -240 l 351 -94 l 493 -94 l 467 -240 l 325 -240 z "},"Ù":{"ha":1003,"x_min":81,"x_max":986,"o":"m 81 0 m 444 -17 q 175 58 269 -17 q 81 276 81 133 q 89 364 81 318 l 192 953 l 344 953 l 240 358 q 235 294 235 319 q 288 160 235 206 q 442 114 340 114 q 631 174 557 114 q 726 350 706 235 l 832 953 l 986 953 l 881 353 q 444 -17 814 -17 m 547 1022 l 429 1201 l 431 1206 l 578 1206 l 663 1022 l 547 1022 z "},"Ủ":{"ha":1003,"x_min":81,"x_max":986,"o":"m 81 0 m 444 -17 q 175 58 269 -17 q 81 276 81 133 q 89 364 81 318 l 192 953 l 344 953 l 240 358 q 235 294 235 319 q 288 160 235 206 q 442 114 340 114 q 631 174 557 114 q 726 350 706 235 l 832 953 l 986 953 l 881 353 q 444 -17 814 -17 m 579 1104 l 597 1104 q 633 1112 622 1104 q 643 1135 643 1119 q 633 1150 643 1146 q 603 1154 622 1154 l 519 1154 l 529 1211 q 638 1222 581 1222 q 724 1207 688 1222 q 761 1153 761 1192 q 730 1087 761 1110 q 654 1060 699 1064 l 647 1022 l 564 1022 l 579 1104 z "},"Ư":{"ha":1003,"x_min":81,"x_max":1178,"o":"m 1178 1206 l 1165 1131 q 972 871 1135 935 l 881 353 q 444 -17 814 -17 q 175 58 269 -17 q 81 276 81 133 q 89 364 81 318 l 192 953 l 344 953 l 240 358 q 235 294 235 319 q 288 160 235 206 q 442 114 340 114 q 631 174 557 114 q 726 350 706 235 l 832 953 l 957 953 q 1049 1043 1021 982 l 979 1043 l 1008 1206 l 1178 1206 z "},"Ứ":{"ha":1003,"x_min":81,"x_max":1178,"o":"m 81 0 m 1178 1206 l 1165 1131 q 972 871 1135 935 l 881 353 q 444 -17 814 -17 q 175 58 269 -17 q 81 276 81 133 q 89 364 81 318 l 192 953 l 344 953 l 240 358 q 235 294 235 319 q 288 160 235 206 q 442 114 340 114 q 631 174 557 114 q 726 350 706 235 l 832 953 l 957 953 q 1049 1043 1021 982 l 979 1043 l 1008 1206 l 1178 1206 m 539 1022 l 688 1206 l 843 1206 l 844 1201 l 669 1022 l 539 1022 z "},"Ự":{"ha":1003,"x_min":81,"x_max":1178,"o":"m 81 0 m 1178 1206 l 1165 1131 q 972 871 1135 935 l 881 353 q 444 -17 814 -17 q 175 58 269 -17 q 81 276 81 133 q 89 364 81 318 l 192 953 l 344 953 l 240 358 q 235 294 235 319 q 288 160 235 206 q 442 114 340 114 q 631 174 557 114 q 726 350 706 235 l 832 953 l 957 953 q 1049 1043 1021 982 l 979 1043 l 1008 1206 l 1178 1206 m 325 -240 l 351 -94 l 493 -94 l 467 -240 l 325 -240 z "},"Ừ":{"ha":1003,"x_min":81,"x_max":1178,"o":"m 81 0 m 1178 1206 l 1165 1131 q 972 871 1135 935 l 881 353 q 444 -17 814 -17 q 175 58 269 -17 q 81 276 81 133 q 89 364 81 318 l 192 953 l 344 953 l 240 358 q 235 294 235 319 q 288 160 235 206 q 442 114 340 114 q 631 174 557 114 q 726 350 706 235 l 832 953 l 957 953 q 1049 1043 1021 982 l 979 1043 l 1008 1206 l 1178 1206 m 547 1022 l 429 1201 l 431 1206 l 578 1206 l 663 1022 l 547 1022 z "},"Ử":{"ha":1003,"x_min":81,"x_max":1178,"o":"m 81 0 m 1178 1206 l 1165 1131 q 972 871 1135 935 l 881 353 q 444 -17 814 -17 q 175 58 269 -17 q 81 276 81 133 q 89 364 81 318 l 192 953 l 344 953 l 240 358 q 235 294 235 319 q 288 160 235 206 q 442 114 340 114 q 631 174 557 114 q 726 350 706 235 l 832 953 l 957 953 q 1049 1043 1021 982 l 979 1043 l 1008 1206 l 1178 1206 m 579 1104 l 597 1104 q 633 1112 622 1104 q 643 1135 643 1119 q 633 1150 643 1146 q 603 1154 622 1154 l 519 1154 l 529 1211 q 638 1222 581 1222 q 724 1207 688 1222 q 761 1153 761 1192 q 730 1087 761 1110 q 654 1060 699 1064 l 647 1022 l 564 1022 l 579 1104 z "},"Ữ":{"ha":1003,"x_min":81,"x_max":1178,"o":"m 81 0 m 1178 1206 l 1165 1131 q 972 871 1135 935 l 881 353 q 444 -17 814 -17 q 175 58 269 -17 q 81 276 81 133 q 89 364 81 318 l 192 953 l 344 953 l 240 358 q 235 294 235 319 q 288 160 235 206 q 442 114 340 114 q 631 174 557 114 q 726 350 706 235 l 832 953 l 957 953 q 1049 1043 1021 982 l 979 1043 l 1008 1206 l 1178 1206 m 381 1053 q 429 1163 392 1119 q 529 1206 467 1206 q 576 1200 554 1206 q 631 1182 597 1194 q 680 1165 660 1171 q 722 1160 700 1160 q 772 1206 760 1160 l 865 1206 q 816 1096 854 1139 q 715 1053 778 1053 q 669 1058 690 1053 q 614 1076 647 1064 q 565 1093 585 1088 q 522 1099 544 1099 q 472 1053 485 1099 l 381 1053 z "},"Ű":{"ha":1003,"x_min":81,"x_max":986,"o":"m 81 0 m 444 -17 q 175 58 269 -17 q 81 276 81 133 q 89 364 81 318 l 192 953 l 344 953 l 240 358 q 235 294 235 319 q 288 160 235 206 q 442 114 340 114 q 631 174 557 114 q 726 350 706 235 l 832 953 l 986 953 l 881 353 q 444 -17 814 -17 m 436 1022 l 561 1206 l 717 1206 l 718 1201 l 560 1022 l 436 1022 m 650 1022 l 775 1206 l 931 1206 l 932 1201 l 774 1022 l 650 1022 z "},"Ȗ":{"ha":1003,"x_min":81,"x_max":986,"o":"m 81 0 m 444 -17 q 175 58 269 -17 q 81 276 81 133 q 89 364 81 318 l 192 953 l 344 953 l 240 358 q 235 294 235 319 q 288 160 235 206 q 442 114 340 114 q 631 174 557 114 q 726 350 706 235 l 832 953 l 986 953 l 881 353 q 444 -17 814 -17 m 397 1035 q 465 1157 410 1108 q 636 1206 519 1206 q 772 1163 726 1206 q 818 1060 818 1121 q 815 1035 818 1051 l 718 1035 q 697 1084 719 1063 q 618 1106 674 1106 q 535 1084 564 1106 q 494 1035 506 1063 l 397 1035 z "},"Ū":{"ha":1003,"x_min":81,"x_max":986,"o":"m 81 0 m 444 -17 q 175 58 269 -17 q 81 276 81 133 q 89 364 81 318 l 192 953 l 344 953 l 240 358 q 235 294 235 319 q 288 160 235 206 q 442 114 340 114 q 631 174 557 114 q 726 350 706 235 l 832 953 l 986 953 l 881 353 q 444 -17 814 -17 m 403 1065 l 421 1172 l 844 1172 l 826 1065 l 403 1065 z "},"Ų":{"ha":1003,"x_min":81,"x_max":986,"o":"m 475 -253 q 388 -228 424 -253 q 351 -149 351 -203 q 415 -15 351 -76 q 167 65 253 -8 q 81 276 81 139 q 89 364 81 318 l 192 953 l 344 953 l 240 358 q 235 294 235 319 q 288 160 235 206 q 442 114 340 114 q 631 174 557 114 q 726 350 706 235 l 832 953 l 986 953 l 881 353 q 525 -10 822 26 q 481 -106 481 -57 q 495 -145 481 -129 q 540 -161 510 -161 l 581 -161 l 568 -233 q 475 -253 517 -253 z "},"Ů":{"ha":1003,"x_min":81,"x_max":986,"o":"m 81 0 m 444 -17 q 175 58 269 -17 q 81 276 81 133 q 89 364 81 318 l 192 953 l 344 953 l 240 358 q 235 294 235 319 q 288 160 235 206 q 442 114 340 114 q 631 174 557 114 q 726 350 706 235 l 832 953 l 986 953 l 881 353 q 444 -17 814 -17 m 599 983 q 513 1015 546 983 q 479 1094 479 1047 q 522 1209 479 1164 q 636 1254 565 1254 q 722 1222 689 1254 q 756 1140 756 1189 q 713 1028 756 1072 q 599 983 669 983 m 607 1051 q 665 1074 643 1051 q 686 1131 686 1097 q 670 1171 686 1156 q 628 1186 654 1186 q 570 1163 592 1186 q 549 1104 549 1139 q 564 1066 549 1081 q 607 1051 579 1051 z "},"Ũ":{"ha":1003,"x_min":81,"x_max":986,"o":"m 81 0 m 444 -17 q 175 58 269 -17 q 81 276 81 133 q 89 364 81 318 l 192 953 l 344 953 l 240 358 q 235 294 235 319 q 288 160 235 206 q 442 114 340 114 q 631 174 557 114 q 726 350 706 235 l 832 953 l 986 953 l 881 353 q 444 -17 814 -17 m 381 1053 q 429 1163 392 1119 q 529 1206 467 1206 q 576 1200 554 1206 q 631 1182 597 1194 q 680 1165 660 1171 q 722 1160 700 1160 q 772 1206 760 1160 l 865 1206 q 816 1096 854 1139 q 715 1053 778 1053 q 669 1058 690 1053 q 614 1076 647 1064 q 565 1093 585 1088 q 522 1099 544 1099 q 472 1053 485 1099 l 381 1053 z "},"V":{"ha":926,"x_min":103,"x_max":996,"o":"m 103 953 l 263 953 l 381 306 q 406 163 394 235 l 413 163 l 483 300 l 832 953 l 996 953 l 476 0 l 286 0 l 103 953 z "},"W":{"ha":1311,"x_min":96,"x_max":1383,"o":"m 96 953 l 247 953 l 310 307 q 315 233 313 285 q 318 165 318 182 l 325 165 q 347 228 331 183 q 375 307 363 274 l 633 953 l 843 953 l 878 307 q 881 224 881 267 q 881 165 881 182 l 888 165 q 911 226 894 182 q 944 307 928 269 l 1229 953 l 1383 953 l 947 0 l 751 0 l 717 650 q 713 740 714 697 q 713 799 713 783 l 707 799 q 686 738 701 782 q 654 650 671 693 l 389 0 l 193 0 l 96 953 z "},"Ẃ":{"ha":1311,"x_min":96,"x_max":1383,"o":"m 96 0 m 96 953 l 247 953 l 310 307 q 315 233 313 285 q 318 165 318 182 l 325 165 q 347 228 331 183 q 375 307 363 274 l 633 953 l 843 953 l 878 307 q 881 224 881 267 q 881 165 881 182 l 888 165 q 911 226 894 182 q 944 307 928 269 l 1229 953 l 1383 953 l 947 0 l 751 0 l 717 650 q 713 740 714 697 q 713 799 713 783 l 707 799 q 686 738 701 782 q 654 650 671 693 l 389 0 l 193 0 l 96 953 m 693 1022 l 842 1206 l 997 1206 l 999 1201 l 824 1022 l 693 1022 z "},"Ŵ":{"ha":1311,"x_min":96,"x_max":1383,"o":"m 96 0 m 96 953 l 247 953 l 310 307 q 315 233 313 285 q 318 165 318 182 l 325 165 q 347 228 331 183 q 375 307 363 274 l 633 953 l 843 953 l 878 307 q 881 224 881 267 q 881 165 881 182 l 888 165 q 911 226 894 182 q 944 307 928 269 l 1229 953 l 1383 953 l 947 0 l 751 0 l 717 650 q 713 740 714 697 q 713 799 713 783 l 707 799 q 686 738 701 782 q 654 650 671 693 l 389 0 l 193 0 l 96 953 m 538 1018 l 717 1206 l 850 1206 l 964 1018 l 836 1018 l 775 1124 l 679 1018 l 538 1018 z "},"Ẅ":{"ha":1311,"x_min":96,"x_max":1383,"o":"m 96 0 m 96 953 l 247 953 l 310 307 q 315 233 313 285 q 318 165 318 182 l 325 165 q 347 228 331 183 q 375 307 363 274 l 633 953 l 843 953 l 878 307 q 881 224 881 267 q 881 165 881 182 l 888 165 q 911 226 894 182 q 944 307 928 269 l 1229 953 l 1383 953 l 947 0 l 751 0 l 717 650 q 713 740 714 697 q 713 799 713 783 l 707 799 q 686 738 701 782 q 654 650 671 693 l 389 0 l 193 0 l 96 953 m 565 1064 l 590 1206 l 725 1206 l 699 1064 l 565 1064 m 835 1064 l 860 1206 l 994 1206 l 969 1064 l 835 1064 z "},"Ẁ":{"ha":1311,"x_min":96,"x_max":1383,"o":"m 96 0 m 96 953 l 247 953 l 310 307 q 315 233 313 285 q 318 165 318 182 l 325 165 q 347 228 331 183 q 375 307 363 274 l 633 953 l 843 953 l 878 307 q 881 224 881 267 q 881 165 881 182 l 888 165 q 911 226 894 182 q 944 307 928 269 l 1229 953 l 1383 953 l 947 0 l 751 0 l 717 650 q 713 740 714 697 q 713 799 713 783 l 707 799 q 686 738 701 782 q 654 650 671 693 l 389 0 l 193 0 l 96 953 m 701 1022 l 583 1201 l 585 1206 l 732 1206 l 817 1022 l 701 1022 z "},"X":{"ha":926,"x_min":-79,"x_max":969,"o":"m -79 0 l 375 504 l 121 953 l 297 953 l 482 621 l 489 621 l 781 953 l 969 953 l 556 494 l 836 0 l 661 0 l 453 376 l 446 376 l 108 0 l -79 0 z "},"Y":{"ha":926,"x_min":100,"x_max":996,"o":"m 304 0 l 374 392 l 100 953 l 263 953 l 468 528 l 475 528 l 824 953 l 996 953 l 526 392 l 457 0 l 304 0 z "},"Ý":{"ha":926,"x_min":100,"x_max":996,"o":"m 100 0 m 304 0 l 374 392 l 100 953 l 263 953 l 468 528 l 475 528 l 824 953 l 996 953 l 526 392 l 457 0 l 304 0 m 499 1022 l 647 1206 l 803 1206 l 804 1201 l 629 1022 l 499 1022 z "},"Ŷ":{"ha":926,"x_min":100,"x_max":996,"o":"m 100 0 m 304 0 l 374 392 l 100 953 l 263 953 l 468 528 l 475 528 l 824 953 l 996 953 l 526 392 l 457 0 l 304 0 m 343 1018 l 522 1206 l 656 1206 l 769 1018 l 642 1018 l 581 1124 l 485 1018 l 343 1018 z "},"Ÿ":{"ha":926,"x_min":100,"x_max":996,"o":"m 100 0 m 304 0 l 374 392 l 100 953 l 263 953 l 468 528 l 475 528 l 824 953 l 996 953 l 526 392 l 457 0 l 304 0 m 371 1064 l 396 1206 l 531 1206 l 504 1064 l 371 1064 m 640 1064 l 665 1206 l 800 1206 l 775 1064 l 640 1064 z "},"Ỵ":{"ha":926,"x_min":100,"x_max":996,"o":"m 100 0 m 304 0 l 374 392 l 100 953 l 263 953 l 468 528 l 475 528 l 824 953 l 996 953 l 526 392 l 457 0 l 304 0 m 269 -240 l 296 -94 l 438 -94 l 411 -240 l 269 -240 z "},"Ỳ":{"ha":926,"x_min":100,"x_max":996,"o":"m 100 0 m 304 0 l 374 392 l 100 953 l 263 953 l 468 528 l 475 528 l 824 953 l 996 953 l 526 392 l 457 0 l 304 0 m 507 1022 l 389 1201 l 390 1206 l 538 1206 l 622 1022 l 507 1022 z "},"Ỷ":{"ha":926,"x_min":100,"x_max":996,"o":"m 100 0 m 304 0 l 374 392 l 100 953 l 263 953 l 468 528 l 475 528 l 824 953 l 996 953 l 526 392 l 457 0 l 304 0 m 539 1104 l 557 1104 q 592 1112 582 1104 q 603 1135 603 1119 q 592 1150 603 1146 q 563 1154 582 1154 l 479 1154 l 489 1211 q 597 1222 540 1222 q 684 1207 647 1222 q 721 1153 721 1192 q 690 1087 721 1110 q 614 1060 658 1064 l 607 1022 l 524 1022 l 539 1104 z "},"Ȳ":{"ha":926,"x_min":100,"x_max":996,"o":"m 100 0 m 304 0 l 374 392 l 100 953 l 263 953 l 468 528 l 475 528 l 824 953 l 996 953 l 526 392 l 457 0 l 304 0 m 363 1065 l 381 1172 l 804 1172 l 786 1065 l 363 1065 z "},"Ỹ":{"ha":926,"x_min":100,"x_max":996,"o":"m 100 0 m 304 0 l 374 392 l 100 953 l 263 953 l 468 528 l 475 528 l 824 953 l 996 953 l 526 392 l 457 0 l 304 0 m 340 1053 q 389 1163 351 1119 q 489 1206 426 1206 q 535 1200 514 1206 q 590 1182 557 1194 q 640 1165 619 1171 q 682 1160 660 1160 q 732 1206 719 1160 l 825 1206 q 776 1096 814 1139 q 675 1053 738 1053 q 628 1058 650 1053 q 574 1076 607 1064 q 524 1093 544 1088 q 482 1099 504 1099 q 432 1053 444 1099 l 340 1053 z "},"Z":{"ha":849,"x_min":-51,"x_max":890,"o":"m -51 0 l -37 76 l 626 821 l 128 821 l 151 953 l 890 953 l 876 876 l 210 132 l 758 132 l 735 0 l -51 0 z "},"Ź":{"ha":849,"x_min":-51,"x_max":890,"o":"m 0 0 m -51 0 l -37 76 l 626 821 l 128 821 l 151 953 l 890 953 l 876 876 l 210 132 l 758 132 l 735 0 l -51 0 m 467 1022 l 615 1206 l 771 1206 l 772 1201 l 597 1022 l 467 1022 z "},"Ž":{"ha":849,"x_min":-51,"x_max":890,"o":"m 0 0 m -51 0 l -37 76 l 626 821 l 128 821 l 151 953 l 890 953 l 876 876 l 210 132 l 758 132 l 735 0 l -51 0 m 465 1018 l 351 1206 l 481 1206 l 543 1100 l 636 1206 l 778 1206 l 599 1018 l 465 1018 z "},"Ż":{"ha":849,"x_min":-51,"x_max":890,"o":"m 0 0 m -51 0 l -37 76 l 626 821 l 128 821 l 151 953 l 890 953 l 876 876 l 210 132 l 758 132 l 735 0 l -51 0 m 468 1060 l 494 1206 l 636 1206 l 610 1060 l 468 1060 z "},"Ẓ":{"ha":849,"x_min":-51,"x_max":890,"o":"m 0 0 m -51 0 l -37 76 l 626 821 l 128 821 l 151 953 l 890 953 l 876 876 l 210 132 l 758 132 l 735 0 l -51 0 m 249 -240 l 275 -94 l 417 -94 l 390 -240 l 249 -240 z "},"a":{"ha":788,"x_min":28,"x_max":736,"o":"m 629 139 q 671 101 629 101 l 722 101 l 706 6 q 607 -17 664 -17 q 527 11 557 -17 q 497 92 497 39 l 497 110 l 490 110 q 391 16 453 49 q 260 -17 329 -17 q 90 53 151 -17 q 28 256 28 122 q 70 504 28 392 q 190 682 113 617 q 371 747 268 747 q 494 723 446 747 q 571 647 543 699 l 579 647 l 622 731 l 736 731 l 700 532 q 629 139 629 154 m 303 104 q 437 163 383 104 q 514 305 490 221 q 538 465 538 389 q 504 587 538 546 q 399 628 471 628 q 274 576 324 628 q 200 440 224 524 q 176 264 176 357 q 303 104 176 104 z "},"á":{"ha":788,"x_min":28,"x_max":736,"o":"m 28 0 m 629 139 q 671 101 629 101 l 722 101 l 706 6 q 607 -17 664 -17 q 527 11 557 -17 q 497 92 497 39 l 497 110 l 490 110 q 391 16 453 49 q 260 -17 329 -17 q 90 53 151 -17 q 28 256 28 122 q 70 504 28 392 q 190 682 113 617 q 371 747 268 747 q 494 723 446 747 q 571 647 543 699 l 579 647 l 622 731 l 736 731 l 700 532 q 629 139 629 154 m 303 104 q 437 163 383 104 q 514 305 490 221 q 538 465 538 389 q 504 587 538 546 q 399 628 471 628 q 274 576 324 628 q 200 440 224 524 q 176 264 176 357 q 303 104 176 104 m 365 821 l 514 1004 l 669 1004 l 671 1000 l 496 821 l 365 821 z "},"ă":{"ha":788,"x_min":28,"x_max":736,"o":"m 28 0 m 629 139 q 671 101 629 101 l 722 101 l 706 6 q 607 -17 664 -17 q 527 11 557 -17 q 497 92 497 39 l 497 110 l 490 110 q 391 16 453 49 q 260 -17 329 -17 q 90 53 151 -17 q 28 256 28 122 q 70 504 28 392 q 190 682 113 617 q 371 747 268 747 q 494 723 446 747 q 571 647 543 699 l 579 647 l 622 731 l 736 731 l 700 532 q 629 139 629 154 m 303 104 q 437 163 383 104 q 514 305 490 221 q 538 465 538 389 q 504 587 538 546 q 399 628 471 628 q 274 576 324 628 q 200 440 224 524 q 176 264 176 357 q 303 104 176 104 m 432 833 q 284 872 329 833 q 239 971 239 911 q 242 1004 239 993 l 339 1004 q 432 933 339 933 q 521 955 488 933 q 563 1004 554 976 l 660 1004 q 633 936 653 969 q 583 881 614 903 q 432 833 522 833 z "},"ắ":{"ha":788,"x_min":28,"x_max":736,"o":"m 28 0 m 629 139 q 671 101 629 101 l 722 101 l 706 6 q 607 -17 664 -17 q 527 11 557 -17 q 497 92 497 39 l 497 110 l 490 110 q 391 16 453 49 q 260 -17 329 -17 q 90 53 151 -17 q 28 256 28 122 q 70 504 28 392 q 190 682 113 617 q 371 747 268 747 q 494 723 446 747 q 571 647 543 699 l 579 647 l 622 731 l 736 731 l 700 532 q 629 139 629 154 m 303 104 q 437 163 383 104 q 514 305 490 221 q 538 465 538 389 q 504 587 538 546 q 399 628 471 628 q 274 576 324 628 q 200 440 224 524 q 176 264 176 357 q 303 104 176 104 m 432 833 q 284 872 329 833 q 239 971 239 911 q 242 1004 239 993 l 339 1004 q 432 933 339 933 q 521 955 488 933 q 563 1004 554 976 l 660 1004 q 633 936 653 969 q 583 881 614 903 q 432 833 522 833 m 374 1004 l 522 1188 l 678 1188 l 679 1183 l 504 1004 l 374 1004 z "},"ặ":{"ha":788,"x_min":28,"x_max":736,"o":"m 28 0 m 629 139 q 671 101 629 101 l 722 101 l 706 6 q 607 -17 664 -17 q 527 11 557 -17 q 497 92 497 39 l 497 110 l 490 110 q 391 16 453 49 q 260 -17 329 -17 q 90 53 151 -17 q 28 256 28 122 q 70 504 28 392 q 190 682 113 617 q 371 747 268 747 q 494 723 446 747 q 571 647 543 699 l 579 647 l 622 731 l 736 731 l 700 532 q 629 139 629 154 m 303 104 q 437 163 383 104 q 514 305 490 221 q 538 465 538 389 q 504 587 538 546 q 399 628 471 628 q 274 576 324 628 q 200 440 224 524 q 176 264 176 357 q 303 104 176 104 m 432 833 q 284 872 329 833 q 239 971 239 911 q 242 1004 239 993 l 339 1004 q 432 933 339 933 q 521 955 488 933 q 563 1004 554 976 l 660 1004 q 633 936 653 969 q 583 881 614 903 q 432 833 522 833 m 178 -240 l 204 -94 l 346 -94 l 319 -240 l 178 -240 z "},"ằ":{"ha":788,"x_min":28,"x_max":736,"o":"m 28 0 m 629 139 q 671 101 629 101 l 722 101 l 706 6 q 607 -17 664 -17 q 527 11 557 -17 q 497 92 497 39 l 497 110 l 490 110 q 391 16 453 49 q 260 -17 329 -17 q 90 53 151 -17 q 28 256 28 122 q 70 504 28 392 q 190 682 113 617 q 371 747 268 747 q 494 723 446 747 q 571 647 543 699 l 579 647 l 622 731 l 736 731 l 700 532 q 629 139 629 154 m 303 104 q 437 163 383 104 q 514 305 490 221 q 538 465 538 389 q 504 587 538 546 q 399 628 471 628 q 274 576 324 628 q 200 440 224 524 q 176 264 176 357 q 303 104 176 104 m 432 833 q 284 872 329 833 q 239 971 239 911 q 242 1004 239 993 l 339 1004 q 432 933 339 933 q 521 955 488 933 q 563 1004 554 976 l 660 1004 q 633 936 653 969 q 583 881 614 903 q 432 833 522 833 m 410 1004 l 292 1183 l 293 1188 l 440 1188 l 525 1004 l 410 1004 z "},"ẳ":{"ha":788,"x_min":28,"x_max":736,"o":"m 28 0 m 629 139 q 671 101 629 101 l 722 101 l 706 6 q 607 -17 664 -17 q 527 11 557 -17 q 497 92 497 39 l 497 110 l 490 110 q 391 16 453 49 q 260 -17 329 -17 q 90 53 151 -17 q 28 256 28 122 q 70 504 28 392 q 190 682 113 617 q 371 747 268 747 q 494 723 446 747 q 571 647 543 699 l 579 647 l 622 731 l 736 731 l 700 532 q 629 139 629 154 m 303 104 q 437 163 383 104 q 514 305 490 221 q 538 465 538 389 q 504 587 538 546 q 399 628 471 628 q 274 576 324 628 q 200 440 224 524 q 176 264 176 357 q 303 104 176 104 m 432 833 q 284 872 329 833 q 239 971 239 911 q 242 1004 239 993 l 339 1004 q 432 933 339 933 q 521 955 488 933 q 563 1004 554 976 l 660 1004 q 633 936 653 969 q 583 881 614 903 q 432 833 522 833 m 413 1086 l 431 1086 q 466 1094 456 1086 q 476 1117 476 1101 q 466 1132 476 1128 q 436 1136 456 1136 l 353 1136 l 363 1193 q 471 1204 414 1204 q 558 1189 521 1204 q 594 1135 594 1174 q 563 1069 594 1092 q 488 1042 532 1046 l 481 1004 l 397 1004 l 413 1086 z "},"ẵ":{"ha":788,"x_min":28,"x_max":736,"o":"m 28 0 m 629 139 q 671 101 629 101 l 722 101 l 706 6 q 607 -17 664 -17 q 527 11 557 -17 q 497 92 497 39 l 497 110 l 490 110 q 391 16 453 49 q 260 -17 329 -17 q 90 53 151 -17 q 28 256 28 122 q 70 504 28 392 q 190 682 113 617 q 371 747 268 747 q 494 723 446 747 q 571 647 543 699 l 579 647 l 622 731 l 736 731 l 700 532 q 629 139 629 154 m 303 104 q 437 163 383 104 q 514 305 490 221 q 538 465 538 389 q 504 587 538 546 q 399 628 471 628 q 274 576 324 628 q 200 440 224 524 q 176 264 176 357 q 303 104 176 104 m 432 833 q 284 872 329 833 q 239 971 239 911 q 242 1004 239 993 l 339 1004 q 432 933 339 933 q 521 955 488 933 q 563 1004 554 976 l 660 1004 q 633 936 653 969 q 583 881 614 903 q 432 833 522 833 m 225 1074 q 274 1183 236 1140 q 374 1226 311 1226 q 420 1221 399 1226 q 475 1203 442 1215 q 524 1186 504 1192 q 567 1181 544 1181 q 617 1226 604 1181 l 710 1226 q 660 1117 699 1160 q 560 1074 622 1074 q 513 1079 535 1074 q 458 1097 492 1085 q 409 1114 429 1108 q 367 1119 389 1119 q 317 1074 329 1119 l 225 1074 z "},"ǎ":{"ha":788,"x_min":28,"x_max":736,"o":"m 28 0 m 629 139 q 671 101 629 101 l 722 101 l 706 6 q 607 -17 664 -17 q 527 11 557 -17 q 497 92 497 39 l 497 110 l 490 110 q 391 16 453 49 q 260 -17 329 -17 q 90 53 151 -17 q 28 256 28 122 q 70 504 28 392 q 190 682 113 617 q 371 747 268 747 q 494 723 446 747 q 571 647 543 699 l 579 647 l 622 731 l 736 731 l 700 532 q 629 139 629 154 m 303 104 q 437 163 383 104 q 514 305 490 221 q 538 465 538 389 q 504 587 538 546 q 399 628 471 628 q 274 576 324 628 q 200 440 224 524 q 176 264 176 357 q 303 104 176 104 m 364 817 l 250 1004 l 379 1004 l 442 899 l 535 1004 l 676 1004 l 497 817 l 364 817 z "},"â":{"ha":788,"x_min":28,"x_max":736,"o":"m 28 0 m 629 139 q 671 101 629 101 l 722 101 l 706 6 q 607 -17 664 -17 q 527 11 557 -17 q 497 92 497 39 l 497 110 l 490 110 q 391 16 453 49 q 260 -17 329 -17 q 90 53 151 -17 q 28 256 28 122 q 70 504 28 392 q 190 682 113 617 q 371 747 268 747 q 494 723 446 747 q 571 647 543 699 l 579 647 l 622 731 l 736 731 l 700 532 q 629 139 629 154 m 303 104 q 437 163 383 104 q 514 305 490 221 q 538 465 538 389 q 504 587 538 546 q 399 628 471 628 q 274 576 324 628 q 200 440 224 524 q 176 264 176 357 q 303 104 176 104 m 210 817 l 389 1004 l 522 1004 l 636 817 l 508 817 l 447 922 l 351 817 l 210 817 z "},"ấ":{"ha":788,"x_min":28,"x_max":876,"o":"m 28 0 m 629 139 q 671 101 629 101 l 722 101 l 706 6 q 607 -17 664 -17 q 527 11 557 -17 q 497 92 497 39 l 497 110 l 490 110 q 391 16 453 49 q 260 -17 329 -17 q 90 53 151 -17 q 28 256 28 122 q 70 504 28 392 q 190 682 113 617 q 371 747 268 747 q 494 723 446 747 q 571 647 543 699 l 579 647 l 622 731 l 736 731 l 700 532 q 629 139 629 154 m 303 104 q 437 163 383 104 q 514 305 490 221 q 538 465 538 389 q 504 587 538 546 q 399 628 471 628 q 274 576 324 628 q 200 440 224 524 q 176 264 176 357 q 303 104 176 104 m 210 817 l 389 1004 l 522 1004 l 636 817 l 508 817 l 447 922 l 351 817 l 210 817 m 571 953 l 719 1136 l 875 1136 l 876 1132 l 701 953 l 571 953 z "},"ậ":{"ha":788,"x_min":28,"x_max":736,"o":"m 28 0 m 629 139 q 671 101 629 101 l 722 101 l 706 6 q 607 -17 664 -17 q 527 11 557 -17 q 497 92 497 39 l 497 110 l 490 110 q 391 16 453 49 q 260 -17 329 -17 q 90 53 151 -17 q 28 256 28 122 q 70 504 28 392 q 190 682 113 617 q 371 747 268 747 q 494 723 446 747 q 571 647 543 699 l 579 647 l 622 731 l 736 731 l 700 532 q 629 139 629 154 m 303 104 q 437 163 383 104 q 514 305 490 221 q 538 465 538 389 q 504 587 538 546 q 399 628 471 628 q 274 576 324 628 q 200 440 224 524 q 176 264 176 357 q 303 104 176 104 m 210 817 l 389 1004 l 522 1004 l 636 817 l 508 817 l 447 922 l 351 817 l 210 817 m 178 -240 l 204 -94 l 346 -94 l 319 -240 l 178 -240 z "},"ầ":{"ha":788,"x_min":28,"x_max":749,"o":"m 28 0 m 629 139 q 671 101 629 101 l 722 101 l 706 6 q 607 -17 664 -17 q 527 11 557 -17 q 497 92 497 39 l 497 110 l 490 110 q 391 16 453 49 q 260 -17 329 -17 q 90 53 151 -17 q 28 256 28 122 q 70 504 28 392 q 190 682 113 617 q 371 747 268 747 q 494 723 446 747 q 571 647 543 699 l 579 647 l 622 731 l 736 731 l 700 532 q 629 139 629 154 m 303 104 q 437 163 383 104 q 514 305 490 221 q 538 465 538 389 q 504 587 538 546 q 399 628 471 628 q 274 576 324 628 q 200 440 224 524 q 176 264 176 357 q 303 104 176 104 m 210 817 l 389 1004 l 522 1004 l 636 817 l 508 817 l 447 922 l 351 817 l 210 817 m 633 953 l 515 1132 l 517 1136 l 664 1136 l 749 953 l 633 953 z "},"ẩ":{"ha":788,"x_min":28,"x_max":792,"o":"m 28 0 m 629 139 q 671 101 629 101 l 722 101 l 706 6 q 607 -17 664 -17 q 527 11 557 -17 q 497 92 497 39 l 497 110 l 490 110 q 391 16 453 49 q 260 -17 329 -17 q 90 53 151 -17 q 28 256 28 122 q 70 504 28 392 q 190 682 113 617 q 371 747 268 747 q 494 723 446 747 q 571 647 543 699 l 579 647 l 622 731 l 736 731 l 700 532 q 629 139 629 154 m 303 104 q 437 163 383 104 q 514 305 490 221 q 538 465 538 389 q 504 587 538 546 q 399 628 471 628 q 274 576 324 628 q 200 440 224 524 q 176 264 176 357 q 303 104 176 104 m 210 817 l 389 1004 l 522 1004 l 636 817 l 508 817 l 447 922 l 351 817 l 210 817 m 610 1035 l 628 1035 q 663 1042 653 1035 q 674 1065 674 1050 q 663 1081 674 1076 q 633 1085 653 1085 l 550 1085 l 560 1142 q 668 1153 611 1153 q 755 1138 718 1153 q 792 1083 792 1122 q 760 1017 792 1040 q 685 990 729 994 l 678 953 l 594 953 l 610 1035 z "},"ẫ":{"ha":788,"x_min":28,"x_max":736,"o":"m 28 0 m 629 139 q 671 101 629 101 l 722 101 l 706 6 q 607 -17 664 -17 q 527 11 557 -17 q 497 92 497 39 l 497 110 l 490 110 q 391 16 453 49 q 260 -17 329 -17 q 90 53 151 -17 q 28 256 28 122 q 70 504 28 392 q 190 682 113 617 q 371 747 268 747 q 494 723 446 747 q 571 647 543 699 l 579 647 l 622 731 l 736 731 l 700 532 q 629 139 629 154 m 303 104 q 437 163 383 104 q 514 305 490 221 q 538 465 538 389 q 504 587 538 546 q 399 628 471 628 q 274 576 324 628 q 200 440 224 524 q 176 264 176 357 q 303 104 176 104 m 210 817 l 389 1004 l 522 1004 l 636 817 l 508 817 l 447 922 l 351 817 l 210 817 m 240 1074 q 289 1183 251 1140 q 389 1226 326 1226 q 435 1221 414 1226 q 490 1203 457 1215 q 540 1186 519 1192 q 582 1181 560 1181 q 632 1226 619 1181 l 725 1226 q 676 1117 714 1160 q 575 1074 638 1074 q 528 1079 550 1074 q 474 1097 507 1085 q 424 1114 444 1108 q 382 1119 404 1119 q 332 1074 344 1119 l 240 1074 z "},"ȁ":{"ha":788,"x_min":28,"x_max":736,"o":"m 28 0 m 629 139 q 671 101 629 101 l 722 101 l 706 6 q 607 -17 664 -17 q 527 11 557 -17 q 497 92 497 39 l 497 110 l 490 110 q 391 16 453 49 q 260 -17 329 -17 q 90 53 151 -17 q 28 256 28 122 q 70 504 28 392 q 190 682 113 617 q 371 747 268 747 q 494 723 446 747 q 571 647 543 699 l 579 647 l 622 731 l 736 731 l 700 532 q 629 139 629 154 m 303 104 q 437 163 383 104 q 514 305 490 221 q 538 465 538 389 q 504 587 538 546 q 399 628 471 628 q 274 576 324 628 q 200 440 224 524 q 176 264 176 357 q 303 104 176 104 m 290 821 l 196 1000 l 199 1004 l 349 1004 l 408 821 l 290 821 m 499 821 l 404 1000 l 407 1004 l 557 1004 l 617 821 l 499 821 z "},"ä":{"ha":788,"x_min":28,"x_max":736,"o":"m 28 0 m 629 139 q 671 101 629 101 l 722 101 l 706 6 q 607 -17 664 -17 q 527 11 557 -17 q 497 92 497 39 l 497 110 l 490 110 q 391 16 453 49 q 260 -17 329 -17 q 90 53 151 -17 q 28 256 28 122 q 70 504 28 392 q 190 682 113 617 q 371 747 268 747 q 494 723 446 747 q 571 647 543 699 l 579 647 l 622 731 l 736 731 l 700 532 q 629 139 629 154 m 303 104 q 437 163 383 104 q 514 305 490 221 q 538 465 538 389 q 504 587 538 546 q 399 628 471 628 q 274 576 324 628 q 200 440 224 524 q 176 264 176 357 q 303 104 176 104 m 238 863 l 263 1004 l 397 1004 l 371 863 l 238 863 m 507 863 l 532 1004 l 667 1004 l 642 863 l 507 863 z "},"ạ":{"ha":788,"x_min":28,"x_max":736,"o":"m 28 0 m 629 139 q 671 101 629 101 l 722 101 l 706 6 q 607 -17 664 -17 q 527 11 557 -17 q 497 92 497 39 l 497 110 l 490 110 q 391 16 453 49 q 260 -17 329 -17 q 90 53 151 -17 q 28 256 28 122 q 70 504 28 392 q 190 682 113 617 q 371 747 268 747 q 494 723 446 747 q 571 647 543 699 l 579 647 l 622 731 l 736 731 l 700 532 q 629 139 629 154 m 303 104 q 437 163 383 104 q 514 305 490 221 q 538 465 538 389 q 504 587 538 546 q 399 628 471 628 q 274 576 324 628 q 200 440 224 524 q 176 264 176 357 q 303 104 176 104 m 178 -240 l 204 -94 l 346 -94 l 319 -240 l 178 -240 z "},"à":{"ha":788,"x_min":28,"x_max":736,"o":"m 28 0 m 629 139 q 671 101 629 101 l 722 101 l 706 6 q 607 -17 664 -17 q 527 11 557 -17 q 497 92 497 39 l 497 110 l 490 110 q 391 16 453 49 q 260 -17 329 -17 q 90 53 151 -17 q 28 256 28 122 q 70 504 28 392 q 190 682 113 617 q 371 747 268 747 q 494 723 446 747 q 571 647 543 699 l 579 647 l 622 731 l 736 731 l 700 532 q 629 139 629 154 m 303 104 q 437 163 383 104 q 514 305 490 221 q 538 465 538 389 q 504 587 538 546 q 399 628 471 628 q 274 576 324 628 q 200 440 224 524 q 176 264 176 357 q 303 104 176 104 m 374 821 l 256 1000 l 257 1004 l 404 1004 l 489 821 l 374 821 z "},"ả":{"ha":788,"x_min":28,"x_max":736,"o":"m 28 0 m 629 139 q 671 101 629 101 l 722 101 l 706 6 q 607 -17 664 -17 q 527 11 557 -17 q 497 92 497 39 l 497 110 l 490 110 q 391 16 453 49 q 260 -17 329 -17 q 90 53 151 -17 q 28 256 28 122 q 70 504 28 392 q 190 682 113 617 q 371 747 268 747 q 494 723 446 747 q 571 647 543 699 l 579 647 l 622 731 l 736 731 l 700 532 q 629 139 629 154 m 303 104 q 437 163 383 104 q 514 305 490 221 q 538 465 538 389 q 504 587 538 546 q 399 628 471 628 q 274 576 324 628 q 200 440 224 524 q 176 264 176 357 q 303 104 176 104 m 406 903 l 424 903 q 459 910 449 903 q 469 933 469 918 q 459 949 469 944 q 429 953 449 953 l 346 953 l 356 1010 q 464 1021 407 1021 q 551 1006 514 1021 q 588 951 588 990 q 556 885 588 908 q 481 858 525 863 l 474 821 l 390 821 l 406 903 z "},"ȃ":{"ha":788,"x_min":28,"x_max":736,"o":"m 28 0 m 629 139 q 671 101 629 101 l 722 101 l 706 6 q 607 -17 664 -17 q 527 11 557 -17 q 497 92 497 39 l 497 110 l 490 110 q 391 16 453 49 q 260 -17 329 -17 q 90 53 151 -17 q 28 256 28 122 q 70 504 28 392 q 190 682 113 617 q 371 747 268 747 q 494 723 446 747 q 571 647 543 699 l 579 647 l 622 731 l 736 731 l 700 532 q 629 139 629 154 m 303 104 q 437 163 383 104 q 514 305 490 221 q 538 465 538 389 q 504 587 538 546 q 399 628 471 628 q 274 576 324 628 q 200 440 224 524 q 176 264 176 357 q 303 104 176 104 m 224 833 q 291 956 236 907 q 463 1004 346 1004 q 599 962 553 1004 q 644 858 644 919 q 642 833 644 850 l 544 833 q 523 883 546 861 q 444 904 500 904 q 361 883 390 904 q 321 833 332 861 l 224 833 z "},"ā":{"ha":788,"x_min":28,"x_max":736,"o":"m 28 0 m 629 139 q 671 101 629 101 l 722 101 l 706 6 q 607 -17 664 -17 q 527 11 557 -17 q 497 92 497 39 l 497 110 l 490 110 q 391 16 453 49 q 260 -17 329 -17 q 90 53 151 -17 q 28 256 28 122 q 70 504 28 392 q 190 682 113 617 q 371 747 268 747 q 494 723 446 747 q 571 647 543 699 l 579 647 l 622 731 l 736 731 l 700 532 q 629 139 629 154 m 303 104 q 437 163 383 104 q 514 305 490 221 q 538 465 538 389 q 504 587 538 546 q 399 628 471 628 q 274 576 324 628 q 200 440 224 524 q 176 264 176 357 q 303 104 176 104 m 229 864 l 247 971 l 671 971 l 653 864 l 229 864 z "},"ą":{"ha":788,"x_min":28,"x_max":736,"o":"m 625 139 q 667 101 625 101 l 717 101 l 700 6 q 609 -40 647 -14 q 571 -108 571 -67 q 631 -161 571 -161 l 671 -161 l 658 -233 q 565 -253 607 -253 q 478 -228 514 -253 q 442 -149 442 -203 q 550 -7 442 -61 q 506 31 521 4 q 492 97 490 57 l 492 110 l 486 110 q 388 16 449 49 q 260 -17 328 -17 q 90 53 151 -17 q 28 256 28 122 q 70 504 28 392 q 190 682 113 617 q 371 747 268 747 q 494 723 446 747 q 571 647 543 699 l 579 647 l 622 731 l 736 731 q 708 585 724 664 q 679 429 693 507 q 625 139 625 144 m 303 104 q 436 167 383 104 q 513 316 489 231 q 538 465 538 401 q 504 587 538 546 q 399 628 471 628 q 274 576 324 628 q 200 440 224 524 q 176 264 176 357 q 303 104 176 104 z "},"å":{"ha":788,"x_min":28,"x_max":736,"o":"m 28 0 m 629 139 q 671 101 629 101 l 722 101 l 706 6 q 607 -17 664 -17 q 527 11 557 -17 q 497 92 497 39 l 497 110 l 490 110 q 391 16 453 49 q 260 -17 329 -17 q 90 53 151 -17 q 28 256 28 122 q 70 504 28 392 q 190 682 113 617 q 371 747 268 747 q 494 723 446 747 q 571 647 543 699 l 579 647 l 622 731 l 736 731 l 700 532 q 629 139 629 154 m 303 104 q 437 163 383 104 q 514 305 490 221 q 538 465 538 389 q 504 587 538 546 q 399 628 471 628 q 274 576 324 628 q 200 440 224 524 q 176 264 176 357 q 303 104 176 104 m 425 782 q 339 814 372 782 q 306 893 306 846 q 349 1008 306 963 q 463 1053 392 1053 q 549 1020 515 1053 q 582 939 582 988 q 539 826 582 871 q 425 782 496 782 m 433 850 q 491 873 469 850 q 513 929 513 896 q 497 969 513 954 q 454 985 481 985 q 397 961 418 985 q 375 903 375 938 q 390 865 375 879 q 433 850 406 850 z "},"ǻ":{"ha":788,"x_min":28,"x_max":736,"o":"m 28 0 m 629 139 q 671 101 629 101 l 722 101 l 706 6 q 607 -17 664 -17 q 527 11 557 -17 q 497 92 497 39 l 497 110 l 490 110 q 391 16 453 49 q 260 -17 329 -17 q 90 53 151 -17 q 28 256 28 122 q 70 504 28 392 q 190 682 113 617 q 371 747 268 747 q 494 723 446 747 q 571 647 543 699 l 579 647 l 622 731 l 736 731 l 700 532 q 629 139 629 154 m 303 104 q 437 163 383 104 q 514 305 490 221 q 538 465 538 389 q 504 587 538 546 q 399 628 471 628 q 274 576 324 628 q 200 440 224 524 q 176 264 176 357 q 303 104 176 104 m 425 782 q 339 814 372 782 q 306 893 306 846 q 349 1008 306 963 q 463 1053 392 1053 q 549 1020 515 1053 q 582 939 582 988 q 539 826 582 871 q 425 782 496 782 m 433 850 q 491 873 469 850 q 513 929 513 896 q 497 969 513 954 q 454 985 481 985 q 397 961 418 985 q 375 903 375 938 q 390 865 375 879 q 433 850 406 850 m 407 1083 l 556 1267 l 711 1267 l 713 1263 l 538 1083 l 407 1083 z "},"ã":{"ha":788,"x_min":28,"x_max":736,"o":"m 28 0 m 629 139 q 671 101 629 101 l 722 101 l 706 6 q 607 -17 664 -17 q 527 11 557 -17 q 497 92 497 39 l 497 110 l 490 110 q 391 16 453 49 q 260 -17 329 -17 q 90 53 151 -17 q 28 256 28 122 q 70 504 28 392 q 190 682 113 617 q 371 747 268 747 q 494 723 446 747 q 571 647 543 699 l 579 647 l 622 731 l 736 731 l 700 532 q 629 139 629 154 m 303 104 q 437 163 383 104 q 514 305 490 221 q 538 465 538 389 q 504 587 538 546 q 399 628 471 628 q 274 576 324 628 q 200 440 224 524 q 176 264 176 357 q 303 104 176 104 m 207 851 q 256 961 218 918 q 356 1004 293 1004 q 402 999 381 1004 q 457 981 424 993 q 506 964 486 969 q 549 958 526 958 q 599 1004 586 958 l 692 1004 q 642 894 681 938 q 542 851 604 851 q 495 857 517 851 q 440 875 474 863 q 391 892 411 886 q 349 897 371 897 q 299 851 311 897 l 207 851 z "},"æ":{"ha":1235,"x_min":-7,"x_max":1179,"o":"m 242 -17 q 67 22 140 -17 q -7 163 -7 60 q 135 378 -7 318 q 525 438 276 438 l 538 510 q 540 542 540 532 q 509 608 540 585 q 404 632 478 632 q 280 603 321 632 q 231 532 239 574 l 228 514 l 90 514 q 133 639 90 586 q 250 719 176 692 q 413 747 324 747 q 650 663 585 747 q 892 747 743 747 q 1106 682 1033 747 q 1179 489 1179 617 q 1168 385 1179 444 l 1157 329 l 653 329 q 647 272 647 301 q 689 142 647 185 q 818 99 731 99 q 942 136 892 99 q 1004 251 992 174 l 1144 251 q 1035 51 1124 119 q 822 -17 947 -17 q 540 103 610 -17 q 242 -17 425 -17 m 1029 438 q 1035 490 1035 456 q 892 632 1035 632 q 672 438 722 632 l 1029 438 m 263 100 q 417 151 347 100 q 499 285 486 201 l 506 329 q 238 297 332 329 q 144 176 144 264 q 174 118 144 136 q 263 100 204 100 z "},"ǽ":{"ha":1235,"x_min":-7,"x_max":1179,"o":"m 0 0 m 242 -17 q 67 22 140 -17 q -7 163 -7 60 q 135 378 -7 318 q 525 438 276 438 l 538 510 q 540 542 540 532 q 509 608 540 585 q 404 632 478 632 q 280 603 321 632 q 231 532 239 574 l 228 514 l 90 514 q 133 639 90 586 q 250 719 176 692 q 413 747 324 747 q 650 663 585 747 q 892 747 743 747 q 1106 682 1033 747 q 1179 489 1179 617 q 1168 385 1179 444 l 1157 329 l 653 329 q 647 272 647 301 q 689 142 647 185 q 818 99 731 99 q 942 136 892 99 q 1004 251 992 174 l 1144 251 q 1035 51 1124 119 q 822 -17 947 -17 q 540 103 610 -17 q 242 -17 425 -17 m 1029 438 q 1035 490 1035 456 q 892 632 1035 632 q 672 438 722 632 l 1029 438 m 263 100 q 417 151 347 100 q 499 285 486 201 l 506 329 q 238 297 332 329 q 144 176 144 264 q 174 118 144 136 q 263 100 204 100 m 632 821 l 781 1004 l 936 1004 l 938 1000 l 763 821 l 632 821 z "},"b":{"ha":796,"x_min":18,"x_max":742,"o":"m 390 -17 q 257 13 314 -17 q 171 97 200 42 l 163 97 l 132 0 l 18 0 l 194 1004 l 338 1004 l 275 647 l 283 647 q 504 747 369 747 q 679 679 617 747 q 742 475 742 611 q 700 228 742 340 q 578 49 658 115 q 390 -17 499 -17 m 358 103 q 535 210 476 103 q 593 468 593 317 q 559 589 593 551 q 451 626 525 626 q 322 574 375 626 q 242 440 268 521 q 215 274 215 360 q 358 103 215 103 z "},"c":{"ha":718,"x_min":28,"x_max":681,"o":"m 324 -17 q 99 52 171 -17 q 28 265 28 121 q 66 501 28 392 q 188 679 104 611 q 400 747 271 747 q 611 685 542 747 q 681 514 681 624 q 676 458 681 488 l 532 458 q 533 497 533 472 q 404 631 533 631 q 258 564 311 631 q 186 389 206 497 q 175 275 175 332 q 210 142 175 183 q 319 100 246 100 q 446 149 399 100 q 507 272 493 197 l 644 272 q 542 62 624 140 q 324 -17 461 -17 z "},"ć":{"ha":718,"x_min":28,"x_max":681,"o":"m 28 0 m 324 -17 q 99 52 171 -17 q 28 265 28 121 q 66 501 28 392 q 188 679 104 611 q 400 747 271 747 q 611 685 542 747 q 681 514 681 624 q 676 458 681 488 l 532 458 q 533 497 533 472 q 404 631 533 631 q 258 564 311 631 q 186 389 206 497 q 175 275 175 332 q 210 142 175 183 q 319 100 246 100 q 446 149 399 100 q 507 272 493 197 l 644 272 q 542 62 624 140 q 324 -17 461 -17 m 365 821 l 514 1004 l 669 1004 l 671 1000 l 496 821 l 365 821 z "},"č":{"ha":718,"x_min":28,"x_max":681,"o":"m 28 0 m 324 -17 q 99 52 171 -17 q 28 265 28 121 q 66 501 28 392 q 188 679 104 611 q 400 747 271 747 q 611 685 542 747 q 681 514 681 624 q 676 458 681 488 l 532 458 q 533 497 533 472 q 404 631 533 631 q 258 564 311 631 q 186 389 206 497 q 175 275 175 332 q 210 142 175 183 q 319 100 246 100 q 446 149 399 100 q 507 272 493 197 l 644 272 q 542 62 624 140 q 324 -17 461 -17 m 364 817 l 250 1004 l 379 1004 l 442 899 l 535 1004 l 676 1004 l 497 817 l 364 817 z "},"ç":{"ha":718,"x_min":28,"x_max":681,"o":"m 532 458 q 533 497 533 472 q 404 631 533 631 q 258 564 311 631 q 186 389 206 497 q 175 275 175 332 q 210 142 175 183 q 319 100 246 100 q 446 149 399 100 q 507 272 493 197 l 644 272 q 546 65 624 143 q 336 -17 468 -12 l 325 -49 q 408 -71 376 -50 q 440 -132 440 -92 q 386 -226 440 -200 q 257 -253 332 -253 q 114 -242 176 -253 l 126 -174 l 260 -174 q 307 -165 290 -174 q 324 -132 324 -156 q 313 -113 324 -119 q 274 -107 301 -107 l 208 -107 l 242 -11 q 80 74 132 6 q 28 265 28 142 q 66 501 28 392 q 188 679 104 611 q 400 747 271 747 q 611 685 542 747 q 681 514 681 624 q 676 458 681 488 l 532 458 z "},"ĉ":{"ha":718,"x_min":28,"x_max":681,"o":"m 28 0 m 324 -17 q 99 52 171 -17 q 28 265 28 121 q 66 501 28 392 q 188 679 104 611 q 400 747 271 747 q 611 685 542 747 q 681 514 681 624 q 676 458 681 488 l 532 458 q 533 497 533 472 q 404 631 533 631 q 258 564 311 631 q 186 389 206 497 q 175 275 175 332 q 210 142 175 183 q 319 100 246 100 q 446 149 399 100 q 507 272 493 197 l 644 272 q 542 62 624 140 q 324 -17 461 -17 m 210 817 l 389 1004 l 522 1004 l 636 817 l 508 817 l 447 922 l 351 817 l 210 817 z "},"ċ":{"ha":718,"x_min":28,"x_max":681,"o":"m 28 0 m 324 -17 q 99 52 171 -17 q 28 265 28 121 q 66 501 28 392 q 188 679 104 611 q 400 747 271 747 q 611 685 542 747 q 681 514 681 624 q 676 458 681 488 l 532 458 q 533 497 533 472 q 404 631 533 631 q 258 564 311 631 q 186 389 206 497 q 175 275 175 332 q 210 142 175 183 q 319 100 246 100 q 446 149 399 100 q 507 272 493 197 l 644 272 q 542 62 624 140 q 324 -17 461 -17 m 367 858 l 393 1004 l 535 1004 l 508 858 l 367 858 z "},"d":{"ha":796,"x_min":28,"x_max":801,"o":"m 281 -17 q 94 54 160 -17 q 28 272 28 125 q 71 512 28 403 q 193 684 114 621 q 375 747 272 747 q 505 722 453 747 q 588 647 557 697 l 596 647 l 658 1004 l 801 1004 l 625 0 l 514 0 l 514 97 l 504 97 q 403 13 461 42 q 281 -17 346 -17 m 322 104 q 451 156 399 104 q 529 291 504 208 q 554 465 554 374 q 518 587 554 546 q 406 628 482 628 q 234 524 292 628 q 176 272 176 419 q 212 144 176 183 q 322 104 247 104 z "},"ð":{"ha":796,"x_min":28,"x_max":761,"o":"m 344 -17 q 107 51 186 -17 q 28 260 28 119 q 58 472 28 374 q 147 636 88 571 q 401 743 246 743 q 521 724 465 743 l 525 726 q 453 843 501 775 l 232 826 l 247 915 l 389 925 q 343 967 368 946 l 308 999 l 313 1004 l 472 1004 q 540 938 515 967 l 761 951 l 744 863 l 611 854 q 740 475 740 676 q 645 123 740 263 q 344 -17 550 -17 m 346 101 q 578 332 532 101 q 590 454 590 399 q 549 584 590 543 q 419 625 507 625 q 265 560 321 625 q 188 388 208 496 q 176 271 176 328 q 217 142 176 183 q 346 101 258 101 z "},"ď":{"ha":908,"x_min":28,"x_max":1017,"o":"m 281 -17 q 94 54 160 -17 q 28 272 28 125 q 71 512 28 403 q 193 684 114 621 q 375 747 272 747 q 505 722 453 747 q 588 647 557 697 l 596 647 l 658 1004 l 801 1004 l 625 0 l 514 0 l 514 97 l 504 97 q 403 13 461 42 q 281 -17 346 -17 m 822 660 l 906 811 l 851 811 l 876 953 l 1017 953 l 994 824 l 897 660 l 822 660 m 322 104 q 451 156 399 104 q 529 291 504 208 q 554 465 554 374 q 518 587 554 546 q 406 628 482 628 q 234 524 292 628 q 176 272 176 419 q 212 144 176 183 q 322 104 247 104 z "},"đ":{"ha":796,"x_min":28,"x_max":876,"o":"m 281 -17 q 94 54 160 -17 q 28 272 28 125 q 71 512 28 403 q 193 684 114 621 q 375 747 272 747 q 505 722 453 747 q 588 647 557 697 l 596 647 l 626 824 l 429 824 l 444 914 l 642 914 l 658 1004 l 801 1004 l 785 914 l 876 914 l 861 824 l 768 824 l 625 0 l 514 0 l 514 97 l 504 97 q 403 13 461 42 q 281 -17 346 -17 m 322 104 q 451 156 399 104 q 529 291 504 208 q 554 465 554 374 q 518 587 554 546 q 406 628 482 628 q 234 524 292 628 q 176 272 176 419 q 212 144 176 183 q 322 104 247 104 z "},"ḍ":{"ha":796,"x_min":28,"x_max":801,"o":"m 28 0 m 281 -17 q 94 54 160 -17 q 28 272 28 125 q 71 512 28 403 q 193 684 114 621 q 375 747 272 747 q 505 722 453 747 q 588 647 557 697 l 596 647 l 658 1004 l 801 1004 l 625 0 l 514 0 l 514 97 l 504 97 q 403 13 461 42 q 281 -17 346 -17 m 322 104 q 451 156 399 104 q 529 291 504 208 q 554 465 554 374 q 518 587 554 546 q 406 628 482 628 q 234 524 292 628 q 176 272 176 419 q 212 144 176 183 q 322 104 247 104 m 222 -240 l 249 -94 l 390 -94 l 364 -240 l 222 -240 z "},"ǳ":{"ha":1490,"x_min":28,"x_max":1497,"o":"m 28 0 m 281 -17 q 94 54 160 -17 q 28 272 28 125 q 71 512 28 403 q 193 684 114 621 q 375 747 272 747 q 505 722 453 747 q 588 647 557 697 l 596 647 l 658 1004 l 801 1004 l 625 0 l 514 0 l 514 97 l 504 97 q 403 13 461 42 q 281 -17 346 -17 m 322 104 q 451 156 399 104 q 529 291 504 208 q 554 465 554 374 q 518 587 554 546 q 406 628 482 628 q 234 524 292 628 q 176 272 176 419 q 212 144 176 183 q 322 104 247 104 m 760 0 l 772 71 l 1257 613 l 893 613 l 914 731 l 1497 731 l 1485 661 l 997 118 l 1408 118 l 1388 0 l 760 0 z "},"ǆ":{"ha":1490,"x_min":28,"x_max":1497,"o":"m 28 0 m 281 -17 q 94 54 160 -17 q 28 272 28 125 q 71 512 28 403 q 193 684 114 621 q 375 747 272 747 q 505 722 453 747 q 588 647 557 697 l 596 647 l 658 1004 l 801 1004 l 625 0 l 514 0 l 514 97 l 504 97 q 403 13 461 42 q 281 -17 346 -17 m 322 104 q 451 156 399 104 q 529 291 504 208 q 554 465 554 374 q 518 587 554 546 q 406 628 482 628 q 234 524 292 628 q 176 272 176 419 q 212 144 176 183 q 322 104 247 104 m 760 0 l 772 71 l 1257 613 l 893 613 l 914 731 l 1497 731 l 1485 661 l 997 118 l 1408 118 l 1388 0 l 760 0 m 1156 817 l 1042 1004 l 1171 1004 l 1233 899 l 1326 1004 l 1468 1004 l 1289 817 l 1156 817 z "},"e":{"ha":772,"x_min":28,"x_max":713,"o":"m 351 -17 q 108 53 188 -17 q 28 268 28 124 q 69 510 28 401 q 199 683 110 618 q 422 747 288 747 q 639 682 565 747 q 713 489 713 617 q 701 385 713 435 l 692 329 l 178 329 q 172 272 172 301 q 215 142 172 185 q 349 99 258 99 q 475 136 424 99 q 539 251 526 174 l 679 251 q 569 51 658 119 q 351 -17 479 -17 m 564 438 q 569 490 569 461 q 422 632 569 632 q 197 438 247 632 l 564 438 z "},"é":{"ha":772,"x_min":28,"x_max":713,"o":"m 28 0 m 351 -17 q 108 53 188 -17 q 28 268 28 124 q 69 510 28 401 q 199 683 110 618 q 422 747 288 747 q 639 682 565 747 q 713 489 713 617 q 701 385 713 435 l 692 329 l 178 329 q 172 272 172 301 q 215 142 172 185 q 349 99 258 99 q 475 136 424 99 q 539 251 526 174 l 679 251 q 569 51 658 119 q 351 -17 479 -17 m 564 438 q 569 490 569 461 q 422 632 569 632 q 197 438 247 632 l 564 438 m 374 821 l 522 1004 l 678 1004 l 679 1000 l 504 821 l 374 821 z "},"ĕ":{"ha":772,"x_min":28,"x_max":713,"o":"m 28 0 m 351 -17 q 108 53 188 -17 q 28 268 28 124 q 69 510 28 401 q 199 683 110 618 q 422 747 288 747 q 639 682 565 747 q 713 489 713 617 q 701 385 713 435 l 692 329 l 178 329 q 172 272 172 301 q 215 142 172 185 q 349 99 258 99 q 475 136 424 99 q 539 251 526 174 l 679 251 q 569 51 658 119 q 351 -17 479 -17 m 564 438 q 569 490 569 461 q 422 632 569 632 q 197 438 247 632 l 564 438 m 440 833 q 292 872 338 833 q 247 971 247 911 q 250 1004 247 993 l 347 1004 q 440 933 347 933 q 529 955 496 933 q 571 1004 563 976 l 668 1004 q 642 936 661 969 q 592 881 622 903 q 440 833 531 833 z "},"ě":{"ha":772,"x_min":28,"x_max":713,"o":"m 28 0 m 351 -17 q 108 53 188 -17 q 28 268 28 124 q 69 510 28 401 q 199 683 110 618 q 422 747 288 747 q 639 682 565 747 q 713 489 713 617 q 701 385 713 435 l 692 329 l 178 329 q 172 272 172 301 q 215 142 172 185 q 349 99 258 99 q 475 136 424 99 q 539 251 526 174 l 679 251 q 569 51 658 119 q 351 -17 479 -17 m 564 438 q 569 490 569 461 q 422 632 569 632 q 197 438 247 632 l 564 438 m 372 817 l 258 1004 l 388 1004 l 450 899 l 543 1004 l 685 1004 l 506 817 l 372 817 z "},"ê":{"ha":772,"x_min":28,"x_max":713,"o":"m 28 0 m 351 -17 q 108 53 188 -17 q 28 268 28 124 q 69 510 28 401 q 199 683 110 618 q 422 747 288 747 q 639 682 565 747 q 713 489 713 617 q 701 385 713 435 l 692 329 l 178 329 q 172 272 172 301 q 215 142 172 185 q 349 99 258 99 q 475 136 424 99 q 539 251 526 174 l 679 251 q 569 51 658 119 q 351 -17 479 -17 m 564 438 q 569 490 569 461 q 422 632 569 632 q 197 438 247 632 l 564 438 m 218 817 l 397 1004 l 531 1004 l 644 817 l 517 817 l 456 922 l 360 817 l 218 817 z "},"ế":{"ha":772,"x_min":28,"x_max":885,"o":"m 28 0 m 351 -17 q 108 53 188 -17 q 28 268 28 124 q 69 510 28 401 q 199 683 110 618 q 422 747 288 747 q 639 682 565 747 q 713 489 713 617 q 701 385 713 435 l 692 329 l 178 329 q 172 272 172 301 q 215 142 172 185 q 349 99 258 99 q 475 136 424 99 q 539 251 526 174 l 679 251 q 569 51 658 119 q 351 -17 479 -17 m 564 438 q 569 490 569 461 q 422 632 569 632 q 197 438 247 632 l 564 438 m 218 817 l 397 1004 l 531 1004 l 644 817 l 517 817 l 456 922 l 360 817 l 218 817 m 579 953 l 728 1136 l 883 1136 l 885 1132 l 710 953 l 579 953 z "},"ệ":{"ha":772,"x_min":28,"x_max":713,"o":"m 28 0 m 351 -17 q 108 53 188 -17 q 28 268 28 124 q 69 510 28 401 q 199 683 110 618 q 422 747 288 747 q 639 682 565 747 q 713 489 713 617 q 701 385 713 435 l 692 329 l 178 329 q 172 272 172 301 q 215 142 172 185 q 349 99 258 99 q 475 136 424 99 q 539 251 526 174 l 679 251 q 569 51 658 119 q 351 -17 479 -17 m 564 438 q 569 490 569 461 q 422 632 569 632 q 197 438 247 632 l 564 438 m 218 817 l 397 1004 l 531 1004 l 644 817 l 517 817 l 456 922 l 360 817 l 218 817 m 210 -240 l 236 -94 l 378 -94 l 351 -240 l 210 -240 z "},"ề":{"ha":772,"x_min":28,"x_max":757,"o":"m 28 0 m 351 -17 q 108 53 188 -17 q 28 268 28 124 q 69 510 28 401 q 199 683 110 618 q 422 747 288 747 q 639 682 565 747 q 713 489 713 617 q 701 385 713 435 l 692 329 l 178 329 q 172 272 172 301 q 215 142 172 185 q 349 99 258 99 q 475 136 424 99 q 539 251 526 174 l 679 251 q 569 51 658 119 q 351 -17 479 -17 m 564 438 q 569 490 569 461 q 422 632 569 632 q 197 438 247 632 l 564 438 m 218 817 l 397 1004 l 531 1004 l 644 817 l 517 817 l 456 922 l 360 817 l 218 817 m 642 953 l 524 1132 l 525 1136 l 672 1136 l 757 953 l 642 953 z "},"ể":{"ha":772,"x_min":28,"x_max":800,"o":"m 28 0 m 351 -17 q 108 53 188 -17 q 28 268 28 124 q 69 510 28 401 q 199 683 110 618 q 422 747 288 747 q 639 682 565 747 q 713 489 713 617 q 701 385 713 435 l 692 329 l 178 329 q 172 272 172 301 q 215 142 172 185 q 349 99 258 99 q 475 136 424 99 q 539 251 526 174 l 679 251 q 569 51 658 119 q 351 -17 479 -17 m 564 438 q 569 490 569 461 q 422 632 569 632 q 197 438 247 632 l 564 438 m 218 817 l 397 1004 l 531 1004 l 644 817 l 517 817 l 456 922 l 360 817 l 218 817 m 618 1035 l 636 1035 q 672 1042 661 1035 q 682 1065 682 1050 q 672 1081 682 1076 q 642 1085 661 1085 l 558 1085 l 568 1142 q 676 1153 619 1153 q 763 1138 726 1153 q 800 1083 800 1122 q 769 1017 800 1040 q 693 990 738 994 l 686 953 l 603 953 l 618 1035 z "},"ễ":{"ha":772,"x_min":28,"x_max":733,"o":"m 28 0 m 351 -17 q 108 53 188 -17 q 28 268 28 124 q 69 510 28 401 q 199 683 110 618 q 422 747 288 747 q 639 682 565 747 q 713 489 713 617 q 701 385 713 435 l 692 329 l 178 329 q 172 272 172 301 q 215 142 172 185 q 349 99 258 99 q 475 136 424 99 q 539 251 526 174 l 679 251 q 569 51 658 119 q 351 -17 479 -17 m 564 438 q 569 490 569 461 q 422 632 569 632 q 197 438 247 632 l 564 438 m 218 817 l 397 1004 l 531 1004 l 644 817 l 517 817 l 456 922 l 360 817 l 218 817 m 249 1074 q 297 1183 260 1140 q 397 1226 335 1226 q 444 1221 422 1226 q 499 1203 465 1215 q 548 1186 528 1192 q 590 1181 568 1181 q 640 1226 628 1181 l 733 1226 q 684 1117 722 1160 q 583 1074 646 1074 q 537 1079 558 1074 q 482 1097 515 1085 q 433 1114 453 1108 q 390 1119 413 1119 q 340 1074 353 1119 l 249 1074 z "},"ȅ":{"ha":772,"x_min":28,"x_max":713,"o":"m 28 0 m 351 -17 q 108 53 188 -17 q 28 268 28 124 q 69 510 28 401 q 199 683 110 618 q 422 747 288 747 q 639 682 565 747 q 713 489 713 617 q 701 385 713 435 l 692 329 l 178 329 q 172 272 172 301 q 215 142 172 185 q 349 99 258 99 q 475 136 424 99 q 539 251 526 174 l 679 251 q 569 51 658 119 q 351 -17 479 -17 m 564 438 q 569 490 569 461 q 422 632 569 632 q 197 438 247 632 l 564 438 m 299 821 l 204 1000 l 207 1004 l 357 1004 l 417 821 l 299 821 m 507 821 l 413 1000 l 415 1004 l 565 1004 l 625 821 l 507 821 z "},"ë":{"ha":772,"x_min":28,"x_max":713,"o":"m 28 0 m 351 -17 q 108 53 188 -17 q 28 268 28 124 q 69 510 28 401 q 199 683 110 618 q 422 747 288 747 q 639 682 565 747 q 713 489 713 617 q 701 385 713 435 l 692 329 l 178 329 q 172 272 172 301 q 215 142 172 185 q 349 99 258 99 q 475 136 424 99 q 539 251 526 174 l 679 251 q 569 51 658 119 q 351 -17 479 -17 m 564 438 q 569 490 569 461 q 422 632 569 632 q 197 438 247 632 l 564 438 m 246 863 l 271 1004 l 406 1004 l 379 863 l 246 863 m 515 863 l 540 1004 l 675 1004 l 650 863 l 515 863 z "},"ė":{"ha":772,"x_min":28,"x_max":713,"o":"m 28 0 m 351 -17 q 108 53 188 -17 q 28 268 28 124 q 69 510 28 401 q 199 683 110 618 q 422 747 288 747 q 639 682 565 747 q 713 489 713 617 q 701 385 713 435 l 692 329 l 178 329 q 172 272 172 301 q 215 142 172 185 q 349 99 258 99 q 475 136 424 99 q 539 251 526 174 l 679 251 q 569 51 658 119 q 351 -17 479 -17 m 564 438 q 569 490 569 461 q 422 632 569 632 q 197 438 247 632 l 564 438 m 375 858 l 401 1004 l 543 1004 l 517 858 l 375 858 z "},"ẹ":{"ha":772,"x_min":28,"x_max":713,"o":"m 28 0 m 351 -17 q 108 53 188 -17 q 28 268 28 124 q 69 510 28 401 q 199 683 110 618 q 422 747 288 747 q 639 682 565 747 q 713 489 713 617 q 701 385 713 435 l 692 329 l 178 329 q 172 272 172 301 q 215 142 172 185 q 349 99 258 99 q 475 136 424 99 q 539 251 526 174 l 679 251 q 569 51 658 119 q 351 -17 479 -17 m 564 438 q 569 490 569 461 q 422 632 569 632 q 197 438 247 632 l 564 438 m 210 -240 l 236 -94 l 378 -94 l 351 -240 l 210 -240 z "},"è":{"ha":772,"x_min":28,"x_max":713,"o":"m 28 0 m 351 -17 q 108 53 188 -17 q 28 268 28 124 q 69 510 28 401 q 199 683 110 618 q 422 747 288 747 q 639 682 565 747 q 713 489 713 617 q 701 385 713 435 l 692 329 l 178 329 q 172 272 172 301 q 215 142 172 185 q 349 99 258 99 q 475 136 424 99 q 539 251 526 174 l 679 251 q 569 51 658 119 q 351 -17 479 -17 m 564 438 q 569 490 569 461 q 422 632 569 632 q 197 438 247 632 l 564 438 m 382 821 l 264 1000 l 265 1004 l 413 1004 l 497 821 l 382 821 z "},"ẻ":{"ha":772,"x_min":28,"x_max":713,"o":"m 28 0 m 351 -17 q 108 53 188 -17 q 28 268 28 124 q 69 510 28 401 q 199 683 110 618 q 422 747 288 747 q 639 682 565 747 q 713 489 713 617 q 701 385 713 435 l 692 329 l 178 329 q 172 272 172 301 q 215 142 172 185 q 349 99 258 99 q 475 136 424 99 q 539 251 526 174 l 679 251 q 569 51 658 119 q 351 -17 479 -17 m 564 438 q 569 490 569 461 q 422 632 569 632 q 197 438 247 632 l 564 438 m 414 903 l 432 903 q 467 910 457 903 q 478 933 478 918 q 467 949 478 944 q 438 953 457 953 l 354 953 l 364 1010 q 472 1021 415 1021 q 559 1006 522 1021 q 596 951 596 990 q 565 885 596 908 q 489 858 533 863 l 482 821 l 399 821 l 414 903 z "},"ȇ":{"ha":772,"x_min":28,"x_max":713,"o":"m 28 0 m 351 -17 q 108 53 188 -17 q 28 268 28 124 q 69 510 28 401 q 199 683 110 618 q 422 747 288 747 q 639 682 565 747 q 713 489 713 617 q 701 385 713 435 l 692 329 l 178 329 q 172 272 172 301 q 215 142 172 185 q 349 99 258 99 q 475 136 424 99 q 539 251 526 174 l 679 251 q 569 51 658 119 q 351 -17 479 -17 m 564 438 q 569 490 569 461 q 422 632 569 632 q 197 438 247 632 l 564 438 m 232 833 q 299 956 244 907 q 471 1004 354 1004 q 607 962 561 1004 q 653 858 653 919 q 650 833 653 850 l 553 833 q 531 883 554 861 q 453 904 508 904 q 369 883 399 904 q 329 833 340 861 l 232 833 z "},"ē":{"ha":772,"x_min":28,"x_max":713,"o":"m 28 0 m 351 -17 q 108 53 188 -17 q 28 268 28 124 q 69 510 28 401 q 199 683 110 618 q 422 747 288 747 q 639 682 565 747 q 713 489 713 617 q 701 385 713 435 l 692 329 l 178 329 q 172 272 172 301 q 215 142 172 185 q 349 99 258 99 q 475 136 424 99 q 539 251 526 174 l 679 251 q 569 51 658 119 q 351 -17 479 -17 m 564 438 q 569 490 569 461 q 422 632 569 632 q 197 438 247 632 l 564 438 m 238 864 l 256 971 l 679 971 l 661 864 l 238 864 z "},"ę":{"ha":772,"x_min":28,"x_max":713,"o":"m 500 -253 q 412 -226 447 -253 q 376 -139 376 -199 q 424 -11 376 -71 q 351 -17 376 -17 q 108 53 188 -17 q 28 268 28 124 q 69 510 28 401 q 199 683 110 618 q 422 747 288 747 q 639 682 565 747 q 713 489 713 617 q 701 385 713 444 l 692 329 l 178 329 q 172 272 172 301 q 215 142 172 185 q 349 99 258 99 q 475 136 424 99 q 539 251 526 174 l 679 251 q 645 144 669 189 q 579 63 621 100 q 526 -12 546 29 q 506 -92 506 -54 q 522 -142 506 -122 q 568 -161 538 -161 l 606 -161 l 593 -233 q 500 -253 542 -253 m 564 438 q 569 490 569 461 q 422 632 569 632 q 197 438 247 632 l 564 438 z "},"ẽ":{"ha":772,"x_min":28,"x_max":713,"o":"m 28 0 m 351 -17 q 108 53 188 -17 q 28 268 28 124 q 69 510 28 401 q 199 683 110 618 q 422 747 288 747 q 639 682 565 747 q 713 489 713 617 q 701 385 713 435 l 692 329 l 178 329 q 172 272 172 301 q 215 142 172 185 q 349 99 258 99 q 475 136 424 99 q 539 251 526 174 l 679 251 q 569 51 658 119 q 351 -17 479 -17 m 564 438 q 569 490 569 461 q 422 632 569 632 q 197 438 247 632 l 564 438 m 215 851 q 264 961 226 918 q 364 1004 301 1004 q 410 999 389 1004 q 465 981 432 993 q 515 964 494 969 q 557 958 535 958 q 607 1004 594 958 l 700 1004 q 651 894 689 938 q 550 851 613 851 q 503 857 525 851 q 449 875 482 863 q 399 892 419 886 q 357 897 379 897 q 307 851 319 897 l 215 851 z "},"f":{"ha":410,"x_min":-139,"x_max":494,"o":"m -28 -253 q -88 -247 -57 -253 q -139 -235 -119 -242 l -121 -135 l -50 -135 q 25 -71 14 -135 l 146 613 l 40 613 l 61 731 l 167 731 l 186 838 q 244 966 200 917 q 383 1015 289 1015 q 443 1010 413 1015 q 494 997 474 1006 l 476 897 l 404 897 q 329 833 340 897 l 310 731 l 447 731 l 426 613 l 289 613 l 168 -75 q 110 -203 154 -154 q -28 -253 67 -253 z "},"g":{"ha":796,"x_min":-4,"x_max":751,"o":"m 275 -253 q 72 -201 147 -253 q -4 -49 -3 -149 l -4 -35 l 135 -35 q 275 -136 140 -136 q 494 82 453 -136 l 501 115 l 493 115 q 271 15 404 15 q 94 80 160 15 q 29 274 29 144 q 72 514 29 406 q 193 685 114 622 q 379 747 272 747 q 513 718 456 747 q 599 633 569 689 l 607 633 l 638 731 l 751 731 l 638 88 q 519 -169 607 -85 q 275 -253 431 -253 m 324 136 q 452 185 400 136 q 530 310 504 233 q 556 469 556 386 q 413 626 556 626 q 236 526 294 626 q 178 281 178 426 q 213 170 178 204 q 324 136 247 136 z "},"ǵ":{"ha":796,"x_min":-4,"x_max":751,"o":"m 0 0 m 275 -253 q 72 -201 147 -253 q -4 -49 -3 -149 l -4 -35 l 135 -35 q 275 -136 140 -136 q 494 82 453 -136 l 501 115 l 493 115 q 271 15 404 15 q 94 80 160 15 q 29 274 29 144 q 72 514 29 406 q 193 685 114 622 q 379 747 272 747 q 513 718 456 747 q 599 633 569 689 l 607 633 l 638 731 l 751 731 l 638 88 q 519 -169 607 -85 q 275 -253 431 -253 m 324 136 q 452 185 400 136 q 530 310 504 233 q 556 469 556 386 q 413 626 556 626 q 236 526 294 626 q 178 281 178 426 q 213 170 178 204 q 324 136 247 136 m 371 821 l 519 1004 l 675 1004 l 676 1000 l 501 821 l 371 821 z "},"ğ":{"ha":796,"x_min":-4,"x_max":751,"o":"m 0 0 m 275 -253 q 72 -201 147 -253 q -4 -49 -3 -149 l -4 -35 l 135 -35 q 275 -136 140 -136 q 494 82 453 -136 l 501 115 l 493 115 q 271 15 404 15 q 94 80 160 15 q 29 274 29 144 q 72 514 29 406 q 193 685 114 622 q 379 747 272 747 q 513 718 456 747 q 599 633 569 689 l 607 633 l 638 731 l 751 731 l 638 88 q 519 -169 607 -85 q 275 -253 431 -253 m 324 136 q 452 185 400 136 q 530 310 504 233 q 556 469 556 386 q 413 626 556 626 q 236 526 294 626 q 178 281 178 426 q 213 170 178 204 q 324 136 247 136 m 438 833 q 290 872 335 833 q 244 971 244 911 q 247 1004 244 993 l 344 1004 q 438 933 344 933 q 526 955 493 933 q 568 1004 560 976 l 665 1004 q 639 936 658 969 q 589 881 619 903 q 438 833 528 833 z "},"ǧ":{"ha":796,"x_min":-4,"x_max":751,"o":"m 0 0 m 275 -253 q 72 -201 147 -253 q -4 -49 -3 -149 l -4 -35 l 135 -35 q 275 -136 140 -136 q 494 82 453 -136 l 501 115 l 493 115 q 271 15 404 15 q 94 80 160 15 q 29 274 29 144 q 72 514 29 406 q 193 685 114 622 q 379 747 272 747 q 513 718 456 747 q 599 633 569 689 l 607 633 l 638 731 l 751 731 l 638 88 q 519 -169 607 -85 q 275 -253 431 -253 m 324 136 q 452 185 400 136 q 530 310 504 233 q 556 469 556 386 q 413 626 556 626 q 236 526 294 626 q 178 281 178 426 q 213 170 178 204 q 324 136 247 136 m 369 817 l 256 1004 l 385 1004 l 447 899 l 540 1004 l 682 1004 l 503 817 l 369 817 z "},"ĝ":{"ha":796,"x_min":-4,"x_max":751,"o":"m 0 0 m 275 -253 q 72 -201 147 -253 q -4 -49 -3 -149 l -4 -35 l 135 -35 q 275 -136 140 -136 q 494 82 453 -136 l 501 115 l 493 115 q 271 15 404 15 q 94 80 160 15 q 29 274 29 144 q 72 514 29 406 q 193 685 114 622 q 379 747 272 747 q 513 718 456 747 q 599 633 569 689 l 607 633 l 638 731 l 751 731 l 638 88 q 519 -169 607 -85 q 275 -253 431 -253 m 324 136 q 452 185 400 136 q 530 310 504 233 q 556 469 556 386 q 413 626 556 626 q 236 526 294 626 q 178 281 178 426 q 213 170 178 204 q 324 136 247 136 m 215 817 l 394 1004 l 528 1004 l 642 817 l 514 817 l 453 922 l 357 817 l 215 817 z "},"ģ":{"ha":796,"x_min":-4,"x_max":751,"o":"m 368 835 l 389 953 l 482 1083 l 558 1083 l 478 964 l 535 964 l 511 835 l 368 835 m 275 -253 q 72 -201 147 -253 q -4 -49 -3 -149 l -4 -35 l 135 -35 q 275 -136 140 -136 q 494 82 453 -136 l 501 115 l 493 115 q 271 15 404 15 q 94 80 160 15 q 29 274 29 144 q 72 514 29 406 q 193 685 114 622 q 379 747 272 747 q 513 718 456 747 q 599 633 569 689 l 607 633 l 638 731 l 751 731 l 638 88 q 519 -169 607 -85 q 275 -253 431 -253 m 324 136 q 452 185 400 136 q 530 310 504 233 q 556 469 556 386 q 413 626 556 626 q 236 526 294 626 q 178 281 178 426 q 213 170 178 204 q 324 136 247 136 z "},"ġ":{"ha":796,"x_min":-4,"x_max":751,"o":"m 0 0 m 275 -253 q 72 -201 147 -253 q -4 -49 -3 -149 l -4 -35 l 135 -35 q 275 -136 140 -136 q 494 82 453 -136 l 501 115 l 493 115 q 271 15 404 15 q 94 80 160 15 q 29 274 29 144 q 72 514 29 406 q 193 685 114 622 q 379 747 272 747 q 513 718 456 747 q 599 633 569 689 l 607 633 l 638 731 l 751 731 l 638 88 q 519 -169 607 -85 q 275 -253 431 -253 m 324 136 q 452 185 400 136 q 530 310 504 233 q 556 469 556 386 q 413 626 556 626 q 236 526 294 626 q 178 281 178 426 q 213 170 178 204 q 324 136 247 136 m 372 858 l 399 1004 l 540 1004 l 514 858 l 372 858 z "},"h":{"ha":796,"x_min":19,"x_max":724,"o":"m 196 1004 l 339 1004 l 276 647 l 283 647 q 386 719 326 692 q 508 747 446 747 q 724 568 724 747 q 713 469 724 528 l 631 0 l 488 0 l 568 460 q 575 532 575 504 q 548 603 575 582 q 471 625 521 625 q 320 566 388 625 q 235 407 253 507 l 163 0 l 19 0 l 196 1004 z "},"ħ":{"ha":796,"x_min":19,"x_max":724,"o":"m 164 824 l 75 824 l 92 914 l 179 914 l 196 1004 l 339 1004 l 324 914 l 524 914 l 507 824 l 307 824 l 276 647 l 283 647 q 386 719 326 692 q 508 747 446 747 q 724 568 724 747 q 713 469 724 528 l 631 0 l 488 0 l 568 460 q 575 532 575 504 q 548 603 575 582 q 471 625 521 625 q 320 566 388 625 q 235 407 253 507 l 163 0 l 19 0 l 164 824 z "},"ĥ":{"ha":796,"x_min":19,"x_max":724,"o":"m 19 0 m 196 1004 l 339 1004 l 276 647 l 283 647 q 386 719 326 692 q 508 747 446 747 q 724 568 724 747 q 713 469 724 528 l 631 0 l 488 0 l 568 460 q 575 532 575 504 q 548 603 575 582 q 471 625 521 625 q 320 566 388 625 q 235 407 253 507 l 163 0 l 19 0 l 196 1004 m 53 1039 l 232 1226 l 365 1226 l 479 1039 l 351 1039 l 290 1144 l 194 1039 l 53 1039 z "},"ḥ":{"ha":796,"x_min":19,"x_max":724,"o":"m 19 0 m 196 1004 l 339 1004 l 276 647 l 283 647 q 386 719 326 692 q 508 747 446 747 q 724 568 724 747 q 713 469 724 528 l 631 0 l 488 0 l 568 460 q 575 532 575 504 q 548 603 575 582 q 471 625 521 625 q 320 566 388 625 q 235 407 253 507 l 163 0 l 19 0 l 196 1004 m 222 -240 l 249 -94 l 390 -94 l 364 -240 l 222 -240 z "},"i":{"ha":332,"x_min":18,"x_max":338,"o":"m 168 857 l 194 1004 l 338 1004 l 311 857 l 168 857 m 18 0 l 147 731 l 290 731 l 161 0 l 18 0 z "},"ı":{"ha":386,"x_min":39,"x_max":311,"o":"m 39 0 l 168 731 l 311 731 l 182 0 l 39 0 z "},"í":{"ha":386,"x_min":39,"x_max":479,"o":"m 174 821 l 322 1004 l 478 1004 l 479 1000 l 297 821 l 174 821 m 39 0 l 168 731 l 311 731 l 182 0 l 39 0 z "},"ĭ":{"ha":386,"x_min":39,"x_max":485,"o":"m 39 0 m 39 0 l 168 731 l 311 731 l 182 0 l 39 0 m 257 833 q 109 872 154 833 q 64 971 64 911 q 67 1004 64 993 l 164 1004 q 257 933 164 933 q 346 955 313 933 q 388 1004 379 976 l 485 1004 q 458 936 478 969 q 408 881 439 903 q 257 833 347 833 z "},"ǐ":{"ha":386,"x_min":39,"x_max":501,"o":"m 39 0 m 39 0 l 168 731 l 311 731 l 182 0 l 39 0 m 189 817 l 75 1004 l 204 1004 l 267 899 l 360 1004 l 501 1004 l 322 817 l 189 817 z "},"î":{"ha":386,"x_min":31,"x_max":456,"o":"m 31 817 l 208 1004 l 342 1004 l 456 817 l 328 817 l 267 922 l 171 817 l 31 817 m 39 0 l 168 731 l 311 731 l 182 0 l 39 0 z "},"ȉ":{"ha":386,"x_min":21,"x_max":442,"o":"m 21 0 m 39 0 l 168 731 l 311 731 l 182 0 l 39 0 m 115 821 l 21 1000 l 24 1004 l 174 1004 l 233 821 l 115 821 m 324 821 l 229 1000 l 232 1004 l 382 1004 l 442 821 l 324 821 z "},"ï":{"ha":386,"x_min":39,"x_max":482,"o":"m 53 863 l 78 1004 l 211 1004 l 186 863 l 53 863 m 322 863 l 347 1004 l 482 1004 l 457 863 l 322 863 m 39 0 l 168 731 l 311 731 l 182 0 l 39 0 z "},"ị":{"ha":332,"x_min":-22,"x_max":338,"o":"m 0 0 m 168 857 l 194 1004 l 338 1004 l 311 857 l 168 857 m 18 0 l 147 731 l 290 731 l 161 0 l 18 0 m -22 -240 l 4 -94 l 146 -94 l 119 -240 l -22 -240 z "},"ì":{"ha":386,"x_min":39,"x_max":318,"o":"m 204 821 l 86 1000 l 88 1004 l 233 1004 l 318 821 l 204 821 m 39 0 l 168 731 l 311 731 l 182 0 l 39 0 z "},"ỉ":{"ha":386,"x_min":39,"x_max":413,"o":"m 39 0 m 39 0 l 168 731 l 311 731 l 182 0 l 39 0 m 231 903 l 249 903 q 284 910 274 903 q 294 933 294 918 q 284 949 294 944 q 254 953 274 953 l 171 953 l 181 1010 q 289 1021 232 1021 q 376 1006 339 1021 q 413 951 413 990 q 381 885 413 908 q 306 858 350 863 l 299 821 l 215 821 l 231 903 z "},"ȋ":{"ha":386,"x_min":39,"x_max":469,"o":"m 39 0 m 39 0 l 168 731 l 311 731 l 182 0 l 39 0 m 49 833 q 116 956 61 907 q 288 1004 171 1004 q 424 962 378 1004 q 469 858 469 919 q 467 833 469 850 l 369 833 q 348 883 371 861 q 269 904 325 904 q 186 883 215 904 q 146 833 157 861 l 49 833 z "},"ĳ":{"ha":664,"x_min":18,"x_max":669,"o":"m 18 0 m 168 857 l 194 1004 l 338 1004 l 311 857 l 168 857 m 18 0 l 147 731 l 290 731 l 161 0 l 18 0 m 500 857 l 526 1004 l 669 1004 l 643 857 l 500 857 m 289 -253 q 182 -235 236 -253 l 199 -139 l 263 -139 q 336 -74 325 -139 l 479 731 l 622 731 l 479 -76 q 423 -204 465 -156 q 289 -253 381 -253 z "},"ī":{"ha":386,"x_min":39,"x_max":486,"o":"m 43 888 l 63 994 l 486 994 l 467 888 l 43 888 m 39 0 l 168 731 l 311 731 l 182 0 l 39 0 z "},"į":{"ha":386,"x_min":-57,"x_max":360,"o":"m 218 1004 l 360 1004 l 333 858 l 192 858 l 218 1004 m 168 731 l 311 731 l 182 0 l 140 0 q 92 -53 113 -22 q 72 -117 72 -83 q 87 -156 72 -140 q 132 -172 101 -172 l 172 -172 l 160 -244 q 67 -264 108 -264 q -21 -239 15 -264 q -57 -160 -57 -214 q -31 -71 -57 -108 q 40 0 -4 -33 l 39 0 l 168 731 z "},"ĩ":{"ha":386,"x_min":15,"x_max":500,"o":"m 15 851 q 64 961 26 918 q 163 1004 101 1004 q 211 998 189 1004 q 265 981 233 992 q 315 964 294 969 q 357 958 335 958 q 407 1004 394 958 l 500 1004 q 450 894 488 938 q 350 851 413 851 q 303 857 325 851 q 249 875 282 863 q 199 892 219 886 q 157 897 179 897 q 107 851 119 897 l 15 851 m 39 0 l 168 731 l 311 731 l 182 0 l 39 0 z "},"j":{"ha":332,"x_min":-150,"x_max":338,"o":"m 168 857 l 194 1004 l 338 1004 l 311 857 l 168 857 m -43 -253 q -150 -235 -96 -253 l -133 -139 l -69 -139 q 4 -74 -7 -139 l 147 731 l 290 731 l 147 -76 q 91 -204 133 -156 q -43 -253 49 -253 z "},"ȷ":{"ha":332,"x_min":-150,"x_max":290,"o":"m -43 -253 q -150 -235 -96 -253 l -133 -139 l -69 -139 q 4 -74 -7 -139 l 147 731 l 290 731 l 147 -76 q 91 -204 133 -156 q -43 -253 49 -253 z "},"ĵ":{"ha":332,"x_min":-150,"x_max":432,"o":"m 7 817 l 185 1004 l 318 1004 l 432 817 l 304 817 l 243 922 l 147 817 l 7 817 m -43 -253 q -150 -235 -96 -253 l -133 -139 l -69 -139 q 4 -74 -7 -139 l 147 731 l 290 731 l 147 -76 q 91 -204 133 -156 q -43 -253 49 -253 z "},"k":{"ha":718,"x_min":18,"x_max":751,"o":"m 18 0 l 194 1004 l 338 1004 l 231 397 l 579 731 l 751 731 l 453 443 l 636 0 l 481 0 l 351 344 l 200 224 l 161 0 l 18 0 z "},"ķ":{"ha":718,"x_min":18,"x_max":751,"o":"m 18 0 m 18 0 l 194 1004 l 338 1004 l 231 397 l 579 731 l 751 731 l 453 443 l 636 0 l 481 0 l 351 344 l 200 224 l 161 0 l 18 0 m 192 -319 l 269 -203 l 214 -203 l 238 -72 l 381 -72 l 360 -190 l 268 -319 l 192 -319 z "},"ĸ":{"ha":718,"x_min":18,"x_max":751,"o":"m 18 0 l 146 731 l 289 731 l 231 397 l 579 731 l 751 731 l 453 443 l 636 0 l 481 0 l 351 344 l 200 224 l 161 0 l 18 0 z "},"l":{"ha":332,"x_min":18,"x_max":338,"o":"m 18 0 l 194 1004 l 338 1004 l 161 0 l 18 0 z "},"ĺ":{"ha":332,"x_min":18,"x_max":519,"o":"m 18 0 m 18 0 l 194 1004 l 338 1004 l 161 0 l 18 0 m 214 1043 l 363 1226 l 518 1226 l 519 1222 l 344 1043 l 214 1043 z "},"ľ":{"ha":444,"x_min":18,"x_max":551,"o":"m 18 0 l 194 1004 l 338 1004 l 161 0 l 18 0 m 357 660 l 439 811 l 386 811 l 411 953 l 551 953 l 528 824 l 432 660 l 357 660 z "},"ļ":{"ha":332,"x_min":-39,"x_max":338,"o":"m 0 0 m 18 0 l 194 1004 l 338 1004 l 161 0 l 18 0 m -39 -319 l 39 -203 l -17 -203 l 7 -72 l 150 -72 l 129 -190 l 38 -319 l -39 -319 z "},"ŀ":{"ha":429,"x_min":18,"x_max":489,"o":"m 18 0 m 18 0 l 194 1004 l 338 1004 l 161 0 l 18 0 m 304 415 l 333 578 l 489 578 l 460 415 l 304 415 z "},"ǉ":{"ha":664,"x_min":18,"x_max":669,"o":"m 18 0 m 18 0 l 194 1004 l 338 1004 l 161 0 l 18 0 m 500 857 l 526 1004 l 669 1004 l 643 857 l 500 857 m 289 -253 q 182 -235 236 -253 l 199 -139 l 263 -139 q 336 -74 325 -139 l 479 731 l 622 731 l 479 -76 q 423 -204 465 -156 q 289 -253 381 -253 z "},"ł":{"ha":332,"x_min":-18,"x_max":378,"o":"m 22 0 l 89 379 l -18 304 l 3 422 l 108 497 l 199 1004 l 342 1004 l 271 607 l 378 681 l 357 563 l 251 489 l 165 0 l 22 0 z "},"m":{"ha":1181,"x_min":19,"x_max":1113,"o":"m 149 731 l 260 731 l 260 632 l 269 632 q 372 717 314 688 q 496 747 429 747 q 613 719 567 747 q 675 632 660 692 l 685 632 q 791 717 729 686 q 918 747 853 747 q 1113 578 1113 747 q 1104 499 1113 543 l 1015 0 l 872 0 l 957 479 q 963 531 963 518 q 938 603 963 582 q 867 625 913 625 q 737 567 794 625 q 663 413 679 508 l 589 0 l 446 0 l 531 479 q 536 532 536 518 q 512 604 536 583 q 443 625 488 625 q 312 567 371 625 q 236 413 253 508 l 163 0 l 19 0 l 149 731 z "},"n":{"ha":796,"x_min":19,"x_max":724,"o":"m 149 731 l 260 731 l 260 632 l 269 632 q 376 715 311 683 q 508 747 440 747 q 724 568 724 747 q 713 469 724 528 l 631 0 l 488 0 l 568 460 q 575 532 575 504 q 548 603 575 582 q 471 625 521 625 q 320 566 388 625 q 235 407 253 507 l 163 0 l 19 0 l 149 731 z "},"ń":{"ha":796,"x_min":19,"x_max":724,"o":"m 19 0 m 149 731 l 260 731 l 260 632 l 269 632 q 376 715 311 683 q 508 747 440 747 q 724 568 724 747 q 713 469 724 528 l 631 0 l 488 0 l 568 460 q 575 532 575 504 q 548 603 575 582 q 471 625 521 625 q 320 566 388 625 q 235 407 253 507 l 163 0 l 19 0 l 149 731 m 413 821 l 561 1004 l 717 1004 l 718 1000 l 543 821 l 413 821 z "},"ŉ":{"ha":883,"x_min":39,"x_max":811,"o":"m 39 660 l 119 811 l 67 811 l 90 953 l 232 953 l 208 824 l 113 660 l 39 660 m 236 731 l 347 731 l 347 632 l 357 632 q 463 715 399 683 q 596 747 528 747 q 811 568 811 747 q 800 469 811 528 l 718 0 l 575 0 l 656 460 q 663 532 663 504 q 635 603 663 582 q 558 625 608 625 q 408 566 475 625 q 322 407 340 507 l 250 0 l 107 0 l 236 731 z "},"ň":{"ha":796,"x_min":19,"x_max":724,"o":"m 19 0 m 149 731 l 260 731 l 260 632 l 269 632 q 376 715 311 683 q 508 747 440 747 q 724 568 724 747 q 713 469 724 528 l 631 0 l 488 0 l 568 460 q 575 532 575 504 q 548 603 575 582 q 471 625 521 625 q 320 566 388 625 q 235 407 253 507 l 163 0 l 19 0 l 149 731 m 411 817 l 297 1004 l 426 1004 l 489 899 l 582 1004 l 724 1004 l 544 817 l 411 817 z "},"ņ":{"ha":796,"x_min":19,"x_max":724,"o":"m 19 0 m 149 731 l 260 731 l 260 632 l 269 632 q 376 715 311 683 q 508 747 440 747 q 724 568 724 747 q 713 469 724 528 l 631 0 l 488 0 l 568 460 q 575 532 575 504 q 548 603 575 582 q 471 625 521 625 q 320 566 388 625 q 235 407 253 507 l 163 0 l 19 0 l 149 731 m 206 -319 l 283 -203 l 228 -203 l 251 -72 l 394 -72 l 374 -190 l 282 -319 l 206 -319 z "},"ṅ":{"ha":796,"x_min":19,"x_max":724,"o":"m 19 0 m 149 731 l 260 731 l 260 632 l 269 632 q 376 715 311 683 q 508 747 440 747 q 724 568 724 747 q 713 469 724 528 l 631 0 l 488 0 l 568 460 q 575 532 575 504 q 548 603 575 582 q 471 625 521 625 q 320 566 388 625 q 235 407 253 507 l 163 0 l 19 0 l 149 731 m 414 858 l 440 1004 l 582 1004 l 556 858 l 414 858 z "},"ŋ":{"ha":796,"x_min":19,"x_max":724,"o":"m 426 -253 q 319 -235 374 -253 l 336 -139 l 400 -139 q 474 -74 463 -139 l 568 460 q 575 532 575 504 q 548 603 575 582 q 471 625 521 625 q 320 566 388 625 q 235 407 253 507 l 163 0 l 19 0 l 149 731 l 260 731 l 260 632 l 269 632 q 376 715 311 683 q 508 747 440 747 q 724 568 724 747 q 713 469 724 528 l 617 -76 q 560 -204 603 -156 q 426 -253 518 -253 z "},"ɲ":{"ha":796,"x_min":-149,"x_max":724,"o":"m -40 -253 q -97 -247 -67 -253 q -149 -235 -128 -242 l -132 -139 l -67 -139 q 7 -74 -4 -139 l 149 731 l 260 731 l 260 632 l 269 632 q 376 715 311 683 q 508 747 440 747 q 724 568 724 747 q 713 469 724 528 l 631 0 l 488 0 l 568 460 q 575 532 575 504 q 548 603 575 582 q 471 625 521 625 q 320 566 388 625 q 235 407 253 507 l 149 -76 q 92 -204 135 -156 q -40 -253 50 -253 z "},"ǌ":{"ha":1128,"x_min":19,"x_max":1133,"o":"m 19 0 m 149 731 l 260 731 l 260 632 l 269 632 q 376 715 311 683 q 508 747 440 747 q 724 568 724 747 q 713 469 724 528 l 631 0 l 488 0 l 568 460 q 575 532 575 504 q 548 603 575 582 q 471 625 521 625 q 320 566 388 625 q 235 407 253 507 l 163 0 l 19 0 l 149 731 m 964 857 l 990 1004 l 1133 1004 l 1107 857 l 964 857 m 753 -253 q 646 -235 700 -253 l 663 -139 l 726 -139 q 800 -74 789 -139 l 943 731 l 1086 731 l 943 -76 q 887 -204 929 -156 q 753 -253 844 -253 z "},"ñ":{"ha":796,"x_min":19,"x_max":739,"o":"m 19 0 m 149 731 l 260 731 l 260 632 l 269 632 q 376 715 311 683 q 508 747 440 747 q 724 568 724 747 q 713 469 724 528 l 631 0 l 488 0 l 568 460 q 575 532 575 504 q 548 603 575 582 q 471 625 521 625 q 320 566 388 625 q 235 407 253 507 l 163 0 l 19 0 l 149 731 m 254 851 q 303 961 265 918 q 403 1004 340 1004 q 449 999 428 1004 q 504 981 471 993 q 553 964 533 969 q 596 958 574 958 q 646 1004 633 958 l 739 1004 q 690 894 728 938 q 589 851 651 851 q 542 857 564 851 q 488 875 521 863 q 438 892 458 886 q 396 897 418 897 q 346 851 358 897 l 254 851 z "},"o":{"ha":796,"x_min":32,"x_max":736,"o":"m 340 -17 q 116 62 199 -17 q 32 276 33 140 q 39 385 32 319 q 425 747 96 747 q 651 669 568 747 q 736 457 735 592 q 726 346 736 417 q 340 -17 672 -17 m 344 103 q 510 166 451 103 q 588 369 568 229 q 594 465 594 428 q 547 587 592 544 q 418 629 503 629 q 256 565 314 629 q 179 361 199 500 q 172 265 172 318 q 219 145 175 188 q 344 103 263 103 z "},"ó":{"ha":796,"x_min":32,"x_max":736,"o":"m 32 0 m 340 -17 q 116 62 199 -17 q 32 276 33 140 q 39 385 32 319 q 425 747 96 747 q 651 669 568 747 q 736 457 735 592 q 726 346 736 417 q 340 -17 672 -17 m 344 103 q 510 166 451 103 q 588 369 568 229 q 594 465 594 428 q 547 587 592 544 q 418 629 503 629 q 256 565 314 629 q 179 361 199 500 q 172 265 172 318 q 219 145 175 188 q 344 103 263 103 m 378 821 l 526 1004 l 682 1004 l 683 1000 l 508 821 l 378 821 z "},"ŏ":{"ha":796,"x_min":32,"x_max":736,"o":"m 32 0 m 340 -17 q 116 62 199 -17 q 32 276 33 140 q 39 385 32 319 q 425 747 96 747 q 651 669 568 747 q 736 457 735 592 q 726 346 736 417 q 340 -17 672 -17 m 344 103 q 510 166 451 103 q 588 369 568 229 q 594 465 594 428 q 547 587 592 544 q 418 629 503 629 q 256 565 314 629 q 179 361 199 500 q 172 265 172 318 q 219 145 175 188 q 344 103 263 103 m 444 833 q 297 872 342 833 q 251 971 251 911 q 254 1004 251 993 l 351 1004 q 444 933 351 933 q 533 955 500 933 q 575 1004 567 976 l 672 1004 q 646 936 665 969 q 596 881 626 903 q 444 833 535 833 z "},"ǒ":{"ha":796,"x_min":32,"x_max":736,"o":"m 32 0 m 340 -17 q 116 62 199 -17 q 32 276 33 140 q 39 385 32 319 q 425 747 96 747 q 651 669 568 747 q 736 457 735 592 q 726 346 736 417 q 340 -17 672 -17 m 344 103 q 510 166 451 103 q 588 369 568 229 q 594 465 594 428 q 547 587 592 544 q 418 629 503 629 q 256 565 314 629 q 179 361 199 500 q 172 265 172 318 q 219 145 175 188 q 344 103 263 103 m 376 817 l 263 1004 l 392 1004 l 454 899 l 547 1004 l 689 1004 l 510 817 l 376 817 z "},"ô":{"ha":796,"x_min":32,"x_max":736,"o":"m 32 0 m 340 -17 q 116 62 199 -17 q 32 276 33 140 q 39 385 32 319 q 425 747 96 747 q 651 669 568 747 q 736 457 735 592 q 726 346 736 417 q 340 -17 672 -17 m 344 103 q 510 166 451 103 q 588 369 568 229 q 594 465 594 428 q 547 587 592 544 q 418 629 503 629 q 256 565 314 629 q 179 361 199 500 q 172 265 172 318 q 219 145 175 188 q 344 103 263 103 m 222 817 l 401 1004 l 535 1004 l 649 817 l 521 817 l 460 922 l 364 817 l 222 817 z "},"ố":{"ha":796,"x_min":32,"x_max":889,"o":"m 32 0 m 340 -17 q 116 62 199 -17 q 32 276 33 140 q 39 385 32 319 q 425 747 96 747 q 651 669 568 747 q 736 457 735 592 q 726 346 736 417 q 340 -17 672 -17 m 344 103 q 510 166 451 103 q 588 369 568 229 q 594 465 594 428 q 547 587 592 544 q 418 629 503 629 q 256 565 314 629 q 179 361 199 500 q 172 265 172 318 q 219 145 175 188 q 344 103 263 103 m 222 817 l 401 1004 l 535 1004 l 649 817 l 521 817 l 460 922 l 364 817 l 222 817 m 583 953 l 732 1136 l 888 1136 l 889 1132 l 714 953 l 583 953 z "},"ộ":{"ha":796,"x_min":32,"x_max":736,"o":"m 32 0 m 340 -17 q 116 62 199 -17 q 32 276 33 140 q 39 385 32 319 q 425 747 96 747 q 651 669 568 747 q 736 457 735 592 q 726 346 736 417 q 340 -17 672 -17 m 344 103 q 510 166 451 103 q 588 369 568 229 q 594 465 594 428 q 547 587 592 544 q 418 629 503 629 q 256 565 314 629 q 179 361 199 500 q 172 265 172 318 q 219 145 175 188 q 344 103 263 103 m 222 817 l 401 1004 l 535 1004 l 649 817 l 521 817 l 460 922 l 364 817 l 222 817 m 222 -240 l 249 -94 l 390 -94 l 364 -240 l 222 -240 z "},"ồ":{"ha":796,"x_min":32,"x_max":761,"o":"m 32 0 m 340 -17 q 116 62 199 -17 q 32 276 33 140 q 39 385 32 319 q 425 747 96 747 q 651 669 568 747 q 736 457 735 592 q 726 346 736 417 q 340 -17 672 -17 m 344 103 q 510 166 451 103 q 588 369 568 229 q 594 465 594 428 q 547 587 592 544 q 418 629 503 629 q 256 565 314 629 q 179 361 199 500 q 172 265 172 318 q 219 145 175 188 q 344 103 263 103 m 222 817 l 401 1004 l 535 1004 l 649 817 l 521 817 l 460 922 l 364 817 l 222 817 m 646 953 l 528 1132 l 529 1136 l 676 1136 l 761 953 l 646 953 z "},"ổ":{"ha":796,"x_min":32,"x_max":804,"o":"m 32 0 m 340 -17 q 116 62 199 -17 q 32 276 33 140 q 39 385 32 319 q 425 747 96 747 q 651 669 568 747 q 736 457 735 592 q 726 346 736 417 q 340 -17 672 -17 m 344 103 q 510 166 451 103 q 588 369 568 229 q 594 465 594 428 q 547 587 592 544 q 418 629 503 629 q 256 565 314 629 q 179 361 199 500 q 172 265 172 318 q 219 145 175 188 q 344 103 263 103 m 222 817 l 401 1004 l 535 1004 l 649 817 l 521 817 l 460 922 l 364 817 l 222 817 m 622 1035 l 640 1035 q 676 1042 665 1035 q 686 1065 686 1050 q 676 1081 686 1076 q 646 1085 665 1085 l 563 1085 l 572 1142 q 681 1153 624 1153 q 767 1138 731 1153 q 804 1083 804 1122 q 773 1017 804 1040 q 697 990 742 994 l 690 953 l 607 953 l 622 1035 z "},"ỗ":{"ha":796,"x_min":32,"x_max":738,"o":"m 32 0 m 340 -17 q 116 62 199 -17 q 32 276 33 140 q 39 385 32 319 q 425 747 96 747 q 651 669 568 747 q 736 457 735 592 q 726 346 736 417 q 340 -17 672 -17 m 344 103 q 510 166 451 103 q 588 369 568 229 q 594 465 594 428 q 547 587 592 544 q 418 629 503 629 q 256 565 314 629 q 179 361 199 500 q 172 265 172 318 q 219 145 175 188 q 344 103 263 103 m 222 817 l 401 1004 l 535 1004 l 649 817 l 521 817 l 460 922 l 364 817 l 222 817 m 253 1074 q 301 1183 264 1140 q 401 1226 339 1226 q 448 1221 426 1226 q 503 1203 469 1215 q 552 1186 532 1192 q 594 1181 572 1181 q 644 1226 632 1181 l 738 1226 q 688 1117 726 1160 q 588 1074 650 1074 q 541 1079 563 1074 q 486 1097 519 1085 q 437 1114 457 1108 q 394 1119 417 1119 q 344 1074 357 1119 l 253 1074 z "},"ȍ":{"ha":796,"x_min":32,"x_max":736,"o":"m 32 0 m 340 -17 q 116 62 199 -17 q 32 276 33 140 q 39 385 32 319 q 425 747 96 747 q 651 669 568 747 q 736 457 735 592 q 726 346 736 417 q 340 -17 672 -17 m 344 103 q 510 166 451 103 q 588 369 568 229 q 594 465 594 428 q 547 587 592 544 q 418 629 503 629 q 256 565 314 629 q 179 361 199 500 q 172 265 172 318 q 219 145 175 188 q 344 103 263 103 m 303 821 l 208 1000 l 211 1004 l 361 1004 l 421 821 l 303 821 m 511 821 l 417 1000 l 419 1004 l 569 1004 l 629 821 l 511 821 z "},"ö":{"ha":796,"x_min":32,"x_max":736,"o":"m 32 0 m 340 -17 q 116 62 199 -17 q 32 276 33 140 q 39 385 32 319 q 425 747 96 747 q 651 669 568 747 q 736 457 735 592 q 726 346 736 417 q 340 -17 672 -17 m 344 103 q 510 166 451 103 q 588 369 568 229 q 594 465 594 428 q 547 587 592 544 q 418 629 503 629 q 256 565 314 629 q 179 361 199 500 q 172 265 172 318 q 219 145 175 188 q 344 103 263 103 m 250 863 l 275 1004 l 410 1004 l 383 863 l 250 863 m 519 863 l 544 1004 l 679 1004 l 654 863 l 519 863 z "},"ọ":{"ha":796,"x_min":32,"x_max":736,"o":"m 32 0 m 340 -17 q 116 62 199 -17 q 32 276 33 140 q 39 385 32 319 q 425 747 96 747 q 651 669 568 747 q 736 457 735 592 q 726 346 736 417 q 340 -17 672 -17 m 344 103 q 510 166 451 103 q 588 369 568 229 q 594 465 594 428 q 547 587 592 544 q 418 629 503 629 q 256 565 314 629 q 179 361 199 500 q 172 265 172 318 q 219 145 175 188 q 344 103 263 103 m 222 -240 l 249 -94 l 390 -94 l 364 -240 l 222 -240 z "},"ò":{"ha":796,"x_min":32,"x_max":736,"o":"m 32 0 m 340 -17 q 116 62 199 -17 q 32 276 33 140 q 39 385 32 319 q 425 747 96 747 q 651 669 568 747 q 736 457 735 592 q 726 346 736 417 q 340 -17 672 -17 m 344 103 q 510 166 451 103 q 588 369 568 229 q 594 465 594 428 q 547 587 592 544 q 418 629 503 629 q 256 565 314 629 q 179 361 199 500 q 172 265 172 318 q 219 145 175 188 q 344 103 263 103 m 386 821 l 268 1000 l 269 1004 l 417 1004 l 501 821 l 386 821 z "},"ỏ":{"ha":796,"x_min":32,"x_max":736,"o":"m 32 0 m 340 -17 q 116 62 199 -17 q 32 276 33 140 q 39 385 32 319 q 425 747 96 747 q 651 669 568 747 q 736 457 735 592 q 726 346 736 417 q 340 -17 672 -17 m 344 103 q 510 166 451 103 q 588 369 568 229 q 594 465 594 428 q 547 587 592 544 q 418 629 503 629 q 256 565 314 629 q 179 361 199 500 q 172 265 172 318 q 219 145 175 188 q 344 103 263 103 m 418 903 l 436 903 q 472 910 461 903 q 482 933 482 918 q 472 949 482 944 q 442 953 461 953 l 358 953 l 368 1010 q 476 1021 419 1021 q 563 1006 526 1021 q 600 951 600 990 q 569 885 600 908 q 493 858 538 863 l 486 821 l 403 821 l 418 903 z "},"ơ":{"ha":796,"x_min":32,"x_max":907,"o":"m 907 953 l 894 878 q 694 617 864 678 q 736 457 736 546 q 726 346 736 417 q 340 -17 672 -17 q 116 62 199 -17 q 32 276 33 140 q 39 385 32 319 q 425 747 96 747 q 636 683 556 747 q 778 790 739 708 l 708 790 l 738 953 l 907 953 m 588 369 q 594 465 594 428 q 547 587 592 544 q 418 629 503 629 q 256 565 314 629 q 179 361 199 500 q 172 265 172 318 q 219 145 175 188 q 344 103 263 103 q 510 166 451 103 q 588 369 568 229 z "},"ớ":{"ha":796,"x_min":32,"x_max":907,"o":"m 32 0 m 907 953 l 894 878 q 694 617 864 678 q 736 457 736 546 q 726 346 736 417 q 340 -17 672 -17 q 116 62 199 -17 q 32 276 33 140 q 39 385 32 319 q 425 747 96 747 q 636 683 556 747 q 778 790 739 708 l 708 790 l 738 953 l 907 953 m 588 369 q 594 465 594 428 q 547 587 592 544 q 418 629 503 629 q 256 565 314 629 q 179 361 199 500 q 172 265 172 318 q 219 145 175 188 q 344 103 263 103 q 510 166 451 103 q 588 369 568 229 m 378 821 l 526 1004 l 682 1004 l 683 1000 l 508 821 l 378 821 z "},"ợ":{"ha":796,"x_min":32,"x_max":907,"o":"m 32 0 m 907 953 l 894 878 q 694 617 864 678 q 736 457 736 546 q 726 346 736 417 q 340 -17 672 -17 q 116 62 199 -17 q 32 276 33 140 q 39 385 32 319 q 425 747 96 747 q 636 683 556 747 q 778 790 739 708 l 708 790 l 738 953 l 907 953 m 588 369 q 594 465 594 428 q 547 587 592 544 q 418 629 503 629 q 256 565 314 629 q 179 361 199 500 q 172 265 172 318 q 219 145 175 188 q 344 103 263 103 q 510 166 451 103 q 588 369 568 229 m 222 -240 l 249 -94 l 390 -94 l 364 -240 l 222 -240 z "},"ờ":{"ha":796,"x_min":32,"x_max":907,"o":"m 32 0 m 907 953 l 894 878 q 694 617 864 678 q 736 457 736 546 q 726 346 736 417 q 340 -17 672 -17 q 116 62 199 -17 q 32 276 33 140 q 39 385 32 319 q 425 747 96 747 q 636 683 556 747 q 778 790 739 708 l 708 790 l 738 953 l 907 953 m 588 369 q 594 465 594 428 q 547 587 592 544 q 418 629 503 629 q 256 565 314 629 q 179 361 199 500 q 172 265 172 318 q 219 145 175 188 q 344 103 263 103 q 510 166 451 103 q 588 369 568 229 m 386 821 l 268 1000 l 269 1004 l 417 1004 l 501 821 l 386 821 z "},"ở":{"ha":796,"x_min":32,"x_max":907,"o":"m 32 0 m 907 953 l 894 878 q 694 617 864 678 q 736 457 736 546 q 726 346 736 417 q 340 -17 672 -17 q 116 62 199 -17 q 32 276 33 140 q 39 385 32 319 q 425 747 96 747 q 636 683 556 747 q 778 790 739 708 l 708 790 l 738 953 l 907 953 m 588 369 q 594 465 594 428 q 547 587 592 544 q 418 629 503 629 q 256 565 314 629 q 179 361 199 500 q 172 265 172 318 q 219 145 175 188 q 344 103 263 103 q 510 166 451 103 q 588 369 568 229 m 418 903 l 436 903 q 472 910 461 903 q 482 933 482 918 q 472 949 482 944 q 442 953 461 953 l 358 953 l 368 1010 q 476 1021 419 1021 q 563 1006 526 1021 q 600 951 600 990 q 569 885 600 908 q 493 858 538 863 l 486 821 l 403 821 l 418 903 z "},"ỡ":{"ha":796,"x_min":32,"x_max":907,"o":"m 32 0 m 907 953 l 894 878 q 694 617 864 678 q 736 457 736 546 q 726 346 736 417 q 340 -17 672 -17 q 116 62 199 -17 q 32 276 33 140 q 39 385 32 319 q 425 747 96 747 q 636 683 556 747 q 778 790 739 708 l 708 790 l 738 953 l 907 953 m 588 369 q 594 465 594 428 q 547 587 592 544 q 418 629 503 629 q 256 565 314 629 q 179 361 199 500 q 172 265 172 318 q 219 145 175 188 q 344 103 263 103 q 510 166 451 103 q 588 369 568 229 m 219 851 q 268 961 231 918 q 368 1004 306 1004 q 415 999 393 1004 q 469 981 436 993 q 519 964 499 969 q 561 958 539 958 q 611 1004 599 958 l 704 1004 q 655 894 693 938 q 554 851 617 851 q 508 857 529 851 q 453 875 486 863 q 403 892 424 886 q 361 897 383 897 q 311 851 324 897 l 219 851 z "},"ő":{"ha":796,"x_min":32,"x_max":771,"o":"m 32 0 m 340 -17 q 116 62 199 -17 q 32 276 33 140 q 39 385 32 319 q 425 747 96 747 q 651 669 568 747 q 736 457 735 592 q 726 346 736 417 q 340 -17 672 -17 m 344 103 q 510 166 451 103 q 588 369 568 229 q 594 465 594 428 q 547 587 592 544 q 418 629 503 629 q 256 565 314 629 q 179 361 199 500 q 172 265 172 318 q 219 145 175 188 q 344 103 263 103 m 275 821 l 400 1004 l 556 1004 l 557 1000 l 399 821 l 275 821 m 489 821 l 614 1004 l 769 1004 l 771 1000 l 613 821 l 489 821 z "},"ȏ":{"ha":796,"x_min":32,"x_max":736,"o":"m 32 0 m 340 -17 q 116 62 199 -17 q 32 276 33 140 q 39 385 32 319 q 425 747 96 747 q 651 669 568 747 q 736 457 735 592 q 726 346 736 417 q 340 -17 672 -17 m 344 103 q 510 166 451 103 q 588 369 568 229 q 594 465 594 428 q 547 587 592 544 q 418 629 503 629 q 256 565 314 629 q 179 361 199 500 q 172 265 172 318 q 219 145 175 188 q 344 103 263 103 m 236 833 q 303 956 249 907 q 475 1004 358 1004 q 611 962 565 1004 q 657 858 657 919 q 654 833 657 850 l 557 833 q 535 883 558 861 q 457 904 513 904 q 374 883 403 904 q 333 833 344 861 l 236 833 z "},"ō":{"ha":796,"x_min":32,"x_max":736,"o":"m 32 0 m 340 -17 q 116 62 199 -17 q 32 276 33 140 q 39 385 32 319 q 425 747 96 747 q 651 669 568 747 q 736 457 735 592 q 726 346 736 417 q 340 -17 672 -17 m 344 103 q 510 166 451 103 q 588 369 568 229 q 594 465 594 428 q 547 587 592 544 q 418 629 503 629 q 256 565 314 629 q 179 361 199 500 q 172 265 172 318 q 219 145 175 188 q 344 103 263 103 m 242 864 l 260 971 l 683 971 l 665 864 l 242 864 z "},"ǫ":{"ha":796,"x_min":32,"x_max":736,"o":"m 425 747 q 651 669 568 747 q 736 457 735 592 q 726 346 736 417 q 506 13 686 85 l 506 11 q 458 -42 478 -11 q 438 -106 438 -72 q 452 -145 438 -129 q 497 -161 467 -161 l 538 -161 l 525 -233 q 432 -253 474 -253 q 344 -228 381 -253 q 308 -149 308 -203 q 374 -15 308 -75 q 340 -17 363 -17 q 116 62 199 -17 q 32 276 33 140 q 39 385 32 319 q 425 747 96 747 m 588 369 q 594 465 594 428 q 547 587 592 544 q 418 629 503 629 q 256 565 314 629 q 179 361 199 500 q 172 265 172 318 q 219 145 175 188 q 344 103 263 103 q 510 166 451 103 q 588 369 568 229 z "},"ø":{"ha":849,"x_min":-1,"x_max":817,"o":"m 113 69 q 51 260 51 136 q 90 499 51 389 q 217 678 129 610 q 442 747 304 747 q 636 710 560 747 l 710 799 l 817 799 l 701 658 q 763 468 763 589 q 724 230 763 339 q 597 52 685 121 q 371 -17 508 -17 q 178 19 254 -17 l 106 -68 l -1 -68 l 113 69 m 549 604 q 443 629 511 629 q 215 407 264 629 q 200 271 200 346 q 211 190 200 219 l 549 604 m 369 101 q 589 290 535 101 q 613 457 613 371 q 601 538 613 508 l 264 124 q 369 101 303 101 z "},"ǿ":{"ha":849,"x_min":-1,"x_max":817,"o":"m 0 0 m 113 69 q 51 260 51 136 q 90 499 51 389 q 217 678 129 610 q 442 747 304 747 q 636 710 560 747 l 710 799 l 817 799 l 701 658 q 763 468 763 589 q 724 230 763 339 q 597 52 685 121 q 371 -17 508 -17 q 178 19 254 -17 l 106 -68 l -1 -68 l 113 69 m 549 604 q 443 629 511 629 q 215 407 264 629 q 200 271 200 346 q 211 190 200 219 l 549 604 m 369 101 q 589 290 535 101 q 613 457 613 371 q 601 538 613 508 l 264 124 q 369 101 303 101 m 428 821 l 576 1004 l 732 1004 l 733 1000 l 558 821 l 428 821 z "},"õ":{"ha":796,"x_min":32,"x_max":736,"o":"m 32 0 m 340 -17 q 116 62 199 -17 q 32 276 33 140 q 39 385 32 319 q 425 747 96 747 q 651 669 568 747 q 736 457 735 592 q 726 346 736 417 q 340 -17 672 -17 m 344 103 q 510 166 451 103 q 588 369 568 229 q 594 465 594 428 q 547 587 592 544 q 418 629 503 629 q 256 565 314 629 q 179 361 199 500 q 172 265 172 318 q 219 145 175 188 q 344 103 263 103 m 219 851 q 268 961 231 918 q 368 1004 306 1004 q 415 999 393 1004 q 469 981 436 993 q 519 964 499 969 q 561 958 539 958 q 611 1004 599 958 l 704 1004 q 655 894 693 938 q 554 851 617 851 q 508 857 529 851 q 453 875 486 863 q 403 892 424 886 q 361 897 383 897 q 311 851 324 897 l 219 851 z "},"œ":{"ha":1311,"x_min":28,"x_max":1260,"o":"m 346 -17 q 108 51 188 -17 q 28 260 28 119 q 67 499 28 389 q 192 678 106 610 q 417 747 279 747 q 689 622 617 747 q 968 747 793 747 q 1185 682 1111 747 q 1260 489 1260 617 q 1249 385 1260 444 l 1238 329 l 724 329 q 719 272 719 308 q 762 142 719 185 q 894 99 804 99 q 1021 136 969 99 q 1085 251 1072 174 l 1225 251 q 1115 51 1204 119 q 897 -17 1025 -17 q 615 108 689 -17 q 346 -17 515 -17 m 1110 438 q 1115 490 1115 456 q 968 632 1115 632 q 743 438 794 632 l 1110 438 m 344 101 q 498 166 442 101 q 575 340 554 231 q 586 457 586 397 q 545 588 586 546 q 418 629 504 629 q 263 562 318 629 q 188 381 207 494 q 176 271 176 326 q 217 142 176 183 q 344 101 258 101 z "},"p":{"ha":796,"x_min":-28,"x_max":739,"o":"m 143 731 l 254 731 l 254 633 l 263 633 q 364 718 306 689 q 488 747 422 747 q 674 676 608 747 q 739 458 739 606 q 696 219 739 328 q 574 47 653 110 q 392 -17 494 -17 q 181 83 242 -17 l 172 83 l 115 -240 l -28 -240 l 143 731 m 363 103 q 533 207 476 103 q 590 458 590 311 q 556 587 590 547 q 444 626 521 626 q 315 574 368 626 q 238 440 263 522 q 213 265 213 357 q 363 103 213 103 z "},"þ":{"ha":796,"x_min":-28,"x_max":739,"o":"m 192 1010 l 335 1010 l 271 647 l 278 647 q 373 722 318 696 q 489 747 428 747 q 674 676 610 747 q 739 458 739 606 q 696 219 739 328 q 574 47 653 110 q 392 -17 494 -17 q 181 83 242 -17 l 172 83 l 115 -240 l -28 -240 l 192 1010 m 363 103 q 533 207 476 103 q 590 458 590 311 q 556 587 590 547 q 444 626 521 626 q 315 574 368 626 q 238 440 263 522 q 213 265 213 357 q 363 103 213 103 z "},"q":{"ha":796,"x_min":28,"x_max":751,"o":"m 494 83 l 486 83 q 265 -17 400 -17 q 90 51 153 -17 q 28 256 28 119 q 69 503 28 390 q 191 681 111 615 q 379 747 271 747 q 513 718 456 747 q 599 633 569 689 l 607 633 l 638 731 l 751 731 l 581 -240 l 438 -240 l 494 83 m 318 104 q 448 157 394 104 q 528 290 501 210 q 554 457 554 371 q 411 628 554 628 q 235 521 293 628 q 176 263 176 414 q 210 142 176 179 q 318 104 244 104 z "},"r":{"ha":486,"x_min":19,"x_max":524,"o":"m 149 731 l 261 731 l 258 618 l 267 618 q 456 747 338 747 q 499 742 481 747 q 524 736 518 738 l 499 600 l 447 600 q 308 551 365 600 q 233 399 251 501 l 163 0 l 19 0 l 149 731 z "},"ŕ":{"ha":486,"x_min":19,"x_max":564,"o":"m 19 0 m 149 731 l 261 731 l 258 618 l 267 618 q 456 747 338 747 q 499 742 481 747 q 524 736 518 738 l 499 600 l 447 600 q 308 551 365 600 q 233 399 251 501 l 163 0 l 19 0 l 149 731 m 258 821 l 407 1004 l 563 1004 l 564 1000 l 389 821 l 258 821 z "},"ř":{"ha":486,"x_min":19,"x_max":569,"o":"m 19 0 m 149 731 l 261 731 l 258 618 l 267 618 q 456 747 338 747 q 499 742 481 747 q 524 736 518 738 l 499 600 l 447 600 q 308 551 365 600 q 233 399 251 501 l 163 0 l 19 0 l 149 731 m 257 817 l 143 1004 l 272 1004 l 335 899 l 428 1004 l 569 1004 l 390 817 l 257 817 z "},"ŗ":{"ha":486,"x_min":-37,"x_max":524,"o":"m 0 0 m 149 731 l 261 731 l 258 618 l 267 618 q 456 747 338 747 q 499 742 481 747 q 524 736 518 738 l 499 600 l 447 600 q 308 551 365 600 q 233 399 251 501 l 163 0 l 19 0 l 149 731 m -37 -319 l 40 -203 l -15 -203 l 8 -72 l 151 -72 l 131 -190 l 39 -319 l -37 -319 z "},"ȑ":{"ha":486,"x_min":19,"x_max":524,"o":"m 19 0 m 149 731 l 261 731 l 258 618 l 267 618 q 456 747 338 747 q 499 742 481 747 q 524 736 518 738 l 499 600 l 447 600 q 308 551 365 600 q 233 399 251 501 l 163 0 l 19 0 l 149 731 m 183 821 l 89 1000 l 92 1004 l 242 1004 l 301 821 l 183 821 m 392 821 l 297 1000 l 300 1004 l 450 1004 l 510 821 l 392 821 z "},"ṛ":{"ha":486,"x_min":-21,"x_max":524,"o":"m 0 0 m 149 731 l 261 731 l 258 618 l 267 618 q 456 747 338 747 q 499 742 481 747 q 524 736 518 738 l 499 600 l 447 600 q 308 551 365 600 q 233 399 251 501 l 163 0 l 19 0 l 149 731 m -21 -240 l 6 -94 l 147 -94 l 121 -240 l -21 -240 z "},"ȓ":{"ha":486,"x_min":19,"x_max":538,"o":"m 19 0 m 149 731 l 261 731 l 258 618 l 267 618 q 456 747 338 747 q 499 742 481 747 q 524 736 518 738 l 499 600 l 447 600 q 308 551 365 600 q 233 399 251 501 l 163 0 l 19 0 l 149 731 m 117 833 q 184 956 129 907 q 356 1004 239 1004 q 492 962 446 1004 q 538 858 538 919 q 535 833 538 850 l 438 833 q 416 883 439 861 q 338 904 393 904 q 254 883 283 904 q 214 833 225 861 l 117 833 z "},"s":{"ha":718,"x_min":4,"x_max":669,"o":"m 306 -17 q 80 35 156 -17 q 4 168 4 86 q 8 206 4 188 q 14 229 13 224 l 154 229 q 150 197 150 211 q 192 122 150 147 q 300 97 233 97 q 426 125 374 97 q 478 204 478 153 q 456 257 478 236 q 401 290 433 278 q 310 319 368 303 q 192 358 239 339 q 114 414 146 378 q 82 507 82 450 q 123 635 82 581 q 235 719 164 690 q 394 747 306 747 q 597 700 524 747 q 669 578 669 653 q 666 545 669 563 q 660 519 663 528 l 521 519 q 524 546 524 536 q 492 608 524 585 q 394 632 461 632 q 271 603 310 632 q 232 538 232 574 q 270 479 232 499 q 389 440 308 460 q 514 399 467 418 q 596 342 561 381 q 631 242 631 304 q 538 47 631 111 q 306 -17 444 -17 z "},"ś":{"ha":718,"x_min":4,"x_max":669,"o":"m 4 0 m 306 -17 q 80 35 156 -17 q 4 168 4 86 q 8 206 4 188 q 14 229 13 224 l 154 229 q 150 197 150 211 q 192 122 150 147 q 300 97 233 97 q 426 125 374 97 q 478 204 478 153 q 456 257 478 236 q 401 290 433 278 q 310 319 368 303 q 192 358 239 339 q 114 414 146 378 q 82 507 82 450 q 123 635 82 581 q 235 719 164 690 q 394 747 306 747 q 597 700 524 747 q 669 578 669 653 q 666 545 669 563 q 660 519 663 528 l 521 519 q 524 546 524 536 q 492 608 524 585 q 394 632 461 632 q 271 603 310 632 q 232 538 232 574 q 270 479 232 499 q 389 440 308 460 q 514 399 467 418 q 596 342 561 381 q 631 242 631 304 q 538 47 631 111 q 306 -17 444 -17 m 364 821 l 513 1004 l 668 1004 l 669 1000 l 494 821 l 364 821 z "},"ꞌ":{"ha":235,"x_min":57,"x_max":303,"o":"m 57 400 l 161 1004 l 303 1004 l 272 824 l 139 400 l 57 400 z "},"š":{"ha":718,"x_min":4,"x_max":675,"o":"m 4 0 m 306 -17 q 80 35 156 -17 q 4 168 4 86 q 8 206 4 188 q 14 229 13 224 l 154 229 q 150 197 150 211 q 192 122 150 147 q 300 97 233 97 q 426 125 374 97 q 478 204 478 153 q 456 257 478 236 q 401 290 433 278 q 310 319 368 303 q 192 358 239 339 q 114 414 146 378 q 82 507 82 450 q 123 635 82 581 q 235 719 164 690 q 394 747 306 747 q 597 700 524 747 q 669 578 669 653 q 666 545 669 563 q 660 519 663 528 l 521 519 q 524 546 524 536 q 492 608 524 585 q 394 632 461 632 q 271 603 310 632 q 232 538 232 574 q 270 479 232 499 q 389 440 308 460 q 514 399 467 418 q 596 342 561 381 q 631 242 631 304 q 538 47 631 111 q 306 -17 444 -17 m 363 817 l 249 1004 l 378 1004 l 440 899 l 533 1004 l 675 1004 l 496 817 l 363 817 z "},"ş":{"ha":718,"x_min":4,"x_max":669,"o":"m 521 519 q 524 546 524 536 q 492 608 524 585 q 394 632 461 632 q 271 603 310 632 q 232 538 232 574 q 270 479 232 499 q 389 440 308 460 q 514 399 467 418 q 596 342 561 381 q 631 242 631 304 q 547 56 631 119 q 336 -15 464 -8 l 325 -49 q 408 -71 376 -50 q 440 -132 440 -92 q 386 -226 440 -200 q 257 -253 332 -253 q 114 -242 176 -253 l 126 -174 l 260 -174 q 307 -165 290 -174 q 324 -132 324 -156 q 313 -113 324 -119 q 274 -107 301 -107 l 208 -107 l 242 -14 q 63 47 122 -3 q 4 168 4 96 q 8 206 4 188 q 14 229 13 224 l 154 229 q 150 197 150 211 q 192 122 150 147 q 300 97 233 97 q 426 125 374 97 q 478 204 478 153 q 456 257 478 236 q 401 290 433 278 q 310 319 368 303 q 192 358 239 339 q 114 414 146 378 q 82 507 82 450 q 123 635 82 581 q 235 719 164 690 q 394 747 306 747 q 597 700 524 747 q 669 578 669 653 q 666 545 669 563 q 660 519 663 528 l 521 519 z "},"ŝ":{"ha":718,"x_min":4,"x_max":669,"o":"m 4 0 m 306 -17 q 80 35 156 -17 q 4 168 4 86 q 8 206 4 188 q 14 229 13 224 l 154 229 q 150 197 150 211 q 192 122 150 147 q 300 97 233 97 q 426 125 374 97 q 478 204 478 153 q 456 257 478 236 q 401 290 433 278 q 310 319 368 303 q 192 358 239 339 q 114 414 146 378 q 82 507 82 450 q 123 635 82 581 q 235 719 164 690 q 394 747 306 747 q 597 700 524 747 q 669 578 669 653 q 666 545 669 563 q 660 519 663 528 l 521 519 q 524 546 524 536 q 492 608 524 585 q 394 632 461 632 q 271 603 310 632 q 232 538 232 574 q 270 479 232 499 q 389 440 308 460 q 514 399 467 418 q 596 342 561 381 q 631 242 631 304 q 538 47 631 111 q 306 -17 444 -17 m 208 817 l 388 1004 l 521 1004 l 635 817 l 507 817 l 446 922 l 350 817 l 208 817 z "},"ș":{"ha":718,"x_min":4,"x_max":669,"o":"m 4 0 m 306 -17 q 80 35 156 -17 q 4 168 4 86 q 8 206 4 188 q 14 229 13 224 l 154 229 q 150 197 150 211 q 192 122 150 147 q 300 97 233 97 q 426 125 374 97 q 478 204 478 153 q 456 257 478 236 q 401 290 433 278 q 310 319 368 303 q 192 358 239 339 q 114 414 146 378 q 82 507 82 450 q 123 635 82 581 q 235 719 164 690 q 394 747 306 747 q 597 700 524 747 q 669 578 669 653 q 666 545 669 563 q 660 519 663 528 l 521 519 q 524 546 524 536 q 492 608 524 585 q 394 632 461 632 q 271 603 310 632 q 232 538 232 574 q 270 479 232 499 q 389 440 308 460 q 514 399 467 418 q 596 342 561 381 q 631 242 631 304 q 538 47 631 111 q 306 -17 444 -17 m 167 -319 l 244 -203 l 189 -203 l 213 -72 l 356 -72 l 335 -190 l 243 -319 l 167 -319 z "},"ṣ":{"ha":718,"x_min":4,"x_max":669,"o":"m 4 0 m 306 -17 q 80 35 156 -17 q 4 168 4 86 q 8 206 4 188 q 14 229 13 224 l 154 229 q 150 197 150 211 q 192 122 150 147 q 300 97 233 97 q 426 125 374 97 q 478 204 478 153 q 456 257 478 236 q 401 290 433 278 q 310 319 368 303 q 192 358 239 339 q 114 414 146 378 q 82 507 82 450 q 123 635 82 581 q 235 719 164 690 q 394 747 306 747 q 597 700 524 747 q 669 578 669 653 q 666 545 669 563 q 660 519 663 528 l 521 519 q 524 546 524 536 q 492 608 524 585 q 394 632 461 632 q 271 603 310 632 q 232 538 232 574 q 270 479 232 499 q 389 440 308 460 q 514 399 467 418 q 596 342 561 381 q 631 242 631 304 q 538 47 631 111 q 306 -17 444 -17 m 183 -240 l 210 -94 l 351 -94 l 325 -240 l 183 -240 z "},"ß":{"ha":849,"x_min":10,"x_max":824,"o":"m 135 714 q 265 947 161 867 q 518 1021 363 1021 q 742 960 660 1021 q 824 793 824 900 q 768 643 824 711 q 621 549 713 575 l 621 543 q 736 462 696 518 q 776 321 776 406 q 727 155 776 228 q 596 41 678 82 q 418 0 514 0 l 258 0 l 279 118 l 414 118 q 522 146 472 118 q 602 220 572 174 q 632 318 632 267 q 587 431 632 388 q 468 474 542 474 l 342 474 l 363 596 l 479 596 q 576 619 531 596 q 649 683 622 643 q 676 769 676 722 q 635 868 676 832 q 514 904 593 904 q 356 856 418 904 q 279 719 294 808 l 153 0 l 10 0 l 135 714 z "},"ſ":{"ha":386,"x_min":-139,"x_max":494,"o":"m -28 -253 q -88 -247 -57 -253 q -139 -235 -119 -242 l -121 -135 l -50 -135 q 25 -71 14 -135 l 146 613 l 40 613 l 61 731 l 167 731 l 186 838 q 244 966 200 917 q 383 1015 289 1015 q 443 1010 413 1015 q 494 997 474 1006 l 476 897 l 404 897 q 329 833 340 897 l 168 -75 q 109 -203 153 -154 q -28 -253 65 -253 z "},"ə":{"ha":772,"x_min":42,"x_max":731,"o":"m 310 -17 q 111 53 181 -17 q 42 250 42 122 q 50 346 42 296 l 60 401 l 581 401 q 585 467 585 438 q 544 592 585 551 q 422 632 504 632 q 284 594 340 632 q 214 479 228 557 l 74 479 q 210 693 99 625 q 446 747 301 747 q 657 674 583 747 q 731 467 731 601 q 692 247 731 361 q 589 74 653 133 q 471 6 539 28 q 310 -17 403 -17 m 331 99 q 558 293 506 99 l 190 293 q 183 232 183 256 q 331 99 183 99 z "},"t":{"ha":410,"x_min":50,"x_max":428,"o":"m 199 -15 q 88 19 122 -15 q 54 108 54 53 q 68 211 54 125 l 139 613 l 50 613 l 71 731 l 160 731 l 196 935 l 350 935 l 303 731 l 428 731 l 406 613 l 282 613 l 204 176 l 201 146 q 249 101 201 101 l 317 101 l 300 4 q 251 -10 281 -4 q 199 -15 222 -15 z "},"ŧ":{"ha":410,"x_min":6,"x_max":428,"o":"m 282 613 l 253 451 l 378 451 l 361 361 l 238 361 l 204 176 l 201 146 q 249 101 201 101 l 317 101 l 300 4 q 251 -10 281 -4 q 199 -15 222 -15 q 88 19 122 -15 q 54 108 54 53 q 68 211 54 125 l 94 361 l 6 361 l 21 451 l 111 451 l 139 613 l 50 613 l 71 731 l 160 731 l 196 935 l 350 935 l 303 731 l 428 731 l 406 613 l 282 613 z "},"ť":{"ha":565,"x_min":50,"x_max":668,"o":"m 475 696 l 558 847 l 503 847 l 528 989 l 668 989 l 644 858 l 549 696 l 475 696 m 199 -15 q 88 19 122 -15 q 54 108 54 53 q 68 211 54 125 l 139 613 l 50 613 l 71 731 l 160 731 l 196 935 l 350 935 l 303 731 l 428 731 l 406 613 l 282 613 l 204 176 l 201 146 q 249 101 201 101 l 317 101 l 300 4 q 251 -10 281 -4 q 199 -15 222 -15 z "},"ţ":{"ha":410,"x_min":-40,"x_max":428,"o":"m 204 176 l 201 146 q 249 101 201 101 l 317 101 l 300 4 q 251 -10 281 -4 q 199 -15 222 -15 l 182 -15 l 171 -49 q 254 -71 222 -50 q 286 -132 286 -92 q 232 -226 286 -200 q 103 -253 178 -253 q -40 -242 22 -253 l -28 -174 l 106 -174 q 153 -165 136 -174 q 169 -132 169 -156 q 158 -113 169 -119 q 119 -107 147 -107 l 54 -107 l 96 13 q 54 108 54 43 q 68 211 54 125 l 139 613 l 50 613 l 71 731 l 160 731 l 196 935 l 350 935 l 303 731 l 428 731 l 406 613 l 282 613 l 204 176 z "},"ț":{"ha":410,"x_min":13,"x_max":428,"o":"m 13 0 m 199 -15 q 88 19 122 -15 q 54 108 54 53 q 68 211 54 125 l 139 613 l 50 613 l 71 731 l 160 731 l 196 935 l 350 935 l 303 731 l 428 731 l 406 613 l 282 613 l 204 176 l 201 146 q 249 101 201 101 l 317 101 l 300 4 q 251 -10 281 -4 q 199 -15 222 -15 m 13 -319 l 90 -203 l 35 -203 l 58 -72 l 201 -72 l 181 -190 l 89 -319 l 13 -319 z "},"ṭ":{"ha":410,"x_min":29,"x_max":428,"o":"m 29 0 m 199 -15 q 88 19 122 -15 q 54 108 54 53 q 68 211 54 125 l 139 613 l 50 613 l 71 731 l 160 731 l 196 935 l 350 935 l 303 731 l 428 731 l 406 613 l 282 613 l 204 176 l 201 146 q 249 101 201 101 l 317 101 l 300 4 q 251 -10 281 -4 q 199 -15 222 -15 m 29 -240 l 56 -94 l 197 -94 l 171 -240 l 29 -240 z "},"u":{"ha":796,"x_min":49,"x_max":753,"o":"m 264 -17 q 49 163 49 -17 q 60 261 49 203 l 142 731 l 285 731 l 204 271 q 197 199 197 226 q 224 127 197 149 q 300 106 251 106 q 451 165 383 106 q 538 324 519 224 l 610 731 l 753 731 l 624 0 l 513 0 l 513 99 l 503 99 q 397 15 461 47 q 264 -17 332 -17 z "},"ú":{"ha":796,"x_min":49,"x_max":753,"o":"m 49 0 m 264 -17 q 49 163 49 -17 q 60 261 49 203 l 142 731 l 285 731 l 204 271 q 197 199 197 226 q 224 127 197 149 q 300 106 251 106 q 451 165 383 106 q 538 324 519 224 l 610 731 l 753 731 l 624 0 l 513 0 l 513 99 l 503 99 q 397 15 461 47 q 264 -17 332 -17 m 397 821 l 546 1004 l 701 1004 l 703 1000 l 528 821 l 397 821 z "},"ŭ":{"ha":796,"x_min":49,"x_max":753,"o":"m 49 0 m 264 -17 q 49 163 49 -17 q 60 261 49 203 l 142 731 l 285 731 l 204 271 q 197 199 197 226 q 224 127 197 149 q 300 106 251 106 q 451 165 383 106 q 538 324 519 224 l 610 731 l 753 731 l 624 0 l 513 0 l 513 99 l 503 99 q 397 15 461 47 q 264 -17 332 -17 m 464 833 q 316 872 361 833 q 271 971 271 911 q 274 1004 271 993 l 371 1004 q 464 933 371 933 q 553 955 519 933 q 594 1004 586 976 l 692 1004 q 665 936 685 969 q 615 881 646 903 q 464 833 554 833 z "},"ǔ":{"ha":796,"x_min":49,"x_max":753,"o":"m 49 0 m 264 -17 q 49 163 49 -17 q 60 261 49 203 l 142 731 l 285 731 l 204 271 q 197 199 197 226 q 224 127 197 149 q 300 106 251 106 q 451 165 383 106 q 538 324 519 224 l 610 731 l 753 731 l 624 0 l 513 0 l 513 99 l 503 99 q 397 15 461 47 q 264 -17 332 -17 m 396 817 l 282 1004 l 411 1004 l 474 899 l 567 1004 l 708 1004 l 529 817 l 396 817 z "},"û":{"ha":796,"x_min":49,"x_max":753,"o":"m 49 0 m 264 -17 q 49 163 49 -17 q 60 261 49 203 l 142 731 l 285 731 l 204 271 q 197 199 197 226 q 224 127 197 149 q 300 106 251 106 q 451 165 383 106 q 538 324 519 224 l 610 731 l 753 731 l 624 0 l 513 0 l 513 99 l 503 99 q 397 15 461 47 q 264 -17 332 -17 m 242 817 l 421 1004 l 554 1004 l 668 817 l 540 817 l 479 922 l 383 817 l 242 817 z "},"ȕ":{"ha":796,"x_min":49,"x_max":753,"o":"m 49 0 m 264 -17 q 49 163 49 -17 q 60 261 49 203 l 142 731 l 285 731 l 204 271 q 197 199 197 226 q 224 127 197 149 q 300 106 251 106 q 451 165 383 106 q 538 324 519 224 l 610 731 l 753 731 l 624 0 l 513 0 l 513 99 l 503 99 q 397 15 461 47 q 264 -17 332 -17 m 322 821 l 228 1000 l 231 1004 l 381 1004 l 440 821 l 322 821 m 531 821 l 436 1000 l 439 1004 l 589 1004 l 649 821 l 531 821 z "},"ü":{"ha":796,"x_min":49,"x_max":753,"o":"m 49 0 m 264 -17 q 49 163 49 -17 q 60 261 49 203 l 142 731 l 285 731 l 204 271 q 197 199 197 226 q 224 127 197 149 q 300 106 251 106 q 451 165 383 106 q 538 324 519 224 l 610 731 l 753 731 l 624 0 l 513 0 l 513 99 l 503 99 q 397 15 461 47 q 264 -17 332 -17 m 269 863 l 294 1004 l 429 1004 l 403 863 l 269 863 m 539 863 l 564 1004 l 699 1004 l 674 863 l 539 863 z "},"ǘ":{"ha":796,"x_min":49,"x_max":753,"o":"m 49 0 m 264 -17 q 49 163 49 -17 q 60 261 49 203 l 142 731 l 285 731 l 204 271 q 197 199 197 226 q 224 127 197 149 q 300 106 251 106 q 451 165 383 106 q 538 324 519 224 l 610 731 l 753 731 l 624 0 l 513 0 l 513 99 l 503 99 q 397 15 461 47 q 264 -17 332 -17 m 269 863 l 294 1004 l 429 1004 l 403 863 l 269 863 m 539 863 l 564 1004 l 699 1004 l 674 863 l 539 863 m 439 1053 l 588 1236 l 743 1236 l 744 1232 l 569 1053 l 439 1053 z "},"ǚ":{"ha":796,"x_min":49,"x_max":753,"o":"m 49 0 m 264 -17 q 49 163 49 -17 q 60 261 49 203 l 142 731 l 285 731 l 204 271 q 197 199 197 226 q 224 127 197 149 q 300 106 251 106 q 451 165 383 106 q 538 324 519 224 l 610 731 l 753 731 l 624 0 l 513 0 l 513 99 l 503 99 q 397 15 461 47 q 264 -17 332 -17 m 269 863 l 294 1004 l 429 1004 l 403 863 l 269 863 m 539 863 l 564 1004 l 699 1004 l 674 863 l 539 863 m 438 1049 l 324 1236 l 453 1236 l 515 1131 l 608 1236 l 750 1236 l 571 1049 l 438 1049 z "},"ǜ":{"ha":796,"x_min":49,"x_max":753,"o":"m 49 0 m 264 -17 q 49 163 49 -17 q 60 261 49 203 l 142 731 l 285 731 l 204 271 q 197 199 197 226 q 224 127 197 149 q 300 106 251 106 q 451 165 383 106 q 538 324 519 224 l 610 731 l 753 731 l 624 0 l 513 0 l 513 99 l 503 99 q 397 15 461 47 q 264 -17 332 -17 m 269 863 l 294 1004 l 429 1004 l 403 863 l 269 863 m 539 863 l 564 1004 l 699 1004 l 674 863 l 539 863 m 447 1053 l 329 1232 l 331 1236 l 478 1236 l 563 1053 l 447 1053 z "},"ǖ":{"ha":796,"x_min":49,"x_max":753,"o":"m 49 0 m 264 -17 q 49 163 49 -17 q 60 261 49 203 l 142 731 l 285 731 l 204 271 q 197 199 197 226 q 224 127 197 149 q 300 106 251 106 q 451 165 383 106 q 538 324 519 224 l 610 731 l 753 731 l 624 0 l 513 0 l 513 99 l 503 99 q 397 15 461 47 q 264 -17 332 -17 m 269 863 l 294 1004 l 429 1004 l 403 863 l 269 863 m 539 863 l 564 1004 l 699 1004 l 674 863 l 539 863 m 303 1096 l 321 1203 l 744 1203 l 726 1096 l 303 1096 z "},"ụ":{"ha":796,"x_min":49,"x_max":753,"o":"m 49 0 m 264 -17 q 49 163 49 -17 q 60 261 49 203 l 142 731 l 285 731 l 204 271 q 197 199 197 226 q 224 127 197 149 q 300 106 251 106 q 451 165 383 106 q 538 324 519 224 l 610 731 l 753 731 l 624 0 l 513 0 l 513 99 l 503 99 q 397 15 461 47 q 264 -17 332 -17 m 222 -240 l 249 -94 l 390 -94 l 364 -240 l 222 -240 z "},"ù":{"ha":796,"x_min":49,"x_max":753,"o":"m 49 0 m 264 -17 q 49 163 49 -17 q 60 261 49 203 l 142 731 l 285 731 l 204 271 q 197 199 197 226 q 224 127 197 149 q 300 106 251 106 q 451 165 383 106 q 538 324 519 224 l 610 731 l 753 731 l 624 0 l 513 0 l 513 99 l 503 99 q 397 15 461 47 q 264 -17 332 -17 m 406 821 l 288 1000 l 289 1004 l 436 1004 l 521 821 l 406 821 z "},"ủ":{"ha":796,"x_min":49,"x_max":753,"o":"m 49 0 m 264 -17 q 49 163 49 -17 q 60 261 49 203 l 142 731 l 285 731 l 204 271 q 197 199 197 226 q 224 127 197 149 q 300 106 251 106 q 451 165 383 106 q 538 324 519 224 l 610 731 l 753 731 l 624 0 l 513 0 l 513 99 l 503 99 q 397 15 461 47 q 264 -17 332 -17 m 438 903 l 456 903 q 491 910 481 903 q 501 933 501 918 q 491 949 501 944 q 461 953 481 953 l 378 953 l 388 1010 q 496 1021 439 1021 q 583 1006 546 1021 q 619 951 619 990 q 588 885 619 908 q 513 858 557 863 l 506 821 l 422 821 l 438 903 z "},"ư":{"ha":796,"x_min":49,"x_max":953,"o":"m 953 1004 l 940 929 q 742 668 908 731 l 624 0 l 513 0 l 513 99 l 503 99 q 397 15 461 47 q 264 -17 332 -17 q 49 163 49 -17 q 60 261 49 203 l 142 731 l 285 731 l 204 271 q 197 199 197 226 q 224 127 197 149 q 300 106 251 106 q 451 165 383 106 q 538 324 519 224 l 610 731 l 664 731 q 824 842 783 754 l 754 842 l 783 1004 l 953 1004 z "},"ứ":{"ha":796,"x_min":49,"x_max":953,"o":"m 49 0 m 953 1004 l 940 929 q 742 668 908 731 l 624 0 l 513 0 l 513 99 l 503 99 q 397 15 461 47 q 264 -17 332 -17 q 49 163 49 -17 q 60 261 49 203 l 142 731 l 285 731 l 204 271 q 197 199 197 226 q 224 127 197 149 q 300 106 251 106 q 451 165 383 106 q 538 324 519 224 l 610 731 l 664 731 q 824 842 783 754 l 754 842 l 783 1004 l 953 1004 m 397 821 l 546 1004 l 701 1004 l 703 1000 l 528 821 l 397 821 z "},"ự":{"ha":796,"x_min":49,"x_max":953,"o":"m 49 0 m 953 1004 l 940 929 q 742 668 908 731 l 624 0 l 513 0 l 513 99 l 503 99 q 397 15 461 47 q 264 -17 332 -17 q 49 163 49 -17 q 60 261 49 203 l 142 731 l 285 731 l 204 271 q 197 199 197 226 q 224 127 197 149 q 300 106 251 106 q 451 165 383 106 q 538 324 519 224 l 610 731 l 664 731 q 824 842 783 754 l 754 842 l 783 1004 l 953 1004 m 222 -240 l 249 -94 l 390 -94 l 364 -240 l 222 -240 z "},"ừ":{"ha":796,"x_min":49,"x_max":953,"o":"m 49 0 m 953 1004 l 940 929 q 742 668 908 731 l 624 0 l 513 0 l 513 99 l 503 99 q 397 15 461 47 q 264 -17 332 -17 q 49 163 49 -17 q 60 261 49 203 l 142 731 l 285 731 l 204 271 q 197 199 197 226 q 224 127 197 149 q 300 106 251 106 q 451 165 383 106 q 538 324 519 224 l 610 731 l 664 731 q 824 842 783 754 l 754 842 l 783 1004 l 953 1004 m 406 821 l 288 1000 l 289 1004 l 436 1004 l 521 821 l 406 821 z "},"ử":{"ha":796,"x_min":49,"x_max":953,"o":"m 49 0 m 953 1004 l 940 929 q 742 668 908 731 l 624 0 l 513 0 l 513 99 l 503 99 q 397 15 461 47 q 264 -17 332 -17 q 49 163 49 -17 q 60 261 49 203 l 142 731 l 285 731 l 204 271 q 197 199 197 226 q 224 127 197 149 q 300 106 251 106 q 451 165 383 106 q 538 324 519 224 l 610 731 l 664 731 q 824 842 783 754 l 754 842 l 783 1004 l 953 1004 m 438 903 l 456 903 q 491 910 481 903 q 501 933 501 918 q 491 949 501 944 q 461 953 481 953 l 378 953 l 388 1010 q 496 1021 439 1021 q 583 1006 546 1021 q 619 951 619 990 q 588 885 619 908 q 513 858 557 863 l 506 821 l 422 821 l 438 903 z "},"ữ":{"ha":796,"x_min":49,"x_max":953,"o":"m 49 0 m 953 1004 l 940 929 q 742 668 908 731 l 624 0 l 513 0 l 513 99 l 503 99 q 397 15 461 47 q 264 -17 332 -17 q 49 163 49 -17 q 60 261 49 203 l 142 731 l 285 731 l 204 271 q 197 199 197 226 q 224 127 197 149 q 300 106 251 106 q 451 165 383 106 q 538 324 519 224 l 610 731 l 664 731 q 824 842 783 754 l 754 842 l 783 1004 l 953 1004 m 239 851 q 288 961 250 918 q 388 1004 325 1004 q 434 999 413 1004 q 489 981 456 993 q 538 964 518 969 q 581 958 558 958 q 631 1004 618 958 l 724 1004 q 674 894 713 938 q 574 851 636 851 q 527 857 549 851 q 472 875 506 863 q 423 892 443 886 q 381 897 403 897 q 331 851 343 897 l 239 851 z "},"ű":{"ha":796,"x_min":49,"x_max":790,"o":"m 49 0 m 264 -17 q 49 163 49 -17 q 60 261 49 203 l 142 731 l 285 731 l 204 271 q 197 199 197 226 q 224 127 197 149 q 300 106 251 106 q 451 165 383 106 q 538 324 519 224 l 610 731 l 753 731 l 624 0 l 513 0 l 513 99 l 503 99 q 397 15 461 47 q 264 -17 332 -17 m 294 821 l 419 1004 l 575 1004 l 576 1000 l 418 821 l 294 821 m 508 821 l 633 1004 l 789 1004 l 790 1000 l 632 821 l 508 821 z "},"ȗ":{"ha":796,"x_min":49,"x_max":753,"o":"m 49 0 m 264 -17 q 49 163 49 -17 q 60 261 49 203 l 142 731 l 285 731 l 204 271 q 197 199 197 226 q 224 127 197 149 q 300 106 251 106 q 451 165 383 106 q 538 324 519 224 l 610 731 l 753 731 l 624 0 l 513 0 l 513 99 l 503 99 q 397 15 461 47 q 264 -17 332 -17 m 256 833 q 323 956 268 907 q 494 1004 378 1004 q 631 962 585 1004 q 676 858 676 919 q 674 833 676 850 l 576 833 q 555 883 578 861 q 476 904 532 904 q 393 883 422 904 q 353 833 364 861 l 256 833 z "},"ū":{"ha":796,"x_min":49,"x_max":753,"o":"m 49 0 m 264 -17 q 49 163 49 -17 q 60 261 49 203 l 142 731 l 285 731 l 204 271 q 197 199 197 226 q 224 127 197 149 q 300 106 251 106 q 451 165 383 106 q 538 324 519 224 l 610 731 l 753 731 l 624 0 l 513 0 l 513 99 l 503 99 q 397 15 461 47 q 264 -17 332 -17 m 261 864 l 279 971 l 703 971 l 685 864 l 261 864 z "},"ų":{"ha":796,"x_min":49,"x_max":753,"o":"m 489 -253 q 401 -228 438 -253 q 365 -150 365 -204 q 406 -58 365 -96 q 513 4 447 -19 l 513 99 l 503 99 q 397 15 461 47 q 264 -17 332 -17 q 49 163 49 -17 q 60 261 49 203 l 142 731 l 285 731 l 204 271 q 197 199 197 238 q 224 127 197 149 q 300 106 251 106 q 451 165 383 106 q 538 324 519 224 l 610 731 l 753 731 l 624 0 q 525 -56 556 -32 q 494 -117 494 -81 q 510 -149 494 -136 q 558 -161 526 -161 l 596 -161 l 582 -233 q 489 -253 531 -253 z "},"ů":{"ha":796,"x_min":49,"x_max":753,"o":"m 49 0 m 264 -17 q 49 163 49 -17 q 60 261 49 203 l 142 731 l 285 731 l 204 271 q 197 199 197 226 q 224 127 197 149 q 300 106 251 106 q 451 165 383 106 q 538 324 519 224 l 610 731 l 753 731 l 624 0 l 513 0 l 513 99 l 503 99 q 397 15 461 47 q 264 -17 332 -17 m 457 782 q 371 814 404 782 q 338 893 338 846 q 381 1008 338 963 q 494 1053 424 1053 q 581 1020 547 1053 q 614 939 614 988 q 571 826 614 871 q 457 782 528 782 m 465 850 q 523 873 501 850 q 544 929 544 896 q 528 969 544 954 q 486 985 513 985 q 428 961 450 985 q 407 903 407 938 q 422 865 407 879 q 465 850 438 850 z "},"ũ":{"ha":796,"x_min":49,"x_max":753,"o":"m 49 0 m 264 -17 q 49 163 49 -17 q 60 261 49 203 l 142 731 l 285 731 l 204 271 q 197 199 197 226 q 224 127 197 149 q 300 106 251 106 q 451 165 383 106 q 538 324 519 224 l 610 731 l 753 731 l 624 0 l 513 0 l 513 99 l 503 99 q 397 15 461 47 q 264 -17 332 -17 m 239 851 q 288 961 250 918 q 388 1004 325 1004 q 434 999 413 1004 q 489 981 456 993 q 538 964 518 969 q 581 958 558 958 q 631 1004 618 958 l 724 1004 q 674 894 713 938 q 574 851 636 851 q 527 857 549 851 q 472 875 506 863 q 423 892 443 886 q 381 897 403 897 q 331 851 343 897 l 239 851 z "},"v":{"ha":718,"x_min":67,"x_max":753,"o":"m 67 731 l 213 731 l 276 381 q 294 257 285 335 q 307 154 304 179 l 314 154 q 357 253 324 178 q 418 381 390 329 l 603 731 l 753 731 l 354 0 l 207 0 l 67 731 z "},"w":{"ha":1026,"x_min":60,"x_max":1072,"o":"m 60 731 l 203 731 l 238 351 q 245 247 242 304 q 250 168 249 190 l 257 168 q 286 248 265 190 q 325 351 307 306 l 482 731 l 646 731 l 672 350 q 678 246 676 301 q 682 168 681 190 l 688 168 q 721 252 696 189 q 761 350 746 315 l 929 731 l 1072 731 l 725 0 l 572 0 l 544 410 q 540 500 542 454 q 539 563 539 546 l 533 563 q 510 500 528 546 q 475 410 493 454 l 303 0 l 150 0 l 60 731 z "},"ẃ":{"ha":1026,"x_min":60,"x_max":1072,"o":"m 60 0 m 60 731 l 203 731 l 238 351 q 245 247 242 304 q 250 168 249 190 l 257 168 q 286 248 265 190 q 325 351 307 306 l 482 731 l 646 731 l 672 350 q 678 246 676 301 q 682 168 681 190 l 688 168 q 721 252 696 189 q 761 350 746 315 l 929 731 l 1072 731 l 725 0 l 572 0 l 544 410 q 540 500 542 454 q 539 563 539 546 l 533 563 q 510 500 528 546 q 475 410 493 454 l 303 0 l 150 0 l 60 731 m 514 821 l 663 1004 l 818 1004 l 819 1000 l 644 821 l 514 821 z "},"ŵ":{"ha":1026,"x_min":60,"x_max":1072,"o":"m 60 0 m 60 731 l 203 731 l 238 351 q 245 247 242 304 q 250 168 249 190 l 257 168 q 286 248 265 190 q 325 351 307 306 l 482 731 l 646 731 l 672 350 q 678 246 676 301 q 682 168 681 190 l 688 168 q 721 252 696 189 q 761 350 746 315 l 929 731 l 1072 731 l 725 0 l 572 0 l 544 410 q 540 500 542 454 q 539 563 539 546 l 533 563 q 510 500 528 546 q 475 410 493 454 l 303 0 l 150 0 l 60 731 m 358 817 l 538 1004 l 671 1004 l 785 817 l 657 817 l 596 922 l 500 817 l 358 817 z "},"ẅ":{"ha":1026,"x_min":60,"x_max":1072,"o":"m 60 0 m 60 731 l 203 731 l 238 351 q 245 247 242 304 q 250 168 249 190 l 257 168 q 286 248 265 190 q 325 351 307 306 l 482 731 l 646 731 l 672 350 q 678 246 676 301 q 682 168 681 190 l 688 168 q 721 252 696 189 q 761 350 746 315 l 929 731 l 1072 731 l 725 0 l 572 0 l 544 410 q 540 500 542 454 q 539 563 539 546 l 533 563 q 510 500 528 546 q 475 410 493 454 l 303 0 l 150 0 l 60 731 m 386 863 l 411 1004 l 546 1004 l 519 863 l 386 863 m 656 863 l 681 1004 l 815 1004 l 790 863 l 656 863 z "},"ẁ":{"ha":1026,"x_min":60,"x_max":1072,"o":"m 60 0 m 60 731 l 203 731 l 238 351 q 245 247 242 304 q 250 168 249 190 l 257 168 q 286 248 265 190 q 325 351 307 306 l 482 731 l 646 731 l 672 350 q 678 246 676 301 q 682 168 681 190 l 688 168 q 721 252 696 189 q 761 350 746 315 l 929 731 l 1072 731 l 725 0 l 572 0 l 544 410 q 540 500 542 454 q 539 563 539 546 l 533 563 q 510 500 528 546 q 475 410 493 454 l 303 0 l 150 0 l 60 731 m 522 821 l 404 1000 l 406 1004 l 553 1004 l 638 821 l 522 821 z "},"x":{"ha":718,"x_min":-69,"x_max":746,"o":"m -69 0 l 265 376 l 74 731 l 235 731 l 358 482 l 367 482 l 576 731 l 746 731 l 428 375 l 629 0 l 469 0 l 335 269 l 326 269 l 100 0 l -69 0 z "},"y":{"ha":718,"x_min":-50,"x_max":753,"o":"m 64 -253 q -50 -239 -8 -253 l -32 -144 l 28 -144 q 136 -111 88 -144 q 221 0 185 -78 l 67 731 l 213 731 l 286 372 q 307 251 296 325 q 321 154 318 178 l 328 154 q 369 249 338 176 q 426 372 400 321 l 603 731 l 753 731 l 392 38 q 243 -178 318 -103 q 64 -253 168 -253 z "},"ý":{"ha":718,"x_min":-50,"x_max":753,"o":"m 0 0 m 64 -253 q -50 -239 -8 -253 l -32 -144 l 28 -144 q 136 -111 88 -144 q 221 0 185 -78 l 67 731 l 213 731 l 286 372 q 307 251 296 325 q 321 154 318 178 l 328 154 q 369 249 338 176 q 426 372 400 321 l 603 731 l 753 731 l 392 38 q 243 -178 318 -103 q 64 -253 168 -253 m 358 821 l 507 1004 l 663 1004 l 664 1000 l 489 821 l 358 821 z "},"ŷ":{"ha":718,"x_min":-50,"x_max":753,"o":"m 0 0 m 64 -253 q -50 -239 -8 -253 l -32 -144 l 28 -144 q 136 -111 88 -144 q 221 0 185 -78 l 67 731 l 213 731 l 286 372 q 307 251 296 325 q 321 154 318 178 l 328 154 q 369 249 338 176 q 426 372 400 321 l 603 731 l 753 731 l 392 38 q 243 -178 318 -103 q 64 -253 168 -253 m 203 817 l 382 1004 l 515 1004 l 629 817 l 501 817 l 440 922 l 344 817 l 203 817 z "},"ÿ":{"ha":718,"x_min":-50,"x_max":753,"o":"m 0 0 m 64 -253 q -50 -239 -8 -253 l -32 -144 l 28 -144 q 136 -111 88 -144 q 221 0 185 -78 l 67 731 l 213 731 l 286 372 q 307 251 296 325 q 321 154 318 178 l 328 154 q 369 249 338 176 q 426 372 400 321 l 603 731 l 753 731 l 392 38 q 243 -178 318 -103 q 64 -253 168 -253 m 231 863 l 256 1004 l 390 1004 l 364 863 l 231 863 m 500 863 l 525 1004 l 660 1004 l 635 863 l 500 863 z "},"ỵ":{"ha":718,"x_min":-50,"x_max":753,"o":"m 0 0 m 64 -253 q -50 -239 -8 -253 l -32 -144 l 28 -144 q 136 -111 88 -144 q 221 0 185 -78 l 67 731 l 213 731 l 286 372 q 307 251 296 325 q 321 154 318 178 l 328 154 q 369 249 338 176 q 426 372 400 321 l 603 731 l 753 731 l 392 38 q 243 -178 318 -103 q 64 -253 168 -253 m 361 -240 l 388 -94 l 529 -94 l 503 -240 l 361 -240 z "},"ỳ":{"ha":718,"x_min":-50,"x_max":753,"o":"m 0 0 m 64 -253 q -50 -239 -8 -253 l -32 -144 l 28 -144 q 136 -111 88 -144 q 221 0 185 -78 l 67 731 l 213 731 l 286 372 q 307 251 296 325 q 321 154 318 178 l 328 154 q 369 249 338 176 q 426 372 400 321 l 603 731 l 753 731 l 392 38 q 243 -178 318 -103 q 64 -253 168 -253 m 367 821 l 249 1000 l 250 1004 l 397 1004 l 482 821 l 367 821 z "},"ỷ":{"ha":718,"x_min":-50,"x_max":753,"o":"m 0 0 m 64 -253 q -50 -239 -8 -253 l -32 -144 l 28 -144 q 136 -111 88 -144 q 221 0 185 -78 l 67 731 l 213 731 l 286 372 q 307 251 296 325 q 321 154 318 178 l 328 154 q 369 249 338 176 q 426 372 400 321 l 603 731 l 753 731 l 392 38 q 243 -178 318 -103 q 64 -253 168 -253 m 399 903 l 417 903 q 452 910 442 903 q 463 933 463 918 q 452 949 463 944 q 422 953 442 953 l 339 953 l 349 1010 q 457 1021 400 1021 q 544 1006 507 1021 q 581 951 581 990 q 549 885 581 908 q 474 858 518 863 l 467 821 l 383 821 l 399 903 z "},"ȳ":{"ha":718,"x_min":-50,"x_max":753,"o":"m 0 0 m 64 -253 q -50 -239 -8 -253 l -32 -144 l 28 -144 q 136 -111 88 -144 q 221 0 185 -78 l 67 731 l 213 731 l 286 372 q 307 251 296 325 q 321 154 318 178 l 328 154 q 369 249 338 176 q 426 372 400 321 l 603 731 l 753 731 l 392 38 q 243 -178 318 -103 q 64 -253 168 -253 m 222 864 l 240 971 l 664 971 l 646 864 l 222 864 z "},"ỹ":{"ha":718,"x_min":-50,"x_max":753,"o":"m 0 0 m 64 -253 q -50 -239 -8 -253 l -32 -144 l 28 -144 q 136 -111 88 -144 q 221 0 185 -78 l 67 731 l 213 731 l 286 372 q 307 251 296 325 q 321 154 318 178 l 328 154 q 369 249 338 176 q 426 372 400 321 l 603 731 l 753 731 l 392 38 q 243 -178 318 -103 q 64 -253 168 -253 m 200 851 q 249 961 211 918 q 349 1004 286 1004 q 395 999 374 1004 q 450 981 417 993 q 499 964 479 969 q 542 958 519 958 q 592 1004 579 958 l 685 1004 q 635 894 674 938 q 535 851 597 851 q 488 857 510 851 q 433 875 467 863 q 384 892 404 886 q 342 897 364 897 q 292 851 304 897 l 200 851 z "},"z":{"ha":694,"x_min":-36,"x_max":701,"o":"m -36 0 l -24 71 l 461 613 l 97 613 l 118 731 l 701 731 l 689 661 l 201 118 l 613 118 l 592 0 l -36 0 z "},"ź":{"ha":694,"x_min":-36,"x_max":701,"o":"m 0 0 m -36 0 l -24 71 l 461 613 l 97 613 l 118 731 l 701 731 l 689 661 l 201 118 l 613 118 l 592 0 l -36 0 m 361 821 l 510 1004 l 665 1004 l 667 1000 l 492 821 l 361 821 z "},"ž":{"ha":694,"x_min":-36,"x_max":701,"o":"m 0 0 m -36 0 l -24 71 l 461 613 l 97 613 l 118 731 l 701 731 l 689 661 l 201 118 l 613 118 l 592 0 l -36 0 m 360 817 l 246 1004 l 375 1004 l 438 899 l 531 1004 l 672 1004 l 493 817 l 360 817 z "},"ż":{"ha":694,"x_min":-36,"x_max":701,"o":"m 0 0 m -36 0 l -24 71 l 461 613 l 97 613 l 118 731 l 701 731 l 689 661 l 201 118 l 613 118 l 592 0 l -36 0 m 363 858 l 389 1004 l 531 1004 l 504 858 l 363 858 z "},"ẓ":{"ha":694,"x_min":-36,"x_max":701,"o":"m 0 0 m -36 0 l -24 71 l 461 613 l 97 613 l 118 731 l 701 731 l 689 661 l 201 118 l 613 118 l 592 0 l -36 0 m 171 -240 l 197 -94 l 339 -94 l 313 -240 l 171 -240 z "},"ﬁ":{"ha":742,"x_min":-139,"x_max":747,"o":"m 0 0 m -28 -253 q -88 -247 -57 -253 q -139 -235 -119 -242 l -121 -135 l -50 -135 q 25 -71 14 -135 l 146 613 l 40 613 l 61 731 l 167 731 l 186 838 q 244 966 200 917 q 383 1015 289 1015 q 443 1010 413 1015 q 494 997 474 1006 l 476 897 l 404 897 q 329 833 340 897 l 310 731 l 447 731 l 426 613 l 289 613 l 168 -75 q 110 -203 154 -154 q -28 -253 67 -253 m 578 857 l 604 1004 l 747 1004 l 721 857 l 578 857 m 428 0 l 557 731 l 700 731 l 571 0 l 428 0 z "},"ﬂ":{"ha":742,"x_min":-139,"x_max":747,"o":"m 0 0 m -28 -253 q -88 -247 -57 -253 q -139 -235 -119 -242 l -121 -135 l -50 -135 q 25 -71 14 -135 l 146 613 l 40 613 l 61 731 l 167 731 l 186 838 q 244 966 200 917 q 383 1015 289 1015 q 443 1010 413 1015 q 494 997 474 1006 l 476 897 l 404 897 q 329 833 340 897 l 310 731 l 447 731 l 426 613 l 289 613 l 168 -75 q 110 -203 154 -154 q -28 -253 67 -253 m 428 0 l 604 1004 l 747 1004 l 571 0 l 428 0 z "},"ª":{"ha":514,"x_min":79,"x_max":543,"o":"m 469 622 q 497 597 469 597 l 531 597 l 519 535 q 456 521 492 521 q 398 539 419 521 q 376 592 376 557 l 376 603 l 372 603 q 310 542 349 564 q 231 521 272 521 q 119 566 160 521 q 79 699 79 611 q 107 863 79 789 q 186 979 135 936 q 304 1022 238 1022 q 381 1006 351 1022 q 428 956 411 990 l 433 956 l 461 1011 l 543 1011 l 511 846 q 469 622 469 632 m 260 607 q 343 647 310 607 q 392 742 376 688 q 407 838 407 797 q 322 936 407 936 q 219 867 254 936 q 183 704 183 799 q 260 607 183 607 z "},"º":{"ha":507,"x_min":82,"x_max":547,"o":"m 292 519 q 82 701 82 519 q 144 928 82 835 q 338 1022 206 1022 q 495 977 443 1022 q 547 839 547 932 q 485 613 547 706 q 292 519 424 519 m 290 604 q 390 648 354 604 q 438 765 426 692 q 443 831 443 799 q 417 911 443 885 q 339 938 392 938 q 241 895 276 938 q 193 781 206 853 q 186 710 186 747 q 212 630 186 656 q 290 604 238 604 z "},"ⁿ":{"ha":519,"x_min":75,"x_max":536,"o":"m 160 1011 l 242 1011 l 242 946 l 247 946 q 315 1003 276 983 q 399 1022 354 1022 q 499 994 463 1022 q 536 906 536 965 q 529 847 536 885 l 474 532 l 372 532 l 426 840 q 431 878 431 861 q 367 940 431 940 q 277 903 317 940 q 226 806 238 867 l 176 532 l 75 532 l 160 1011 z "}}}
